<svg xmlns="http://www.w3.org/2000/svg" width="25" height="25" viewBox="0 0 25 25" fill="none"
     class="svg svg-button svg-button-close">
    <title/>
    <path fill-rule="evenodd" clip-rule="evenodd"
          d="M22.637 24.015c.413.41 1.08.41 1.493 0a1.05 1.05 0 000-1.488L13.99 12.419l10.1-10.067a1.05 1.05 0 000-1.488 1.058 1.058 0 00-1.493 0l-10.1 10.067L2.282.747a1.058 1.058 0 00-1.492 0 1.05 1.05 0 000 1.488L11.005 12.42.75 22.643a1.05 1.05 0 000 1.488c.412.41 1.08.41 1.492 0l10.257-10.224 10.14 10.108z"
          fill="#004B76"/>
</svg>



