<svg width="24" height="24" viewBox="0 0 24 24" fill="none" xmlns="http://www.w3.org/2000/svg">
<path fill-rule="evenodd" clip-rule="evenodd" d="M22.0805 0H2.05071C0.95625 0 0 0.7875 0 1.86911V21.9434C0 23.0309 0.95625 24 2.05071 24H22.0746C23.175 24 24 23.0245 24 21.9434V1.86911C24.0064 0.7875 23.175 0 22.0805 0ZM7.43947 20.0051H4.00126V9.31494H7.43947V20.0051ZM5.83927 7.68976H5.81463C4.71427 7.68976 4.00177 6.87065 4.00177 5.8453C4.00177 4.80119 4.73302 4.00137 5.85802 4.00137C6.98302 4.00137 7.67141 4.7953 7.69606 5.8453C7.69552 6.87065 6.98302 7.68976 5.83927 7.68976ZM20.0052 20.0051H16.567V14.1599C16.567 12.7596 16.0666 11.8028 14.8227 11.8028C13.8723 11.8028 13.3098 12.4456 13.0597 13.0719C12.9659 13.2969 12.9407 13.6033 12.9407 13.9162V20.0051H9.50251V9.31492H12.9407V10.8026C13.4411 10.0901 14.2227 9.06475 16.0414 9.06475C18.2984 9.06475 20.0057 10.5524 20.0057 13.7597L20.0052 20.0051Z" fill="white"/>
</svg>
