<svg width="48" height="48"  class="lupe" viewBox="0 0 48 48" fill="none" xmlns="http://www.w3.org/2000/svg">
<path d="M24.5666 12.2848H18.4242V18.4273H12.2818V24.5698H18.4242V30.7122H24.5666V24.5698H30.7091V18.4273H24.5666V12.2848ZM48 42.653L39.1273 33.7803C41.5597 30.2975 42.997 26.0685 42.997 21.4985C42.997 9.6252 33.3688 0 21.4985 0C9.62828 0 0 9.6252 0 21.4985C0 33.3718 9.62516 42.997 21.4985 42.997C26.0685 42.997 30.3006 41.5597 33.7834 39.1273L42.6561 48L48 42.653ZM21.4954 36.8576C13.0158 36.8576 6.13936 29.9842 6.13936 21.5016C6.13936 13.0189 13.0158 6.14548 21.4954 6.14548C29.9781 6.14548 36.8515 13.0189 36.8515 21.5016C36.8546 29.9842 29.9812 36.8576 21.4954 36.8576Z" fill="#D8D8D8"/>
</svg>
