<svg width="20" height="21" viewBox="0 0 20 21" fill="none" xmlns="http://www.w3.org/2000/svg">
<mask id="path-1-inside-1" fill="white">
<path fill-rule="evenodd" clip-rule="evenodd" d="M13.5451 8.59256C13.5451 11.6039 11.1039 14.0451 8.09256 14.0451C5.0812 14.0451 2.64 11.6039 2.64 8.59256C2.64 5.5812 5.0812 3.14 8.09256 3.14C11.1039 3.14 13.5451 5.5812 13.5451 8.59256ZM12.7816 15.189C11.4587 16.1311 9.84033 16.6851 8.09256 16.6851C3.62316 16.6851 0 13.062 0 8.59256C0 4.12316 3.62316 0.5 8.09256 0.5C12.562 0.5 16.1851 4.12316 16.1851 8.59256C16.1851 10.3403 15.6311 11.9587 14.689 13.2816L20 18.5926L18.0926 20.5L12.7816 15.189Z"/>
</mask>
<path d="M12.7816 15.189L14.6483 13.3223L13.0693 11.7432L11.2502 13.0386L12.7816 15.189ZM14.689 13.2816L12.5386 11.7502L11.2432 13.5693L12.8223 15.1483L14.689 13.2816ZM20 18.5926L21.8668 20.4593L23.7335 18.5926L21.8668 16.7258L20 18.5926ZM18.0926 20.5L16.2258 22.3668L18.0926 24.2335L19.9593 22.3668L18.0926 20.5ZM8.09256 16.6851C12.562 16.6851 16.1851 13.062 16.1851 8.59256H10.9051C10.9051 10.1459 9.6459 11.4051 8.09256 11.4051V16.6851ZM0 8.59256C0 13.062 3.62316 16.6851 8.09256 16.6851V11.4051C6.53923 11.4051 5.28 10.1459 5.28 8.59256H0ZM8.09256 0.5C3.62316 0.5 0 4.12316 0 8.59256H5.28C5.28 7.03923 6.53923 5.78 8.09256 5.78V0.5ZM16.1851 8.59256C16.1851 4.12316 12.562 0.5 8.09256 0.5V5.78C9.6459 5.78 10.9051 7.03923 10.9051 8.59256H16.1851ZM8.09256 19.3251C10.4071 19.3251 12.5577 18.5894 14.313 17.3395L11.2502 13.0386C10.3597 13.6727 9.27355 14.0451 8.09256 14.0451V19.3251ZM-2.64 8.59256C-2.64 14.52 2.16513 19.3251 8.09256 19.3251V14.0451C5.0812 14.0451 2.64 11.6039 2.64 8.59256H-2.64ZM8.09256 -2.14C2.16513 -2.14 -2.64 2.66513 -2.64 8.59256H2.64C2.64 5.5812 5.0812 3.14 8.09256 3.14V-2.14ZM18.8251 8.59256C18.8251 2.66513 14.02 -2.14 8.09256 -2.14V3.14C11.1039 3.14 13.5451 5.5812 13.5451 8.59256H18.8251ZM16.8395 14.813C18.0894 13.0577 18.8251 10.9071 18.8251 8.59256H13.5451C13.5451 9.77355 13.1727 10.8597 12.5386 11.7502L16.8395 14.813ZM12.8223 15.1483L18.1332 20.4593L21.8668 16.7258L16.5558 11.4148L12.8223 15.1483ZM18.1332 16.7258L16.2258 18.6332L19.9593 22.3668L21.8668 20.4593L18.1332 16.7258ZM19.9593 18.6332L14.6483 13.3223L10.9148 17.0558L16.2258 22.3668L19.9593 18.6332Z" fill="{{color: #000}}" mask="url(#path-1-inside-1)"/>
</svg>
