<svg width="20" height="21" viewBox="0 0 20 21" fill="none" xmlns="http://www.w3.org/2000/svg">
<path id="path-1-inside-1" fill="white" fill-rule="evenodd" clip-rule="evenodd" d="M13.5451 8.59256C13.5451 11.6039 11.1039 14.0451 8.09256 14.0451C5.0812 14.0451 2.64 11.6039 2.64 8.59256C2.64 5.5812 5.0812 3.14 8.09256 3.14C11.1039 3.14 13.5451 5.5812 13.5451 8.59256ZM12.7816 15.189C11.4587 16.1311 9.84033 16.6851 8.09256 16.6851C3.62316 16.6851 0 13.062 0 8.59256C0 4.12316 3.62316 0.5 8.09256 0.5C12.562 0.5 16.1851 4.12316 16.1851 8.59256C16.1851 10.3403 15.6311 11.9587 14.689 13.2816L20 18.5926L18.0926 20.5L12.7816 15.189Z"/>
</svg>
