<svg width="24" height="20" viewBox="0 0 24 20" fill="none" xmlns="http://www.w3.org/2000/svg">
<path d="M24 2.27501C23.0997 2.66618 22.1472 2.9239 21.1725 3.04001C22.1968 2.4402 22.9672 1.48729 23.339 0.360008C22.3705 0.926304 21.3128 1.32364 20.211 1.53501C19.2734 0.552378 17.9737 -0.00250174 16.6155 8.48009e-06C13.8945 8.48009e-06 11.6925 2.17001 11.6925 4.84501C11.6906 5.21709 11.7332 5.58807 11.8195 5.95001C7.8742 5.76505 4.18944 3.9263 1.6695 0.885008C1.23229 1.62207 1.00107 2.46303 1 3.32001C1 5.00001 1.8765 6.48501 3.2 7.35501C2.41586 7.3364 1.6478 7.12886 0.961 6.75001V6.81001C0.961 9.16001 2.661 11.115 4.911 11.56C4.48789 11.6728 4.05188 11.7299 3.614 11.73C3.30329 11.7305 2.99328 11.7004 2.6885 11.64C3.314 13.565 5.1345 14.965 7.291 15.005C5.53869 16.3555 3.38731 17.0854 1.175 17.08C0.782309 17.0794 0.389983 17.0561 0 17.01C2.25059 18.4471 4.86672 19.2073 7.537 19.2C16.605 19.2 21.559 11.815 21.559 5.41001C21.559 5.20001 21.5535 4.99001 21.5435 4.78501C22.505 4.10104 23.3369 3.25106 24 2.27501Z" fill="white"/>
</svg>
