<svg width="18" height="18" viewBox="0 0 18 18" fill="none" xmlns="http://www.w3.org/2000/svg">
<path fill-rule="evenodd" clip-rule="evenodd" d="M9 2.25C7.1667 2.25 6.9372 2.25765 6.2172 2.2905C5.49855 2.32335 5.0076 2.43765 4.5783 2.6046C4.1283 2.7738 3.72015 3.0393 3.38265 3.3831C3.0394 3.72021 2.77374 4.12807 2.60415 4.5783C2.4381 5.0076 2.32335 5.499 2.2905 6.21765C2.2581 6.9372 2.25 7.16625 2.25 9C2.25 10.8337 2.25765 11.0628 2.2905 11.7828C2.32335 12.5014 2.43765 12.9924 2.6046 13.4217C2.7738 13.8717 3.0393 14.2798 3.3831 14.6173C3.72022 14.9606 4.12808 15.2263 4.5783 15.3958C5.0076 15.5623 5.49855 15.6766 6.2172 15.7095C6.9372 15.7423 7.1667 15.75 9 15.75C10.8333 15.75 11.0628 15.7423 11.7828 15.7095C12.5014 15.6766 12.9924 15.5623 13.4217 15.3954C13.8717 15.2262 14.2798 14.9607 14.6173 14.6169C14.9606 14.2798 15.2263 13.8719 15.3958 13.4217C15.5623 12.9924 15.6766 12.5014 15.7095 11.7828C15.7423 11.0628 15.75 10.8333 15.75 9C15.75 7.1667 15.7423 6.9372 15.7095 6.2172C15.6766 5.49855 15.5623 5.0076 15.3954 4.5783C15.2259 4.12788 14.9603 3.71984 14.6169 3.38265C14.2798 3.0394 13.8719 2.77374 13.4217 2.60415C12.9924 2.4381 12.501 2.32335 11.7824 2.2905C11.0628 2.2581 10.8337 2.25 9 2.25ZM9 3.46635C10.8022 3.46635 11.016 3.4731 11.7279 3.5055C12.3858 3.53565 12.7431 3.645 12.9811 3.73815C13.2961 3.8601 13.5211 4.0068 13.7574 4.2426C13.9936 4.47885 14.1399 4.70385 14.2619 5.01885C14.3546 5.2569 14.4643 5.6142 14.4945 6.2721C14.5269 6.984 14.5337 7.19775 14.5337 9C14.5337 10.8022 14.5269 11.016 14.4945 11.7279C14.4643 12.3858 14.355 12.7431 14.2619 12.9811C14.1538 13.2743 13.9814 13.5396 13.7574 13.7574C13.5396 13.9815 13.2744 14.1539 12.9811 14.2619C12.7431 14.3546 12.3858 14.4643 11.7279 14.4945C11.016 14.5269 10.8027 14.5337 9 14.5337C7.1973 14.5337 6.984 14.5269 6.2721 14.4945C5.6142 14.4643 5.2569 14.355 5.01885 14.2619C4.72565 14.1538 4.4604 13.9814 4.2426 13.7574C4.01858 13.5396 3.84621 13.2743 3.73815 12.9811C3.64545 12.7431 3.53565 12.3858 3.5055 11.7279C3.4731 11.016 3.46635 10.8022 3.46635 9C3.46635 7.19775 3.4731 6.984 3.5055 6.2721C3.53565 5.6142 3.645 5.2569 3.73815 5.01885C3.8601 4.70385 4.0068 4.47885 4.2426 4.2426C4.46037 4.01852 4.72563 3.84614 5.01885 3.73815C5.2569 3.64545 5.6142 3.53565 6.2721 3.5055C6.984 3.4731 7.19775 3.46635 9 3.46635V3.46635Z" fill="black"/>
<path fill-rule="evenodd" clip-rule="evenodd" d="M8.99977 11.2523C8.704 11.2523 8.41113 11.1941 8.13787 11.0809C7.86462 10.9677 7.61633 10.8018 7.40719 10.5927C7.19805 10.3835 7.03215 10.1352 6.91897 9.86198C6.80578 9.58873 6.74752 9.29586 6.74752 9.00009C6.74752 8.70432 6.80578 8.41144 6.91897 8.13819C7.03215 7.86493 7.19805 7.61665 7.40719 7.4075C7.61633 7.19836 7.86462 7.03246 8.13787 6.91928C8.41113 6.80609 8.704 6.74784 8.99977 6.74784C9.59711 6.74784 10.17 6.98513 10.5924 7.4075C11.0147 7.82988 11.252 8.40275 11.252 9.00009C11.252 9.59742 11.0147 10.1703 10.5924 10.5927C10.17 11.015 9.59711 11.2523 8.99977 11.2523V11.2523ZM8.99977 5.53059C8.0796 5.53059 7.19712 5.89612 6.54647 6.54678C5.89581 7.19744 5.53027 8.07992 5.53027 9.00009C5.53027 9.92025 5.89581 10.8027 6.54647 11.4534C7.19712 12.1041 8.0796 12.4696 8.99977 12.4696C9.91994 12.4696 10.8024 12.1041 11.4531 11.4534C12.1037 10.8027 12.4693 9.92025 12.4693 9.00009C12.4693 8.07992 12.1037 7.19744 11.4531 6.54678C10.8024 5.89612 9.91994 5.53059 8.99977 5.53059V5.53059ZM13.4786 5.46759C13.4786 5.6851 13.3922 5.8937 13.2384 6.0475C13.0846 6.20131 12.876 6.28771 12.6585 6.28771C12.441 6.28771 12.2324 6.20131 12.0786 6.0475C11.9248 5.8937 11.8384 5.6851 11.8384 5.46759C11.8384 5.25008 11.9248 5.04147 12.0786 4.88767C12.2324 4.73387 12.441 4.64746 12.6585 4.64746C12.876 4.64746 13.0846 4.73387 13.2384 4.88767C13.3922 5.04147 13.4786 5.25008 13.4786 5.46759" fill="black"/>
</svg>
