<?xml version="1.0" encoding="utf-8"?>
<svg version="1.1" id="Layer_1" x="0px" y="0px" viewBox="0 0 511.996 511.996" style="enable-background:new 0 0 511.996 511.996;" xmlns="http://www.w3.org/2000/svg">
  <g>
    <g>
      <path d="M 467.01 64.373 C 437.015 34.378 397.711 19.385 358.398 19.385 C 321.619 19.385 285.139 33.047 255.998 59.304 C 226.848 33.047 190.377 19.385 153.598 19.385 C 114.285 19.385 74.98 34.378 44.986 64.373 C -14.995 124.354 -14.995 221.608 44.986 281.598 L 255.998 492.61 L 467.01 281.598 C 526.991 221.609 526.991 124.363 467.01 64.373 Z M 254.241 271.229 L 255.998 456.403 L 335.157 187.89 C 285.254 137.979 206.669 333.015 256.572 283.112 C 280.747 258.937 247.999 248.006 282.192 248.006 C 313.398 248.006 154.463 217.895 177.759 238.221 L 247.663 314.645 L 248.517 300.129 C 271.813 279.811 220.634 306.342 251.84 306.342 C 286.033 306.342 233.036 276.789 257.219 300.964 C 307.13 350.866 304.144 221.326 254.241 271.229 Z" style="paint-order: fill; fill-rule: nonzero; fill: rgb(232, 49, 107);"/>
    </g>
  </g>
  <g/>
  <g/>
  <g/>
  <g/>
  <g/>
  <g/>
  <g/>
  <g/>
  <g/>
  <g/>
  <g/>
  <g/>
  <g/>
  <g/>
  <g/>
</svg>