<?xml version="1.0" encoding="UTF-8"?>
<svg width="191px" height="61px" viewBox="0 0 191 61" version="1.1" xmlns="http://www.w3.org/2000/svg" xmlns:xlink="http://www.w3.org/1999/xlink">
    <!-- Generator: Sketch 63.1 (92452) - https://sketch.com -->
    <title>Shape</title>
    <desc>Created with Sketch.</desc>
    <g id="desktop" stroke="none" stroke-width="1" fill="none" fill-rule="evenodd">
        <g id="mgo360_01_home_desktop_0_intro1" transform="translate(-623.000000, -443.000000)" fill="#FFFFFF" fill-rule="nonzero">
            <g id="Group-8" transform="translate(623.000000, 171.000000)">
                <g id="Group" transform="translate(0.000000, 272.000000)">
                    <g id="mgo_360_logo_RGB" transform="translate(0.242812, 0.000000)">
                        <path d="M39.5452321,46.3421161 L48.5392741,46.3421161 L48.5392741,25.303364 C48.5392741,17.4849089 44.1136344,12.0830671 37.1182684,12.0830671 C32.8353913,12.0830671 29.4090896,14.2153731 27.1248885,17.4849089 C25.1262125,14.0732193 21.9854359,12.0830671 17.8453214,12.0830671 C13.8479694,12.0830671 10.4216677,14.0732193 8.13746654,17.0584477 L6.28155312,13.0781432 L0,13.0781432 L0,46.3421161 L9.13680454,46.3421161 L9.13680454,28.2885924 C9.13680454,23.0289043 11.2782431,20.043676 15.4183577,20.043676 C18.7018968,20.043676 19.9867599,22.4602894 19.9867599,26.8670551 L19.9867599,46.3421161 L28.8380393,46.3421161 L28.8380393,28.2885924 C28.8380393,23.0289043 30.8367153,20.043676 34.8340673,20.043676 C38.1176064,20.043676 39.5452321,22.4602894 39.5452321,26.8670551 L39.5452321,46.3421161 Z M80.9463777,29.2836685 C80.9463777,34.4012028 77.2345508,38.0971998 72.2378609,38.0971998 C67.0984083,38.0971998 63.529344,34.4012028 63.529344,29.2836685 C63.529344,24.1661342 67.2411709,20.4701372 72.2378609,20.4701372 C77.3773134,20.4701372 80.9463777,24.1661342 80.9463777,29.2836685 L80.9463777,29.2836685 Z M90.0831822,43.2147341 L90.0831822,13.0781432 L84.0871542,13.0781432 L82.6595285,16.4898327 C79.6615145,13.7889119 75.8069251,12.0830671 71.3812854,12.0830671 C61.8161932,12.0830671 54.8208272,19.6172148 54.8208272,29.2836685 C54.8208272,38.8079684 61.8161932,46.3421161 71.3812854,46.3421161 C75.0931123,46.3421161 78.519414,45.2048863 81.2319028,43.2147341 L81.2319028,44.4941176 C81.2319028,49.4694982 77.3773134,52.739034 72.6661486,52.739034 C69.2398469,52.739034 65.3852575,51.3174967 64.3859195,48.3322684 L55.2491149,48.3322684 C56.8195032,56.1507235 63.8148692,60.4153355 73.0944363,60.4153355 C83.6588665,60.4153355 90.0831822,53.8762639 90.0831822,43.2147341 L90.0831822,43.2147341 Z M114.352819,13.0781432 C114.352819,16.347679 111.64033,19.1907536 108.214029,19.1907536 C104.93049,19.1907536 102.075238,16.4898327 102.075238,13.0781432 C102.075238,9.8086074 104.787727,6.96553279 108.214029,6.96553279 C111.64033,7.10768653 114.352819,9.8086074 114.352819,13.0781432 L114.352819,13.0781432 Z M121.348185,13.0781432 C121.348185,5.82830295 115.49492,0 108.214029,0 C100.933138,0 95.0798722,5.82830295 95.0798722,13.0781432 C95.0798722,20.3279835 100.933138,26.1562864 108.214029,26.1562864 C115.49492,26.1562864 121.348185,20.3279835 121.348185,13.0781432 L121.348185,13.0781432 Z M143.333621,31.2738207 L148.473074,23.3132118 L148.473074,22.4602894 L134.196817,22.4602894 L134.196817,25.871979 L142.905333,25.871979 L138.051406,33.4061267 L138.051406,34.1168953 L141.04942,34.1168953 C143.761909,34.1168953 145.617822,35.8227401 145.617822,38.3815072 C145.617822,40.9402744 143.904671,42.6461192 141.334945,42.6461192 C139.050744,42.6461192 137.337593,41.0824281 137.194831,38.8079684 L133.483004,38.8079684 C133.625766,43.2147341 136.909305,46.3421161 141.334945,46.3421161 C145.903347,46.3421161 149.329649,43.0725803 149.329649,38.6658147 C149.472412,34.827664 147.045448,31.9845894 143.333621,31.2738207 L143.333621,31.2738207 Z M165.46182,38.2393535 C165.46182,40.9402744 163.463144,42.7882729 160.750655,42.7882729 C158.038166,42.7882729 156.03949,40.7981207 156.03949,38.2393535 C156.03949,35.5384326 158.038166,33.6904341 160.750655,33.6904341 C163.463144,33.5482804 165.46182,35.5384326 165.46182,38.2393535 L165.46182,38.2393535 Z M169.316409,38.2393535 C169.316409,33.6904341 165.747345,30.5630521 161.464468,30.5630521 C160.46513,30.5630521 159.608554,30.7052058 158.609216,31.131667 C159.608554,29.2836685 160.607892,27.43567 163.463144,22.4602894 L159.323029,22.4602894 L154.611864,30.5630521 C152.898713,33.5482804 152.042138,35.9648938 152.042138,38.0971998 C152.042138,42.9304266 155.611202,46.1999624 160.607892,46.1999624 C165.747345,46.3421161 169.316409,42.9304266 169.316409,38.2393535 L169.316409,38.2393535 Z M186.305155,34.2590491 C186.305155,39.6608908 184.306479,42.7882729 180.880177,42.7882729 C177.453876,42.7882729 175.4552,39.6608908 175.4552,34.2590491 C175.4552,28.8572073 177.453876,25.7298252 180.880177,25.7298252 C184.306479,25.7298252 186.305155,28.8572073 186.305155,34.2590491 L186.305155,34.2590491 Z M190.159744,34.2590491 C190.159744,26.8670551 186.59068,22.175982 180.880177,22.175982 C175.169674,22.175982 171.60061,26.7249013 171.60061,34.2590491 C171.60061,41.651043 175.169674,46.3421161 180.880177,46.3421161 C186.59068,46.3421161 190.159744,41.651043 190.159744,34.2590491 L190.159744,34.2590491 Z" id="Shape"></path>
                    </g>
                </g>
            </g>
        </g>
    </g>
</svg>