<svg width="24" height="24" viewBox="0 0 24 24" fill="none" xmlns="http://www.w3.org/2000/svg">
<path fill-rule="evenodd" clip-rule="evenodd" d="M16.1665 3.66652C18.465 3.67338 20.3266 5.53498 20.3335 7.83348V16.1665C20.3266 18.465 18.465 20.3266 16.1665 20.3335H7.83348C5.53498 20.3266 3.67338 18.465 3.66652 16.1665V7.83348C3.67338 5.53498 5.53498 3.67338 7.83348 3.66652H16.1665ZM16.1665 2H7.83348C4.625 2 2 4.625 2 7.83348V16.1665C2 19.375 4.625 22 7.83348 22H16.1665C19.375 22 22 19.375 22 16.1665V7.83348C22 4.625 19.375 2 16.1665 2Z" fill="{{color: #9DA042}}"/>
<path fill-rule="evenodd" clip-rule="evenodd" d="M17.4165 7.83301C16.7261 7.83301 16.1665 7.27336 16.1665 6.58301C16.1665 5.89265 16.7261 5.33301 17.4165 5.33301C18.1069 5.33301 18.6665 5.89265 18.6665 6.58301C18.6672 6.91475 18.5358 7.2331 18.3012 7.46768C18.0666 7.70225 17.7482 7.83372 17.4165 7.83301Z" fill="{{color: #9DA042}}"/>
<path fill-rule="evenodd" clip-rule="evenodd" d="M12 8.66652C13.3483 8.66652 14.5638 9.47869 15.0797 10.7243C15.5957 11.97 15.3105 13.4038 14.3571 14.3571C13.4038 15.3105 11.97 15.5957 10.7243 15.0797C9.47869 14.5638 8.66652 13.3483 8.66652 12C8.66849 10.1598 10.1598 8.66849 12 8.66652ZM12 7C9.23858 7 7 9.23858 7 12C7 14.7614 9.23858 17 12 17C14.7614 17 17 14.7614 17 12C17 10.6739 16.4732 9.40215 15.5355 8.46447C14.5979 7.52678 13.3261 7 12 7Z" fill="{{color: #9DA042}}"/>
</svg>
