<svg width="24" height="24" viewBox="0 0 24 24" fill="none" xmlns="http://www.w3.org/2000/svg">
<path fill-rule="evenodd" clip-rule="evenodd" d="M20.896 2H3.10402C2.49439 2.00025 2.00025 2.49439 2 3.10402V20.896C2.00025 21.5056 2.49439 21.9998 3.10402 22H12V14.1429H9.60938V11.2857H12V9.00893C12 6.42589 13.7915 5.01964 16.0991 5.01964C17.2031 5.01964 18.3906 5.10268 18.6665 5.13929V7.83705H16.8281C15.5728 7.83705 15.3335 8.4308 15.3335 9.3058V11.2857H18.3246L17.9339 14.1429H15.3335V22H20.896C21.5056 21.9998 21.9998 21.5056 22 20.896V3.10402C21.9998 2.49439 21.5056 2.00025 20.896 2Z" fill="{{color: #9DA042}}"/>
</svg>
