<svg width="24" height="24" viewBox="0 0 24 24" fill="none" xmlns="http://www.w3.org/2000/svg">
<path fill-rule="evenodd" clip-rule="evenodd" d="M14.0892 14.1384L21.0178 2H16.3749L9.42849 14.1339C9.41056 14.156 9.41056 14.1877 9.42849 14.2098L13.8437 21.9688C13.8615 22 13.8794 22 13.9151 22H18.5178L14.0847 14.2009C14.0774 14.1804 14.079 14.1577 14.0892 14.1384Z" fill="{{color: #9DA042}}"/>
<path fill-rule="evenodd" clip-rule="evenodd" d="M9.98661 10.2228L7.35714 5.61571C7.33926 5.58402 7.30394 5.56636 7.26786 5.57106H2.98214L5.61161 10.2318C5.61744 10.2427 5.61903 10.2554 5.61607 10.2675L2 16.2853H6.32143C6.35149 16.2892 6.38051 16.2728 6.39286 16.2452L9.98661 10.2764C9.99107 10.2588 9.99107 10.2404 9.98661 10.2228Z" fill="{{color: #9DA042}}"/>
</svg>
