<svg width="24" height="24" viewBox="0 0 24 24" fill="none" xmlns="http://www.w3.org/2000/svg">
<path d="M24 4.27501C23.0997 4.66618 22.1472 4.9239 21.1725 5.04001C22.1968 4.4402 22.9672 3.48729 23.339 2.36001C22.3705 2.9263 21.3128 3.32364 20.211 3.53501C19.2734 2.55238 17.9737 1.9975 16.6155 2.00001C13.8945 2.00001 11.6925 4.17001 11.6925 6.84501C11.6906 7.21709 11.7332 7.58807 11.8195 7.95001C7.8742 7.76505 4.18944 5.9263 1.6695 2.88501C1.23229 3.62207 1.00107 4.46303 1 5.32001C1 7.00001 1.8765 8.48501 3.2 9.35501C2.41586 9.3364 1.6478 9.12886 0.961 8.75001V8.81001C0.961 11.16 2.661 13.115 4.911 13.56C4.48789 13.6728 4.05188 13.7299 3.614 13.73C3.30329 13.7305 2.99328 13.7004 2.6885 13.64C3.314 15.565 5.1345 16.965 7.291 17.005C5.53869 18.3555 3.38731 19.0854 1.175 19.08C0.782309 19.0794 0.389983 19.0561 0 19.01C2.25059 20.4471 4.86672 21.2073 7.537 21.2C16.605 21.2 21.559 13.815 21.559 7.41001C21.559 7.20001 21.5535 6.99001 21.5435 6.78501C22.505 6.10104 23.3369 5.25106 24 4.27501Z" fill="{{color: #9DA042}}"/>
</svg>
