<svg width="24" height="24" viewBox="0 0 24 24" fill="none" xmlns="http://www.w3.org/2000/svg">
<path fill-rule="evenodd" clip-rule="evenodd" d="M17.1429 7.14286C17.4838 7.14286 17.8109 7.27832 18.052 7.51943C18.2931 7.76055 18.4286 8.08757 18.4286 8.42857V13.5624C18.4286 13.9034 18.2931 14.2304 18.052 14.4716C17.8109 14.7127 17.4838 14.8481 17.1429 14.8481H4.28571C3.94472 14.8481 3.6177 14.7127 3.37658 14.4716C3.13546 14.2304 3 13.9034 3 13.5624V8.42857C3 8.08757 3.13546 7.76055 3.37658 7.51943C3.6177 7.27832 3.94472 7.14286 4.28571 7.14286H17.1429ZM6.69643 8.42857H4.28571V13.5714H5.73214V11.8576H6.69643C7.44343 11.8576 8.05543 11.3561 8.13386 10.712L8.14286 10.5706V9.71429C8.14286 9.05086 7.57971 8.50571 6.85457 8.43629L6.69643 8.42857ZM11.8393 8.42857H9.42857V13.5714H11.8393C12.5863 13.5714 13.1983 13.07 13.2767 12.4271L13.2857 12.2857V9.71429C13.2857 9.05086 12.7226 8.50571 11.9974 8.43629L11.8393 8.42857ZM17.1429 8.42857H14.5714V13.5714H15.8571V11.8576H17.1429V10.5719H15.8571V9.71429H17.1429V8.42857ZM12 9.71429V12.2857H10.7143V9.71429H12ZM19.8571 2C20.1981 2 20.5252 2.13546 20.7663 2.37658C21.0073 2.6177 21.1429 2.94472 21.1429 3.28571V20C21.1429 20.341 21.0073 20.6681 20.7663 20.9091C20.5252 21.1502 20.1981 21.2857 19.8571 21.2857H8.28571C7.94472 21.2857 7.6177 21.1502 7.37657 20.9091C7.13546 20.6681 7 20.341 7 20V16.1596H8.28571V20H19.8571V3.28571H8.28571V5.906H7V3.28571C7 2.94472 7.13546 2.6177 7.37657 2.37658C7.6177 2.13546 7.94472 2 8.28571 2H19.8571ZM6.85714 9.71429V11H5.57143V9.71429H6.85714Z" fill="{{color: #9DA042}}" />
</svg>
