<svg width="24" height="24" viewBox="0 0 24 24" fill="none" xmlns="http://www.w3.org/2000/svg">
<path fill-rule="evenodd" clip-rule="evenodd" d="M7.06034 3C6.68646 3 6.31815 3.13393 6.01123 3.37946L5.96659 3.40179L5.94427 3.42411L3.71213 5.72321L3.73445 5.74554C3.04527 6.3817 2.83322 7.33315 3.13177 8.15625C3.13456 8.16183 3.12898 8.17299 3.13177 8.17857C3.73724 9.91127 5.28579 13.2567 8.31034 16.2812C11.3461 19.317 14.7361 20.8041 16.413 21.4598H16.4353C17.3031 21.75 18.2434 21.5435 18.913 20.9688L21.1675 18.7143C21.759 18.1228 21.759 17.096 21.1675 16.5045L18.2657 13.6027L18.2434 13.558C17.6519 12.9665 16.6028 12.9665 16.0112 13.558L14.5827 14.9866C14.0665 14.7383 12.836 14.1021 11.6586 12.9777C10.4895 11.8616 9.89237 10.5781 9.67195 10.0759L11.1005 8.64732C11.7004 8.04743 11.7116 7.04855 11.0782 6.45982L11.1005 6.4375L11.0336 6.37054L8.17641 3.42411L8.15409 3.40179L8.10945 3.37946C7.80253 3.13393 7.43423 3 7.06034 3ZM7.06034 4.42857C7.11336 4.42857 7.16637 4.45368 7.21659 4.49554L10.0737 7.41964L10.1407 7.48661C10.1351 7.48103 10.1826 7.55636 10.0961 7.64286L8.31034 9.42857L7.97552 9.74107L8.13177 10.1875C8.13177 10.1875 8.95208 12.3834 10.6764 14.0268L10.8327 14.1607C12.4928 15.6758 14.4487 16.5045 14.4487 16.5045L14.8952 16.7054L17.0157 14.5848C17.1385 14.4621 17.1161 14.4621 17.2389 14.5848L20.163 17.5089C20.2858 17.6317 20.2858 17.5871 20.163 17.7098L17.9755 19.8973C17.6463 20.1791 17.2975 20.2377 16.8818 20.0982C15.2635 19.4621 12.1189 18.0809 9.31481 15.2768C6.48835 12.4503 5.01235 9.24442 4.47106 7.6875C4.36224 7.39732 4.44036 6.96763 4.69427 6.75L4.73891 6.70536L6.90409 4.49554C6.95432 4.45368 7.00733 4.42857 7.06034 4.42857Z" fill="{{color: #9DA042}}"/>
</svg>
