<svg width="24" height="24" viewBox="0 0 24 24" fill="none" xmlns="http://www.w3.org/2000/svg">
<path fill-rule="evenodd" clip-rule="evenodd" d="M20.4004 2H3.70893C2.79688 2 2 2.65625 2 3.55759V20.2862C2 21.1924 2.79688 22 3.70893 22H20.3955C21.3125 22 22 21.1871 22 20.2862V3.55759C22.0054 2.65625 21.3125 2 20.4004 2ZM8.19955 18.671H5.33438V9.7625H8.19955V18.671ZM6.86607 8.40804H6.84554C5.92857 8.40804 5.33482 7.72545 5.33482 6.87098C5.33482 6.00089 5.9442 5.33438 6.8817 5.33438C7.8192 5.33438 8.39286 5.99598 8.41339 6.87098C8.41295 7.72545 7.8192 8.40804 6.86607 8.40804ZM18.671 18.671H15.8058V13.8C15.8058 12.633 15.3888 11.8357 14.3522 11.8357C13.5603 11.8357 13.0915 12.3714 12.883 12.8933C12.8049 13.0808 12.7839 13.3362 12.7839 13.5969V18.671H9.91875V9.7625H12.7839V11.0022C13.2009 10.4085 13.8522 9.55402 15.3679 9.55402C17.2487 9.55402 18.6714 10.7937 18.6714 13.4665L18.671 18.671Z" fill="{{color: #9DA042}}"/>
</svg>
