<svg xmlns="http://www.w3.org/2000/svg" width="24" height="24" viewBox="0 0 24 24">
  <path fill="#4D8011" fill-rule="evenodd" d="M18.4004464,0 L1.70892857,0 C0.796875,0 0,0.65625 0,1.55758929 L0,18.2861607 C0,19.1924107 0.796875,20 1.70892857,20 L18.3955357,20 C19.3125,20 20.0000309,19.1870536 20.0000309,18.2861607 L20.0000309,1.55758929 C20.0053571,0.65625 19.3125,0 18.4004464,0 Z M6.19955357,16.6709821 L3.334375,16.6709821 L3.334375,7.7625 L6.19955357,7.7625 L6.19955357,16.6709821 Z M4.86607143,6.40803571 L4.84553571,6.40803571 C3.92857143,6.40803571 3.33482143,5.72544643 3.33482143,4.87098214 C3.33482143,4.00089286 3.94419643,3.334375 4.88169643,3.334375 C5.81919643,3.334375 6.39285714,3.99598214 6.41339286,4.87098214 C6.41294643,5.72544643 5.81919643,6.40803571 4.86607143,6.40803571 Z M16.6709821,16.6709821 L13.8058036,16.6709821 L13.8058036,11.8 C13.8058036,10.6330357 13.3888393,9.83571429 12.3522321,9.83571429 C11.5602679,9.83571429 11.0915179,10.3714286 10.8830357,10.8933036 C10.8049107,11.0808036 10.7839286,11.3361607 10.7839286,11.596875 L10.7839286,16.6709821 L7.91875,16.6709821 L7.91875,7.7625 L10.7839286,7.7625 L10.7839286,9.00223214 C11.2008929,8.40848214 11.8522321,7.55401786 13.3678571,7.55401786 C15.2486607,7.55401786 16.6714286,8.79375 16.6714286,11.4665179 L16.6709821,16.6709821 Z" transform="translate(2 2)"/>
</svg>
