<svg xmlns="http://www.w3.org/2000/svg" width="24" height="24" viewBox="0 0 24 24">
  <path fill="#4D8011" fill-rule="evenodd" d="M7.06034154,3 C6.68645796,3 6.31815439,3.13392857 6.01123439,3.37946429 L5.96659154,3.40178571 L5.94427011,3.42410714 L3.71212725,5.72321429 L3.73444868,5.74553571 C3.04527439,6.38169643 2.83322082,7.33314714 3.13177011,8.15625 C3.13456011,8.16183071 3.12898011,8.17299143 3.13177011,8.17857143 C3.73723868,9.91127214 5.28578796,13.2566964 8.31034154,16.28125 C11.3460558,19.3169643 14.736123,20.8041293 16.4130201,21.4598214 L16.4353415,21.4598214 C17.3030873,21.75 18.2433773,21.5435271 18.9130201,20.96875 L21.1674844,18.7142857 C21.7590023,18.1227679 21.7590023,17.0959821 21.1674844,16.5044643 L18.2656987,13.6026786 L18.2433773,13.5580357 C17.6518594,12.9665179 16.6027523,12.9665179 16.0112344,13.5580357 L14.582663,14.9866071 C14.0664801,14.7382814 12.8360115,14.1021207 11.6585558,12.9776786 C10.4894708,11.8616071 9.89237296,10.578125 9.67194868,10.0758929 L11.1005201,8.64732143 C11.7004087,8.04743286 11.7115694,7.04854929 11.0781987,6.45982143 L11.1005201,6.4375 L11.0335558,6.37053571 L8.17641296,3.42410714 L8.15409154,3.40178571 L8.10944868,3.37946429 C7.80252939,3.13392857 7.43422582,3 7.06034154,3 Z M7.06034154,4.42857143 C7.11335511,4.42857143 7.16636868,4.45368286 7.21659154,4.49553571 L10.0737344,7.41964286 L10.1406987,7.48660714 C10.1351187,7.48102714 10.1825515,7.55636143 10.0960558,7.64285714 L8.31034154,9.42857143 L7.97552011,9.74107143 L8.13177011,10.1875 C8.13177011,10.1875 8.95208296,12.3833707 10.676413,14.0267857 L10.832663,14.1607143 C12.4928194,15.6757814 14.4487344,16.5044643 14.4487344,16.5044643 L14.895163,16.7053571 L17.0156987,14.5848214 C17.1384665,14.4620536 17.1161451,14.4620536 17.238913,14.5848214 L20.1630201,17.5089286 C20.285788,17.6316964 20.285788,17.5870536 20.1630201,17.7098214 L17.9755201,19.8973214 C17.6462794,20.1791293 17.2975065,20.2377236 16.8817701,20.0982143 C15.2634665,19.4620536 12.1189351,18.080915 9.31480582,15.2767857 C6.48835511,12.450335 5.01235082,9.24442 4.47105582,7.6875 C4.36223868,7.39732143 4.44036368,6.96763429 4.69427011,6.75 L4.73891296,6.70535714 L6.90409154,4.49553571 C6.95431511,4.45368286 7.00732796,4.42857143 7.06034154,4.42857143 Z"/>
</svg>
