<svg xmlns="http://www.w3.org/2000/svg" width="24" height="24" viewBox="0 0 24 24">
  <g fill="#4D8011" fill-rule="evenodd" transform="translate(2 2)">
    <path d="M14.1665179,1.66651786 C16.4650194,1.67338203 18.326618,3.53498055 18.3334821,5.83348214 L18.3334821,14.1665179 C18.326618,16.4650194 16.4650194,18.326618 14.1665179,18.3334821 L5.83348214,18.3334821 C3.53498055,18.326618 1.67338203,16.4650194 1.66651786,14.1665179 L1.66651786,5.83348214 C1.67338203,3.53498055 3.53498055,1.67338203 5.83348214,1.66651786 L14.1665179,1.66651786 M14.1665179,0 L5.83348214,0 C2.625,0 0,2.625 0,5.83348214 L0,14.1665179 C0,17.375 2.625,20 5.83348214,20 L14.1665179,20 C17.375,20 20,17.375 20,14.1665179 L20,5.83348214 C20,2.625 17.375,0 14.1665179,0 Z"/>
    <path d="M15.4165179 5.83348214C14.7261619 5.83348214 14.1665179 5.27383808 14.1665179 4.58348214 14.1665179 3.89312621 14.7261619 3.33348214 15.4165179 3.33348214 16.1068738 3.33348214 16.6665179 3.89312621 16.6665179 4.58348214 16.667231 4.91522087 16.535764 5.23357779 16.3011888 5.46815304 16.0666135 5.70272828 15.7482566 5.83419531 15.4165179 5.83348214L15.4165179 5.83348214zM10 6.66651786C11.3482677 6.66651786 12.5637762 7.47869471 13.0797359 8.72433161 13.5956956 9.96996852 13.310497 11.4037586 12.3571278 12.3571278 11.4037586 13.310497 9.96996852 13.5956956 8.72433161 13.0797359 7.47869471 12.5637762 6.66651786 11.3482677 6.66651786 10 6.66848627 8.15978461 8.15978461 6.66848627 10 6.66651786M10 5C7.23857625 5 5 7.23857625 5 10 5 12.7614237 7.23857625 15 10 15 12.7614237 15 15 12.7614237 15 10 15 8.67391755 14.4732158 7.40214799 13.5355339 6.46446609 12.597852 5.5267842 11.3260824 5 10 5z"/>
  </g>
</svg>
