<svg xmlns="http://www.w3.org/2000/svg" width="24" height="24" viewBox="0 0 24 24">
  <path fill="#ffffff" fill-rule="evenodd" d="M18.8959821,0 L1.10401786,0 C0.494387708,0.000246365013 0.000246365013,0.494387708 0,1.10401786 L0,18.8959821 C0.000246365013,19.5056123 0.494387708,19.9997536 1.10401786,20 L10,20 L10,12.1428571 L7.609375,12.1428571 L7.609375,9.28571429 L10,9.28571429 L10,7.00892857 C10,4.42589286 11.7915179,3.01964286 14.0991071,3.01964286 C15.203125,3.01964286 16.390625,3.10267857 16.6665179,3.13928571 L16.6665179,5.83705357 L14.828125,5.83705357 C13.5727679,5.83705357 13.3334821,6.43080357 13.3334821,7.30580357 L13.3334821,9.28571429 L16.3245536,9.28571429 L15.9339286,12.1428571 L13.3334821,12.1428571 L13.3334821,20 L18.8959821,20 C19.5056123,19.9997536 19.9997536,19.5056123 20,18.8959821 L20,1.10401786 C19.9997536,0.494387708 19.5056123,0.000246365013 18.8959821,0 Z" transform="translate(2 2)"/>
</svg>
