<svg xmlns="http://www.w3.org/2000/svg" width="24" height="24" viewBox="0 0 24 24">
  <path fill="#4D8011" fill-rule="evenodd" d="M12.0892857 12.1383929L19.0178571 0 14.375 0 7.42857143 12.1339286C7.41064338 12.1560499 7.41064338 12.1877001 7.42857143 12.2098214L11.84375 19.96875C11.8616071 20 11.8794643 20 11.9151786 20L16.5178571 20 12.0848214 12.2008929C12.0774682 12.1803568 12.0790883 12.1576753 12.0892857 12.1383929L12.0892857 12.1383929zM7.98660714 8.22321429L5.35714286 3.61607143C5.3392564 3.58438901 5.30393495 3.56672829 5.26785714 3.57142857L.982142857 3.57142857 3.61160714 8.23214286C3.61743595 8.24309374 3.61902529 8.25580842 3.61607143 8.26785714L0 14.2857143 4.32142857 14.2857143C4.35149094 14.289527 4.38050442 14.2732069 4.39285714 14.2455357L7.98660714 8.27678571C7.99106671 8.259207 7.99106671 8.240793 7.98660714 8.22321429L7.98660714 8.22321429z" transform="translate(2 2)"/>
</svg>
