<svg xmlns="http://www.w3.org/2000/svg" width="24" height="24" viewBox="0 0 24 24">
  <path fill="#4D8011" fill-rule="evenodd" d="M19.8302566,3.30565302 C19.8302566,1.55126706 18.5398082,0.139961014 16.9452663,0.139961014 C14.7854223,0.0389863548 12.5826932,0 10.3316211,0 L9.62986671,0 C7.38425267,0 5.17762499,0.0389863548 3.01778094,0.140350877 C1.42713766,0.140350877 0.136689321,1.55945419 0.136689321,3.31384016 C0.039223434,4.70136452 -0.0021021021,6.08927875 0.000237079184,7.47719298 C-0.00366155629,8.86510721 0.0405229791,10.254321 0.132790685,11.6448343 C0.132790685,13.3992203 1.42323903,14.8222222 3.0138823,14.8222222 C5.28288815,14.9274854 7.61037353,14.974269 9.97684527,14.9703704 C12.3472156,14.9781676 14.6682033,14.9287849 16.9398082,14.8222222 C18.5343501,14.8222222 19.8247985,13.3992203 19.8247985,11.6448343 C19.9183657,10.2530214 19.9612507,8.86510721 19.9573521,7.47329435 C19.966189,6.08538012 19.9238238,4.69616634 19.8302566,3.30565302 Z M8.07041252,11.3017544 L8.07041252,3.64093567 L13.723434,7.46939571 L8.07041252,11.3017544 Z" transform="translate(2 5)"/>
</svg>
