<svg xmlns="http://www.w3.org/2000/svg" width="24" height="24" viewBox="0 0 24 24">
  <path fill="#3B3B3A" fill-rule="evenodd" d="M9,2 L9,6 L8,6 L8,4 L3,4 L3,18 L4,18 L4,19 C4,20.644531 5.355469,22 7,22 C8.644531,22 10,20.644531 10,19 L10,18 L21,18 L21,6 L19,6 L19,2 L9,2 Z M10,3 L18,3 L18,7 L10,7 L10,3 Z M4,5 L7,5 L7,17 L4,17 L4,5 Z M8,7 L9,7 L9,8 L19,8 L19,7 L20,7 L20,17 L8,17 L8,7 Z M11,10 L11,11 L12,11 L12,10 L11,10 Z M14,10 L14,11 L15,11 L15,10 L14,10 Z M17,10 L17,11 L18,11 L18,10 L17,10 Z M11,13 L11,14 L12,14 L12,13 L11,13 Z M14,13 L14,14 L15,14 L15,13 L14,13 Z M17,13 L17,14 L18,14 L18,13 L17,13 Z M5,18 L9,18 L9,19.5 C9,20.332032 8.109376,21 7,21 C5.890626,21 5,20.332032 5,19.5 L5,18 Z"/>
</svg>
