<svg width="24" height="24" viewBox="0 0 24 24" fill="none" xmlns="http://www.w3.org/2000/svg">
<path d="M21.0077 5.38277C20.6682 5.04323 20.1179 5.04335 19.7787 5.38289L11.979 13.1838L8.38607 9.59072C8.04653 9.2513 7.4962 9.25118 7.15701 9.59061C6.81747 9.93003 6.81747 10.4804 7.1569 10.8197L11.3645 15.0275C11.5275 15.1905 11.7485 15.2821 11.9791 15.2821C12.2096 15.2821 12.4307 15.1905 12.5938 15.0275L21.008 6.61183C21.3471 6.27252 21.3471 5.72219 21.0077 5.38277Z" fill="white"/>
<path d="M19.1309 10.953C18.6509 10.953 18.2618 11.342 18.2618 11.8221V18.2618H5.73825V5.73825H15.6544C16.1345 5.73825 16.5235 5.34923 16.5235 4.86912C16.5235 4.38914 16.1345 4 15.6544 4H4.86912C4.38914 4 4 4.38902 4 4.86912V19.1309C4 19.611 4.38914 20 4.86912 20H19.1309C19.611 20 20 19.611 20 19.1309V11.8221C20 11.3421 19.611 10.953 19.1309 10.953Z" fill="white"/>
</svg>
