<svg xmlns="http://www.w3.org/2000/svg" width="16" height="16" viewBox="0 0 16 16" fill="none">
    <path fill-rule="evenodd" clip-rule="evenodd" d="M14.672 0.5H1.32801C0.870791 0.500185 0.500185 0.870791 0.5 1.32801V14.672C0.500185 15.1292 0.870791 15.4998 1.32801 15.5H8V9.60714H6.20703V7.46429H8V5.7567C8 3.81942 9.34364 2.76473 11.0743 2.76473C11.9023 2.76473 12.793 2.82701 12.9999 2.85446V4.87779H11.6211C10.6796 4.87779 10.5001 5.3231 10.5001 5.97935V7.46429H12.7434L12.4504 9.60714H10.5001V15.5H14.672C15.1292 15.4998 15.4998 15.1292 15.5 14.672V1.32801C15.4998 0.870791 15.1292 0.500185 14.672 0.5Z" fill="white"/>
</svg>