<svg xmlns="http://www.w3.org/2000/svg" width="16" height="16" viewBox="0 0 16 16" fill="none">
    <path fill-rule="evenodd" clip-rule="evenodd" d="M14.3003 0.5H1.7817C1.09766 0.5 0.5 0.992188 0.5 1.66819V14.2146C0.5 14.8943 1.09766 15.5 1.7817 15.5H14.2967C14.9844 15.5 15.5 14.8903 15.5 14.2146V1.66819C15.504 0.992188 14.9844 0.5 14.3003 0.5ZM5.14964 13.0032H3.00076V6.32187H5.14964V13.0032ZM4.14952 5.30603H4.13412C3.44639 5.30603 3.00108 4.79408 3.00108 4.15324C3.00108 3.50067 3.45811 3.00078 4.16124 3.00078C4.86436 3.00078 5.29461 3.49699 5.31001 4.15324C5.30968 4.79408 4.86436 5.30603 4.14952 5.30603ZM13.0032 13.0032H10.8543V9.35C10.8543 8.47478 10.5416 7.87679 9.76413 7.87679C9.17015 7.87679 8.81859 8.27857 8.66223 8.66998C8.60363 8.8106 8.5879 9.00212 8.5879 9.19766V13.0032H6.43901V6.32188H8.5879V7.25167C8.90062 6.80636 9.38913 6.16551 10.5258 6.16551C11.9364 6.16551 13.0035 7.09531 13.0035 9.09989L13.0032 13.0032Z" fill="white"/>
</svg>