<svg width="20" height="20" viewBox="0 0 20 20" fill="none" xmlns="http://www.w3.org/2000/svg">
<path d="M10 20C15.52 20 20 15.52 20 10C20 4.48 15.52 0 10 0C4.48 0 0 4.48 0 10C0 15.52 4.48 20 10 20ZM14.06 14.7133V14.7142C13.3875 14.7142 11.2633 12.3575 5.29333 13.5808C5.13583 13.6217 4.93 13.6858 4.81333 13.6858C4.05083 13.6858 3.905 12.545 4.725 12.3708C8.0275 11.6417 11.4025 11.7058 14.2808 13.4275C14.9675 13.8658 14.6758 14.7133 14.06 14.7133ZM15.1458 12.0692C15.0517 12.0442 15.0792 12.1267 14.6483 11.9C12.1275 10.4083 8.37083 9.80667 5.0275 10.7142C4.83417 10.7667 4.72917 10.8192 4.5475 10.8192C3.655 10.8192 3.41833 9.47667 4.39083 9.2025C8.32083 8.09833 12.5367 8.7425 15.4717 10.4883C15.7983 10.6817 15.9275 10.9325 15.9275 11.2825C15.9233 11.7175 15.585 12.0692 15.1458 12.0692ZM3.79 5.83167C7.55917 4.72833 13.2633 5.07667 16.81 7.14667C17.7192 7.67083 17.3617 8.99667 16.395 8.99667L16.3942 8.99583C16.1842 8.99583 16.055 8.94333 15.8733 8.83833C13.0042 7.125 7.87 6.71417 4.54833 7.64167C4.4025 7.68167 4.22083 7.74583 4.0275 7.74583C3.495 7.74583 3.08833 7.33 3.08833 6.79417C3.08833 6.24667 3.4275 5.93667 3.79 5.83167Z" fill="white"/>
</svg>
