<svg xmlns="http://www.w3.org/2000/svg" width="18" height="15" viewBox="0 0 18 15" fill="none">
    <path d="M18 2.20626C17.3248 2.49964 16.6104 2.69293 15.8794 2.78001C16.6476 2.33015 17.2254 1.61547 17.5042 0.770006C16.7779 1.19473 15.9846 1.49273 15.1583 1.65126C14.4551 0.914284 13.4803 0.498124 12.4616 0.500006C10.4209 0.500006 8.76937 2.12751 8.76937 4.13376C8.76793 4.41282 8.79991 4.69105 8.86462 4.96251C5.90565 4.82379 3.14208 3.44473 1.25213 1.16376C0.924216 1.71655 0.7508 2.34727 0.75 2.99001C0.75 4.25001 1.40737 5.36376 2.4 6.01626C1.8119 6.0023 1.23585 5.84665 0.72075 5.56251V5.60751C0.72075 7.37001 1.99575 8.83626 3.68325 9.17001C3.36592 9.2546 3.03891 9.29746 2.7105 9.29751C2.47747 9.29791 2.24496 9.2753 2.01638 9.23001C2.4855 10.6738 3.85087 11.7238 5.46825 11.7538C4.15402 12.7666 2.54048 13.314 0.88125 13.31C0.586732 13.3096 0.292487 13.292 0 13.2575C1.68794 14.3353 3.65004 14.9055 5.65275 14.9C12.4537 14.9 16.1693 9.36126 16.1693 4.55751C16.1693 4.40001 16.1651 4.24251 16.1576 4.08876C16.8788 3.57578 17.5027 2.9383 18 2.20626Z" fill="white"/>
</svg>