<svg width="20" height="15" viewBox="0 0 20 15" fill="none" xmlns="http://www.w3.org/2000/svg">
<path fill-rule="evenodd" clip-rule="evenodd" d="M19.8303 3.30565C19.8303 1.55127 18.5398 0.139961 16.9453 0.139961C14.7854 0.0389864 12.5827 0 10.3316 0H9.62987C7.38425 0 5.17763 0.0389864 3.01778 0.140351C1.42714 0.140351 0.136689 1.55945 0.136689 3.31384C0.0392234 4.70136 -0.0021021 6.08928 0.000237079 7.47719C-0.00366156 8.86511 0.040523 10.2543 0.132791 11.6448C0.132791 13.3992 1.42324 14.8222 3.01388 14.8222C5.28289 14.9275 7.61037 14.9743 9.97685 14.9704C12.3472 14.9782 14.6682 14.9288 16.9398 14.8222C18.5343 14.8222 19.8248 13.3992 19.8248 11.6448C19.9184 10.253 19.9613 8.86511 19.9574 7.47329C19.9662 6.08538 19.9238 4.69617 19.8303 3.30565ZM8.07041 11.3018V3.64094L13.7234 7.4694L8.07041 11.3018Z" fill="white"/>
</svg>
