<svg width="192" height="116" viewBox="0 0 192 116" fill="none" xmlns="http://www.w3.org/2000/svg">
<path fill-rule="evenodd" clip-rule="evenodd" d="M191.392 87.0053C191.392 87.0053 189.398 63.5128 189.398 63.097C189.398 62.8869 189.769 52.3841 190.136 42.0414L190.853 36.4788L190.635 28.0369C190.766 24.3612 190.853 21.9332 190.853 21.9332L190.125 1.76713C190.125 1.76713 163.306 0 162.786 0C162.267 0 63.8254 4.67766 63.8254 4.67766L2.70269 3.53425L0.62366 28.8978L1.76708 46.5691L0 87.0053V89.4509L31.0812 91.2672L101.891 88.7615L98.6052 89.1481L109.346 116L116.542 88.243L151.521 87.0053H191.392Z" fill="#4DB163"/>
<path d="M172.745 38.2794L172.879 42.7089C172.475 42.6541 172.048 42.6333 171.601 42.6469C170.169 42.6905 168.912 42.9637 167.831 43.4668L168.054 50.816C168.065 51.1741 168.111 51.4134 168.193 51.5338C168.275 51.6546 168.479 51.7382 168.805 51.7839C169.131 51.8302 169.81 51.871 170.841 51.9067L170.92 54.4907L161.893 54.7649L161.814 52.1809C162.572 52.0909 163.074 52.0141 163.319 51.9505C163.563 51.8875 163.717 51.7931 163.78 51.6679C163.844 51.543 163.87 51.3014 163.859 50.9434L163.605 42.5876C163.599 42.3862 163.561 42.2478 163.492 42.1712C163.422 42.095 163.213 42.0285 162.864 41.972C162.515 41.9153 162.038 41.8626 161.432 41.8139L161.343 38.8945C162.841 38.8042 164.092 38.705 165.096 38.5958C166.1 38.487 166.87 38.3797 167.404 38.2737L167.398 41.3976L167.677 41.725C168.179 40.5677 168.723 39.6894 169.31 39.0891C169.896 38.4893 170.637 38.1755 171.532 38.1483C171.822 38.1395 172.227 38.1835 172.745 38.2794L172.745 38.2794ZM153.088 37.3651C152.558 36.8888 152.282 36.2475 152.257 35.4421C152.233 34.6368 152.476 33.9744 152.986 33.4551C153.496 32.9357 154.155 32.6639 154.96 32.6395C155.765 32.615 156.438 32.8463 156.98 33.3338C157.52 33.8212 157.803 34.4676 157.828 35.2729C157.852 36.0783 157.615 36.7353 157.115 37.2427C156.615 37.7507 155.952 38.017 155.124 38.0421C154.296 38.0673 153.618 37.8418 153.088 37.3651ZM152.002 52.479C152.761 52.3889 153.262 52.3122 153.507 52.2485C153.751 52.1855 153.905 52.0911 153.968 51.9659C154.032 51.8411 154.058 51.5995 154.047 51.2414L153.797 43.0199C153.79 42.7739 153.751 42.6072 153.681 42.5196C153.612 42.4324 153.402 42.36 153.054 42.3035C152.704 42.2469 152.227 42.1943 151.621 42.1455L151.537 39.3603C153.37 39.2825 154.756 39.19 155.693 39.0829C156.63 38.9762 157.353 38.8367 157.864 38.6643L158.242 51.114C158.253 51.4721 158.288 51.7119 158.348 51.8329C158.407 51.9544 158.561 52.0395 158.809 52.0875C159.056 52.1363 159.562 52.1823 160.325 52.2263L160.403 54.8102L152.081 55.063L152.002 52.479L152.002 52.479ZM142.507 52.1462C143.004 51.9411 143.449 51.6305 143.839 51.2156L143.751 48.3297L140.96 49.3212C140.34 49.5417 139.877 49.8077 139.574 50.1192C139.269 50.4307 139.124 50.8103 139.138 51.2576C139.151 51.6829 139.3 51.9975 139.586 52.2012C139.872 52.4057 140.272 52.4996 140.787 52.4839C141.436 52.4642 142.009 52.3518 142.507 52.1462ZM150.568 51.5822C150.571 52.4108 150.408 53.1321 150.079 53.7467C149.751 54.3613 149.307 54.8397 148.746 55.1811C148.185 55.5224 147.58 55.7035 146.932 55.7231C146.149 55.747 145.526 55.536 145.065 55.0914C144.603 54.6466 144.36 53.9765 144.332 53.0816L144.32 52.6788L144.007 52.3189C143.595 53.5185 143.018 54.4147 142.275 55.0082C141.531 55.6017 140.556 55.9169 139.348 55.9535C138.43 55.9814 137.642 55.8148 136.981 55.4544C136.321 55.0939 135.807 54.5781 135.44 53.9059C135.072 53.2343 134.875 52.4399 134.847 51.5223C134.82 50.6498 134.993 49.9056 135.367 49.2898C135.739 48.6739 136.3 48.1477 137.048 47.7103C137.796 47.2736 138.781 46.88 140.002 46.5291L143.665 45.4773L143.633 44.437C143.611 43.6987 143.432 43.1725 143.098 42.8578C142.764 42.5437 142.216 42.3976 141.456 42.4207C140.628 42.4458 140.059 42.693 139.748 43.1611C139.438 43.6297 139.284 44.2784 139.287 45.1065L135.31 44.6563C135.276 43.5379 135.51 42.5793 136.012 41.7799C136.513 40.9812 137.245 40.3654 138.206 39.933C139.167 39.5009 140.307 39.2647 141.627 39.2246C143.685 39.162 145.219 39.5301 146.229 40.3277C147.238 41.1256 147.768 42.3412 147.818 43.974L148.027 50.8533C148.036 51.1669 148.11 51.3939 148.249 51.5351C148.388 51.6768 148.613 51.7423 148.927 51.7328C149.396 51.7185 149.851 51.5704 150.29 51.2883L150.568 51.5823V51.5822ZM129.236 39.8698L133.062 39.7536L133.164 43.1093L129.338 43.2255L129.604 51.9839C129.615 52.342 129.661 52.5814 129.744 52.7017C129.826 52.8225 130.03 52.9061 130.356 52.9518C130.682 52.9981 131.349 53.0393 132.358 53.0757L132.437 55.6597L123.443 55.9329L123.365 53.3489C124.123 53.2587 124.624 53.1821 124.869 53.1185C125.114 53.0554 125.268 52.961 125.331 52.8357C125.394 52.711 125.421 52.4694 125.41 52.1113L125.144 43.3529L123.096 43.4151L123.064 42.3413L125.043 40.0307L125.027 39.5274C124.995 38.4535 125.178 37.4796 125.577 36.6053C125.975 35.7314 126.592 35.0242 127.427 34.4834C128.261 33.9432 129.283 33.6545 130.491 33.6179C131.251 33.5947 131.954 33.6742 132.597 33.8561C133.241 34.0381 133.78 34.2683 134.214 34.5458L132.835 37.8122C132.326 37.2683 131.669 37.008 130.863 37.0324C130.348 37.0481 129.939 37.2117 129.635 37.5233C129.331 37.8348 129.188 38.2706 129.205 38.8295L129.236 39.8698L129.236 39.8698ZM114.514 54.7597C115.206 54.7167 115.754 54.6717 116.155 54.626C116.557 54.5801 116.79 54.5174 116.855 54.4367C116.92 54.3566 116.949 54.2046 116.942 53.9807L116.415 36.6316C116.41 36.4753 116.368 36.376 116.288 36.3333C116.208 36.2911 115.956 36.2594 115.53 36.2386C115.104 36.2181 114.521 36.1969 113.781 36.1743L113.732 34.5635C116.034 34.4264 117.665 34.2986 118.625 34.1797L119.224 53.9114C119.231 54.1353 119.269 54.2853 119.338 54.3613C119.408 54.4379 119.644 54.4863 120.048 54.5078C120.452 54.5291 121.001 54.5407 121.695 54.5417L121.739 55.9846L114.558 56.2028L114.514 54.7598L114.514 54.7597ZM105.658 55.0288C106.351 54.9857 106.898 54.9407 107.3 54.895C107.702 54.849 107.935 54.7864 107.999 54.7057C108.064 54.6256 108.093 54.4735 108.086 54.2496L107.559 36.9006C107.555 36.7444 107.512 36.645 107.433 36.6022C107.353 36.56 107.1 36.5284 106.674 36.5076C106.248 36.4871 105.665 36.466 104.926 36.4433L104.877 34.8324C107.179 34.6954 108.81 34.5676 109.769 34.4487L110.368 54.1803C110.375 54.4042 110.413 54.5543 110.483 54.6303C110.552 54.7069 110.789 54.7553 111.193 54.7768C111.596 54.7981 112.145 54.8096 112.839 54.8106L112.883 56.2536L105.702 56.4717L105.658 55.0288L105.658 55.0288ZM98.0408 37.4585C97.7178 37.155 97.5493 36.7571 97.5344 36.2646C97.5194 35.7729 97.6636 35.3708 97.9679 35.0591C98.2717 34.7477 98.6699 34.5845 99.1622 34.5695C99.6541 34.5545 100.061 34.6933 100.384 34.9858C100.706 35.2783 100.875 35.671 100.89 36.1627C100.905 36.6551 100.761 37.0625 100.457 37.3852C100.153 37.7082 99.7551 37.8766 99.2632 37.8915C98.7709 37.9065 98.3633 37.7626 98.0408 37.4585ZM96.8025 55.2978C97.4951 55.2547 98.0427 55.2097 98.4443 55.1641C98.8459 55.1181 99.0792 55.0554 99.144 54.9747C99.2086 54.8946 99.2377 54.7425 99.2309 54.5186L98.8997 43.6126C98.8948 43.4564 98.8525 43.3569 98.7729 43.3143C98.6928 43.2719 98.4401 43.2402 98.0142 43.2196C97.5881 43.199 97.0053 43.1778 96.2657 43.1553L96.2169 41.5444C98.5188 41.4074 100.15 41.2796 101.109 41.1608L101.513 54.4494C101.52 54.6733 101.558 54.8233 101.627 54.8993C101.697 54.9759 101.933 55.0243 102.337 55.0458C102.741 55.0671 103.289 55.0787 103.984 55.0797L104.028 56.5227L96.8464 56.7408L96.8025 55.2978L96.8025 55.2978ZM94.5461 41.5952L94.595 43.206C94.015 43.2907 93.5528 43.3668 93.208 43.4329C92.8624 43.4994 92.6461 43.5623 92.5587 43.6205C92.4708 43.6794 92.4068 43.7878 92.367 43.9454L88.5983 56.9913L86.4506 57.0565L83.0373 48.6289L82.2348 46.5371L81.5609 48.6737L78.6989 57.292L76.5512 57.3572L71.964 44.5652C71.9141 44.4103 71.8439 44.3059 71.7529 44.2524C71.6615 44.1997 71.4418 44.1501 71.0935 44.1046C70.7447 44.0596 70.2788 44.0118 69.6952 43.9623L69.6463 42.3516L76.5256 42.1426L76.5744 43.7534C75.9718 43.8167 75.4975 43.87 75.1519 43.9141C74.8059 43.9581 74.6058 44.0094 74.552 44.0667C74.4975 44.1245 74.4951 44.2311 74.5448 44.3859L77.0663 52.2026L77.7702 54.3644L78.4422 52.1608L81.5105 42.5957L82.8863 42.5539L86.7046 52.1449L87.6128 54.4013L88.1475 52.1011L90.2132 43.8094C90.2319 43.6969 90.2074 43.6194 90.139 43.5765C90.0705 43.5338 89.8454 43.5013 89.4642 43.4793C89.0825 43.4574 88.556 43.4345 87.8835 43.4098L87.8346 41.7991L94.5461 41.5951V41.5952ZM67.7383 55.9287C67.8079 56.0053 68.0443 56.0537 68.4482 56.0751C68.8517 56.0964 69.4006 56.1081 70.095 56.109L70.1389 57.552L65.4072 57.6957L65.1136 48.0313C65.0782 46.8683 64.7326 45.994 64.0767 45.4093C63.4207 44.8246 62.5332 44.5494 61.4149 44.5833C60.6766 44.6058 59.9213 44.8134 59.1498 45.2064C58.3776 45.5992 57.7549 46.1051 57.2813 46.7241L57.5565 55.7845C57.5634 56.0084 57.6014 56.1585 57.671 56.2345C57.7406 56.3111 57.977 56.3595 58.3808 56.381C58.7845 56.4022 59.3333 56.4139 60.0277 56.4148L60.0715 57.8578L52.8902 58.076L52.8464 56.633C53.5168 56.5905 54.0529 56.5459 54.4546 56.5002C54.8562 56.4543 55.0894 56.3916 55.1542 56.3109C55.219 56.2308 55.248 56.0788 55.2411 55.8549L54.7476 38.5048C54.7429 38.3485 54.7005 38.2492 54.6211 38.2065C54.5411 38.1643 54.2881 38.1326 53.8625 38.1118C53.4362 38.0912 52.8535 38.0702 52.1138 38.0475L52.0649 36.4366C54.3668 36.2996 55.9978 36.1718 56.9572 36.053L57.2569 45.9188C57.8051 44.8053 58.5114 43.9216 59.3765 43.2681C60.2409 42.6152 61.2549 42.2705 62.4184 42.2352C63.2683 42.2094 64.0686 42.3756 64.8184 42.7334C65.5682 43.0916 66.1725 43.6327 66.6311 44.3577C67.0898 45.0827 67.3347 45.9601 67.3659 46.9888L67.6239 55.4788C67.6307 55.7027 67.6688 55.8527 67.7383 55.9287L67.7383 55.9287ZM41.9352 57.7873C40.8755 57.1814 40.0309 56.2949 39.4024 55.1269C38.7733 53.9594 38.4345 52.5699 38.3856 50.9592C38.3421 49.5277 38.5985 48.2044 39.1552 46.9893C39.7114 45.7747 40.5103 44.7985 41.5518 44.0615C42.5928 43.3245 43.7849 42.9355 45.1272 42.8948C46.6928 42.8473 47.9682 43.1781 48.9527 43.8871C49.9368 44.5961 50.5736 45.6516 50.8627 47.0536L48.7619 47.5539C48.2112 45.6451 47.0074 44.7187 45.1506 44.775C44.2557 44.8022 43.4639 45.0839 42.7748 45.6198C42.0857 46.156 41.5588 46.8826 41.1951 47.8006C40.831 48.7185 40.6669 49.7596 40.7022 50.9224C40.7396 52.1531 40.9948 53.1975 41.4691 54.0565C41.9429 54.9154 42.567 55.5572 43.3415 55.9812C44.1154 56.4059 44.9726 56.6036 45.9122 56.575C46.9189 56.5444 47.8305 56.332 48.6472 55.9377C49.4632 55.5435 50.1197 55.0365 50.6163 54.4168L50.9254 54.6425C50.6032 55.8394 49.9941 56.7926 49.0977 57.5026C48.2008 58.2132 47.0146 58.5904 45.5381 58.6352C44.1958 58.676 42.9949 58.3934 41.9352 57.7873ZM31.3801 39.4835C31.0571 39.1799 30.8886 38.782 30.8737 38.2895C30.8587 37.7978 31.0029 37.3957 31.3072 37.0841C31.6111 36.7726 32.0092 36.6094 32.5015 36.5944C32.9934 36.5794 33.4006 36.7182 33.7234 37.0107C34.0457 37.3033 34.2145 37.6959 34.2294 38.1877C34.2443 38.68 34.0999 39.0874 33.7963 39.4101C33.4923 39.7332 33.0944 39.9015 32.6025 39.9165C32.1102 39.9314 31.7026 39.7875 31.3801 39.4835ZM30.1418 57.3228C30.8344 57.2796 31.382 57.2347 31.7836 57.189C32.1852 57.143 32.4185 57.0803 32.4833 56.9996C32.5479 56.9195 32.577 56.7675 32.5702 56.5436L32.2389 45.6375C32.2342 45.4812 32.1918 45.3817 32.1122 45.3392C32.0322 45.2969 31.7794 45.2652 31.3535 45.2446C30.9274 45.224 30.3447 45.2028 29.6051 45.1802L29.5562 43.5694C31.8581 43.4324 33.4889 43.3045 34.4485 43.1856L34.8521 56.4743C34.8589 56.6982 34.897 56.8482 34.9664 56.9243C35.036 57.0008 35.2726 57.0492 35.6763 57.0707C36.0801 57.092 36.6288 57.1036 37.3232 57.1046L37.367 58.5475L30.1856 58.7657L30.1418 57.3228L30.1418 57.3228ZM22.6136 45.2999L23.1502 42.8127L20.6161 42.8897L20.0793 45.3769L22.6136 45.2999ZM28.3059 42.6561L25.8374 42.7311L25.2788 45.2189L27.2449 45.1592L27.3072 47.2127L24.8387 47.2877L24.0135 51.0737L21.3482 51.1546L22.1735 47.3687L19.6394 47.4456L18.8141 51.2316L16.1488 51.3126L16.974 47.5266L14.9862 47.587L14.9238 45.5335L17.4141 45.4578L17.951 42.9707L15.9847 43.0304L15.9223 40.9768L18.3909 40.9019L19.2162 37.1159L21.8814 37.0349L21.0562 40.8209L23.5903 40.7439L24.4155 36.958L27.1026 36.8763L26.2773 40.6623L28.2436 40.6026L28.3059 42.6561Z" fill="white"/>
</svg>
