<svg width="28" height="28" viewBox="0 0 28 28" fill="none" xmlns="http://www.w3.org/2000/svg">
    <path fill-rule="evenodd" clip-rule="evenodd"
          d="M6.56616 0.513672H4.92472V2.15511H6.56616V0.513672ZM23.0754 2.15529H28V7.07988H0V2.15529H4.92465V5.43833H6.56609V2.15529H21.4339V5.43833H23.0754V2.15529ZM28 27.4864H0V8.72135H28V27.4864ZM23.656 11.4574H20.7593V14.3541H23.656V11.4574ZM23.656 16.382H20.7593V19.2787H23.656V16.382ZM23.656 21.3067H20.7593V24.2033H23.656V21.3067ZM18.1842 11.4574H15.2875V14.3541H18.1842V11.4574ZM18.1842 16.382H15.2875V19.2787H18.1842V16.382ZM18.1842 21.3067H15.2875V24.2033H18.1842V21.3067ZM12.7124 11.4574H9.8157V14.3541H12.7124V11.4574ZM12.7124 16.382H9.8157V19.2787H12.7124V16.382ZM12.7124 21.3067H9.8157V24.2033H12.7124V21.3067ZM7.24061 11.4574H4.34396V14.3541H7.24061V11.4574ZM7.24061 16.382H4.34396V19.2787H7.24061V16.382ZM7.24061 24.2033V21.3067H4.34396V24.2033H7.24061ZM21.4335 0.513672H23.075V2.15511H21.4335V0.513672Z"
          fill="white"/>
</svg>
