<svg width="160" height="153" viewBox="0 0 160 153" fill="none" xmlns="http://www.w3.org/2000/svg">
<g clip-path="url(#clip0_3434:20598)">
<path d="M81.1658 124.6C54.447 124.6 32.7031 103.015 32.7031 76.4481C32.7031 49.8815 54.447 28.2962 81.131 28.2962C107.815 28.2962 129.594 49.8815 129.594 76.4481C129.594 103.015 107.885 124.6 81.1658 124.6ZM81.1658 33.8309C57.5085 33.8309 38.2696 52.9256 38.2696 76.4481C38.2696 99.9706 57.5085 119.065 81.131 119.065C104.788 119.065 123.993 99.936 123.993 76.4481C124.027 52.9256 104.788 33.8309 81.1658 33.8309Z" fill="#49AF58"/>
<path d="M52.0812 26.1861L40.1134 5.56929L38.2695 6.64164L50.2374 27.2584C50.8288 26.9125 51.455 26.532 52.0812 26.1861Z" fill="#49AF58"/>
<path d="M66.1018 20.7206L61.1268 2.24847L59.0742 2.76735L64.0492 21.2394C64.7102 21.0665 65.406 20.8935 66.1018 20.7206Z" fill="#49AF58"/>
<path d="M24.5274 60.5704L4.48828 55.2433L3.93164 57.2842L23.9708 62.6113C24.1447 61.9195 24.3187 61.2277 24.5274 60.5704Z" fill="#49AF58"/>
<path d="M30.5468 46.8374L17.3265 39.2618L16.248 41.0952L29.4683 48.6708C29.8162 48.0482 30.1989 47.4255 30.5468 46.8374Z" fill="#49AF58"/>
<path d="M39.9402 35.1108L30.3729 25.598L28.877 27.0855L38.4443 36.5982C38.9313 36.1139 39.4532 35.5951 39.9402 35.1108Z" fill="#49AF58"/>
<path d="M109.799 27.2584L121.906 6.43409L120.062 5.36174L107.955 26.1861C108.581 26.532 109.208 26.9125 109.799 27.2584Z" fill="#49AF58"/>
<path d="M130.569 48.6708L134.813 46.2494L133.735 44.416L129.49 46.8374C129.838 47.4255 130.221 48.0482 130.569 48.6708Z" fill="#49AF58"/>
<path d="M136.064 62.6113L157.669 56.8691L157.113 54.8282L135.508 60.5704C135.717 61.2277 135.891 61.9195 136.064 62.6113Z" fill="#49AF58"/>
<path d="M22.2662 76.4481C22.2662 76.1022 22.2662 75.7563 22.2662 75.3758H-0.138672V77.4859H22.2662C22.301 77.14 22.2662 76.794 22.2662 76.4481Z" fill="#49AF58"/>
<path d="M121.592 36.5982L128.55 29.6799L127.054 28.1924L120.096 35.1108C120.583 35.5951 121.105 36.1139 121.592 36.5982Z" fill="#49AF58"/>
<path d="M80.0183 19.0255C80.3662 19.0255 80.7141 19.0255 81.0968 19.0255V11.7267V0.0345917H78.9746V11.7267V19.0601C79.3225 19.0601 79.6704 19.0255 80.0183 19.0255Z" fill="#49AF58"/>
<path d="M95.9862 21.274L99.3956 8.61339L97.343 8.05992L93.9336 20.7206C94.6294 20.8935 95.3252 21.0665 95.9862 21.274Z" fill="#49AF58"/>
<path d="M120.096 117.785L129.663 127.298L131.159 125.811L121.592 116.298C121.105 116.782 120.583 117.301 120.096 117.785Z" fill="#49AF58"/>
<path d="M107.955 126.71L119.923 147.327L121.767 146.255L109.799 125.638C109.208 125.984 108.581 126.364 107.955 126.71Z" fill="#49AF58"/>
<path d="M129.49 106.059L142.711 113.634L143.789 111.801L130.569 104.225C130.221 104.848 129.838 105.471 129.49 106.059Z" fill="#49AF58"/>
<path d="M135.508 92.3258L155.547 97.6529L156.104 95.612L136.064 90.2849C135.891 90.9767 135.717 91.6685 135.508 92.3258Z" fill="#49AF58"/>
<path d="M93.9336 132.176L98.9086 150.648L100.961 150.094L95.9862 131.622C95.3252 131.83 94.6294 132.003 93.9336 132.176Z" fill="#49AF58"/>
<path d="M137.734 75.3758C137.734 75.7217 137.734 76.0676 137.734 76.4481C137.734 76.8286 137.734 77.14 137.734 77.5205H160.139V75.4104H137.734V75.3758Z" fill="#49AF58"/>
<path d="M64.0501 131.622L60.6406 144.283L62.6932 144.836L66.1027 132.176C65.4069 132.003 64.7111 131.83 64.0501 131.622Z" fill="#49AF58"/>
<path d="M80.018 133.871C79.6701 133.871 79.3221 133.871 78.9395 133.871V141.204V152.896H81.0617V141.204V133.871C80.7138 133.836 80.3659 133.871 80.018 133.871Z" fill="#49AF58"/>
<path d="M38.4444 116.298L31.4863 123.216L32.9823 124.704L39.9403 117.785C39.4533 117.301 38.9314 116.782 38.4444 116.298Z" fill="#49AF58"/>
<path d="M29.4671 104.225L25.2227 106.647L26.3012 108.48L30.5455 106.059C30.1976 105.471 29.815 104.848 29.4671 104.225Z" fill="#49AF58"/>
<path d="M23.9719 90.2849L2.36719 96.0617L2.92383 98.1026L24.5285 92.3604C24.3198 91.6685 24.1458 90.9767 23.9719 90.2849Z" fill="#49AF58"/>
<path d="M50.2378 125.638L38.1309 146.462L39.9747 147.534L52.0817 126.71C51.4555 126.364 50.8293 125.984 50.2378 125.638Z" fill="#49AF58"/>
<path d="M60.2571 77.5205H67.4935V79.8035C66.0323 79.9765 66.0323 80.0111 66.0323 80.7375V86.376H63.4926L62.4837 83.8162C61.9618 85.2345 60.7094 86.4798 58.3089 86.4798C54.6211 86.4798 51.8379 83.92 51.8379 78.4545C51.8379 73.1619 54.8298 70.0832 58.622 70.0832C60.5354 70.0832 61.7531 70.948 62.3097 72.1933L62.3445 72.2279L63.0403 70.1524H65.9627V76.1714H63.0055C62.3097 74.0613 61.1617 73.2657 59.7005 73.2657C57.5435 73.2657 56.0127 75.0645 56.0127 78.4545C56.0127 81.8791 57.2304 83.3665 59.5265 83.3665C61.1617 83.3665 62.3445 82.2596 62.3445 80.9451V80.7721C62.3445 80.0111 62.3445 80.0111 60.2571 79.8381V77.5205Z" fill="#49AF58"/>
<path d="M76.8865 74.1305V77.9702C76.6778 77.9356 76.4342 77.9356 76.2255 77.9356C75.1818 77.9356 74.1381 78.0393 73.3379 78.3161V82.8822C73.3379 83.7124 73.3379 83.7124 75.321 83.8508V86.0647H68.3629V83.8508C69.7545 83.7124 69.7545 83.7124 69.7545 82.8822V77.5897C69.7545 77.14 69.7545 77.14 68.3281 76.8978V74.4418C70.7634 74.3034 71.9463 74.2342 73.1292 74.0267L73.0248 76.4827L73.2335 76.7594C73.8598 75.099 74.7295 73.9921 76.1211 73.9921C76.3995 74.0613 76.643 74.0613 76.8865 74.1305Z" fill="#49AF58"/>
<path d="M91.2195 83.8508V86.0647C88.819 86.1684 87.6014 86.2722 86.4533 86.4106L86.5576 84.1967L86.3489 83.9892C85.7227 85.4074 84.6442 86.4452 82.8003 86.4452C80.6781 86.4452 79.3561 84.9231 79.3561 82.6055V77.5896C79.3561 77.1399 79.3561 77.1399 77.9297 76.8978V74.4418C80.5042 74.3034 81.7914 74.2342 82.9395 74.0267V81.6369C82.9395 82.7438 83.4613 83.4011 84.5398 83.4011C85.166 83.4011 85.7575 83.2627 86.2793 82.9514V77.5896C86.2793 77.1399 86.2793 77.1399 84.8529 76.8978V74.4418C87.4274 74.3034 88.7146 74.2342 89.8627 74.0267V83.1935C89.7931 83.6778 89.7931 83.6778 91.2195 83.8508ZM80.0519 71.5015C80.0519 70.2907 80.9216 69.5989 81.9653 69.5989C82.9743 69.5989 83.8788 70.2907 83.8788 71.5015C83.8788 72.7122 82.9743 73.4386 81.9653 73.4386C80.9564 73.4386 80.0519 72.7122 80.0519 71.5015ZM84.6094 71.5015C84.6094 70.2907 85.5139 69.5989 86.5576 69.5989C87.5666 69.5989 88.4711 70.2907 88.4711 71.5015C88.4711 72.7122 87.6014 73.4386 86.5576 73.4386C85.5139 73.4386 84.6094 72.7122 84.6094 71.5015Z" fill="#49AF58"/>
<path d="M103.954 82.9168C103.954 83.747 103.954 83.747 105.345 83.8854V86.0992H100.336V78.9387C100.336 77.7972 99.7442 77.1399 98.6309 77.1399C98.0742 77.1399 97.448 77.2783 96.9262 77.6588V82.9514C96.9262 83.7816 96.9262 83.7816 98.3526 83.92V86.1338H91.986V83.92C93.3776 83.7816 93.3776 83.7816 93.3776 82.9514V77.6588C93.3776 77.2091 93.3776 77.2091 91.9512 76.967V74.511C94.3865 74.3726 95.5694 74.3034 96.7522 74.0959L96.6478 76.5519L96.8218 76.8286C97.448 75.272 98.5265 74.1304 100.44 74.1304C102.423 74.1304 103.989 75.5487 103.989 77.9356V82.9168H103.954Z" fill="#49AF58"/>
<path d="M107.71 81.118C107.119 76.5519 106.354 73.3348 106.354 70.4637H111.155C111.189 73.3348 110.389 76.5519 109.833 81.118H107.71ZM106.597 84.2659C106.597 83.0898 107.502 82.1558 108.754 82.1558C110.006 82.1558 110.911 83.0898 110.911 84.2659C110.911 85.4766 110.006 86.3414 108.754 86.3414C107.502 86.3414 106.597 85.4766 106.597 84.2659Z" fill="#49AF58"/>
</g>
<defs>
<clipPath id="clip0_3434:20598">
<rect width="160" height="153" fill="white"/>
</clipPath>
</defs>
</svg>
