<svg width="38" height="28" viewBox="0 0 38 28" fill="none" xmlns="http://www.w3.org/2000/svg">
<rect width="38" height="28" fill="#CC0000"/>
<path d="M11.5236 20V8.8H13.5076C14.3076 8.8 14.921 9.06133 15.3476 9.584C15.785 10.096 16.0036 11.0293 16.0036 12.384V12.464C16.0036 13.8187 15.785 14.752 15.3476 15.264C14.921 15.776 14.3076 16.032 13.5076 16.032H12.8036V20H11.5236ZM14.7396 12.672V12.176C14.7396 10.608 14.329 9.824 13.5076 9.824H12.8036V15.024H13.5076C14.329 15.024 14.7396 14.24 14.7396 12.672ZM17.3361 20V8.8H19.5121C20.3228 8.8 20.9468 9.06133 21.3841 9.584C21.8215 10.096 22.0401 11.0293 22.0401 12.384V16.416C22.0401 17.7707 21.8215 18.7093 21.3841 19.232C20.9468 19.744 20.3228 20 19.5121 20H17.3361ZM20.7761 16.704V12.112C20.7761 10.5867 20.3548 9.824 19.5121 9.824H18.6161V18.992H19.5121C20.3548 18.992 20.7761 18.2293 20.7761 16.704ZM25.1161 14.928V20H23.8361V8.8H27.6761V9.824H25.1161V13.904H27.4361V14.928H25.1161Z" fill="white"/>
</svg>
