<svg width="160" height="154" viewBox="0 0 160 154" fill="none" xmlns="http://www.w3.org/2000/svg">
<g clip-path="url(#clip0_3434:20567)">
<path d="M52.1074 26.2633L40.1651 5.58046L38.3281 6.62224L50.2669 27.3224C50.8746 26.9751 51.4858 26.607 52.1074 26.2806" fill="#FF3F1F"/>
<path d="M66.111 20.7592L61.1382 2.21552L59.0859 2.76419L64.0587 21.3148C64.7324 21.1134 65.4165 20.9282 66.111 20.7592Z" fill="#FF3F1F"/>
<path d="M24.6027 60.7601L4.59359 55.3984L4.04492 57.4507L24.0575 62.8124C24.2277 62.1179 24.4048 61.4233 24.6027 60.7601Z" fill="#FF3F1F"/>
<path d="M30.6224 46.9669L17.4439 39.3723L16.3848 41.2128L29.5806 48.8213C29.9279 48.1997 30.2752 47.5885 30.6224 46.9808" fill="#FF3F1F"/>
<path d="M40.0064 35.2052L30.4463 25.6451L28.9531 27.1488L38.5167 36.7088C39.0051 36.1995 39.5052 35.6995 40.0168 35.2087" fill="#FF3F1F"/>
<path d="M109.737 27.3224L121.815 6.40347L119.974 5.34085L107.896 26.2633C108.518 26.6105 109.129 26.9578 109.737 27.305" fill="#FF3F1F"/>
<path d="M130.442 48.8074L134.668 46.3766L133.605 44.5396L129.383 46.9704C129.747 47.5781 130.098 48.1892 130.442 48.8108" fill="#FF3F1F"/>
<path d="M135.946 62.8124L157.524 57.0305L156.976 54.9782L135.4 60.7601C135.595 61.4361 135.777 62.1202 135.946 62.8124Z" fill="#FF3F1F"/>
<path d="M22.3566 76.7028C22.3566 76.3555 22.3566 76.0082 22.3566 75.6401H0V77.7654H22.3809C22.3809 77.4181 22.3809 77.0708 22.3809 76.7028" fill="#FF3F1F"/>
<path d="M121.497 36.7088L128.442 29.7636L126.932 28.26L119.986 35.2052C120.496 35.6937 120.996 36.1937 121.486 36.7054" fill="#FF3F1F"/>
<path d="M80.0021 19.068C80.3493 19.068 80.6966 19.068 81.0647 19.068V0H78.9395V19.0993C79.2867 19.0993 79.634 19.0993 80.0021 19.0993" fill="#FF3F1F"/>
<path d="M95.9429 21.3148L99.3495 8.60857L97.2972 8.05643L93.8906 20.7592C94.5851 20.9294 95.2797 21.1065 95.9429 21.3044" fill="#FF3F1F"/>
<path d="M119.997 118.2L129.557 127.764L131.05 126.257L121.486 116.697C120.996 117.206 120.496 117.706 119.986 118.197" fill="#FF3F1F"/>
<path d="M107.896 127.142L119.839 147.825L121.676 146.766L109.737 126.083C109.129 126.448 108.518 126.798 107.896 127.142Z" fill="#FF3F1F"/>
<path d="M129.383 106.439L142.561 114.033L143.62 112.193L130.442 104.584C130.095 105.206 129.747 105.817 129.383 106.425" fill="#FF3F1F"/>
<path d="M135.4 92.6455L155.41 98.0072L155.958 95.9549L135.946 90.5932C135.775 91.2877 135.598 91.9822 135.4 92.6455Z" fill="#FF3F1F"/>
<path d="M93.8906 132.646L98.8634 151.19L100.916 150.641L95.9429 132.091C95.2484 132.285 94.5782 132.466 93.8906 132.636" fill="#FF3F1F"/>
<path d="M137.623 75.6401C137.623 75.9874 137.623 76.3347 137.623 76.7028C137.623 77.0708 137.623 77.3973 137.623 77.7654H160.004V75.6401H137.623Z" fill="#FF3F1F"/>
<path d="M64.059 132.091L60.6523 144.797L62.7046 145.349L66.1113 132.646C65.4167 132.475 64.7326 132.293 64.059 132.101" fill="#FF3F1F"/>
<path d="M80.0021 134.338C79.6548 134.338 79.3075 134.338 78.9395 134.338V153.419H81.0647V134.324C80.7174 134.324 80.3702 134.324 80.0021 134.324" fill="#FF3F1F"/>
<path d="M38.5077 116.697L31.5625 123.642L33.0731 125.146L40.0183 118.2C39.509 117.71 39.0089 117.209 38.5181 116.7" fill="#FF3F1F"/>
<path d="M29.5621 104.598L25.3359 107.029L26.3986 108.866L30.6212 106.435C30.274 105.827 29.9059 105.216 29.5795 104.595" fill="#FF3F1F"/>
<path d="M24.0572 90.5932L2.47852 96.375L3.02719 98.4274L24.6024 92.6455C24.408 91.9672 24.2262 91.2831 24.0572 90.5932Z" fill="#FF3F1F"/>
<path d="M50.2652 126.083L38.1875 147.002L40.028 148.065L52.1057 127.142C51.4841 126.795 50.8729 126.448 50.2652 126.083Z" fill="#FF3F1F"/>
<path d="M81.1398 125.055C54.4772 125.055 32.7734 103.365 32.7734 76.7028C32.7734 50.0401 54.4772 28.3538 81.1398 28.3538C107.802 28.3538 129.489 50.0436 129.489 76.7028C129.489 103.362 107.799 125.055 81.1398 125.055ZM81.1398 33.9099C72.6752 33.9092 64.4005 36.4187 57.3621 41.121C50.3238 45.8232 44.8379 52.507 41.5984 60.3272C38.3588 68.1473 37.511 76.7525 39.1622 85.0545C40.8134 93.3565 44.8894 100.982 50.8748 106.968C56.8601 112.953 64.486 117.029 72.788 118.68C81.09 120.332 89.6952 119.484 97.5154 116.244C105.336 113.005 112.019 107.519 116.722 100.48C121.424 93.4421 123.933 85.1674 123.933 76.7028C123.919 65.3576 119.406 54.4811 111.384 46.4589C103.361 38.4366 92.4849 33.9237 81.1398 33.9099Z" fill="#FF3F1F"/>
<path d="M75.0149 83.5333C75.0149 85.2384 74.2128 87.0372 71.9764 87.0372C70.2992 87.0372 69.4484 86.1864 68.8163 83.9466C68.2573 81.9047 68.4274 79.7795 66.2397 79.7795H65.2187V83.4014C65.2187 84.1792 65.2187 84.1793 67.2849 84.3494V86.6135H59.2598V84.3494C61.326 84.1793 61.326 84.1792 61.326 83.4014V74.1504C61.326 73.3725 61.326 73.3725 59.2598 73.2024V70.9417H68.4517C72.3653 70.9417 74.4072 72.2544 74.4072 75.1956C74.4072 78.064 72.5112 79.2551 69.4241 79.401C70.8339 79.8142 71.8792 80.9567 72.5112 82.3422C73.0703 83.509 73.4592 83.7313 74.0669 83.7313C74.3696 83.747 74.669 83.6615 74.9177 83.4882L75.0149 83.5333ZM65.2187 73.6885V77.2236H67.9169C69.3268 77.2236 70.2748 76.6889 70.2748 75.4491C70.2748 74.2094 69.5213 73.6746 68.0385 73.6746L65.2187 73.6885Z" fill="#FF3F1F"/>
<path d="M75.959 80.7866C75.959 77.1889 78.0981 74.5637 81.5776 74.5637C85.3697 74.5637 87.363 76.8972 87.363 80.7866C87.363 84.3599 85.2239 87.0129 81.7443 87.0129C77.9523 87.0129 75.959 84.6759 75.959 80.7866ZM83.6195 80.7866C83.6195 78.5016 83.0848 77.4077 81.6714 77.4077C80.3588 77.4077 79.7024 78.5259 79.7024 80.7866C79.7024 83.0472 80.2372 84.1689 81.6714 84.1689C82.9875 84.1689 83.6195 83.0472 83.6195 80.7866Z" fill="#FF3F1F"/>
<path d="M89.985 83.4361V77.6994H88.1133V75.22L88.7453 75.0741C90.1343 74.7581 90.4816 74.0775 90.8601 71.987H93.5444V74.9526H96.5621V77.6994H93.5444V82.4326C93.5444 83.4049 94.0549 83.648 94.8085 83.648C95.4836 83.6508 96.1474 83.4747 96.7323 83.1375L96.8504 83.2347C96.7566 85.5926 95.5134 86.8358 93.1555 86.8358C91.1518 86.8428 89.985 85.5301 89.985 83.4361Z" fill="#FF3F1F"/>
<path d="M99.3925 81.6373C98.8091 77.0674 98.0312 73.8101 98.0312 70.9417H102.82C102.844 73.8101 102.066 77.0674 101.507 81.6373H99.3925ZM98.2743 84.7974C98.2967 84.2418 98.5331 83.7164 98.9341 83.3312C99.3351 82.9459 99.8696 82.7308 100.426 82.7308C100.982 82.7308 101.516 82.9459 101.917 83.3312C102.318 83.7164 102.555 84.2418 102.577 84.7974C102.555 85.353 102.318 85.8784 101.917 86.2636C101.516 86.6488 100.982 86.8639 100.426 86.8639C99.8696 86.8639 99.3351 86.6488 98.9341 86.2636C98.5331 85.8784 98.2967 85.353 98.2743 84.7974Z" fill="#FF3F1F"/>
</g>
<defs>
<clipPath id="clip0_3434:20567">
<rect width="160" height="153.409" fill="white"/>
</clipPath>
</defs>
</svg>
