<svg width="48" height="49" viewBox="0 0 48 49" fill="none" xmlns="http://www.w3.org/2000/svg">
<mask id="path-1-inside-1" fill="white">
<path fill-rule="evenodd" clip-rule="evenodd" d="M27.5451 22.5926C27.5451 25.6039 25.1039 28.0451 22.0926 28.0451C19.0812 28.0451 16.64 25.6039 16.64 22.5926C16.64 19.5812 19.0812 17.14 22.0926 17.14C25.1039 17.14 27.5451 19.5812 27.5451 22.5926ZM26.7816 29.189C25.4587 30.1311 23.8403 30.6851 22.0926 30.6851C17.6232 30.6851 14 27.062 14 22.5926C14 18.1232 17.6232 14.5 22.0926 14.5C26.562 14.5 30.1851 18.1232 30.1851 22.5926C30.1851 24.3403 29.6311 25.9587 28.689 27.2816L34 32.5926L32.0926 34.5L26.7816 29.189Z"/>
</mask>
<path d="M26.7816 29.189L28.6483 27.3223L27.0693 25.7432L25.2502 27.0386L26.7816 29.189ZM28.689 27.2816L26.5386 25.7502L25.2432 27.5693L26.8223 29.1483L28.689 27.2816ZM34 32.5926L35.8668 34.4593L37.7335 32.5926L35.8668 30.7258L34 32.5926ZM32.0926 34.5L30.2258 36.3668L32.0926 38.2335L33.9593 36.3668L32.0926 34.5ZM22.0926 30.6851C26.562 30.6851 30.1851 27.062 30.1851 22.5926H24.9051C24.9051 24.1459 23.6459 25.4051 22.0926 25.4051V30.6851ZM14 22.5926C14 27.062 17.6232 30.6851 22.0926 30.6851V25.4051C20.5392 25.4051 19.28 24.1459 19.28 22.5926H14ZM22.0926 14.5C17.6232 14.5 14 18.1232 14 22.5926H19.28C19.28 21.0392 20.5392 19.78 22.0926 19.78V14.5ZM30.1851 22.5926C30.1851 18.1232 26.562 14.5 22.0926 14.5V19.78C23.6459 19.78 24.9051 21.0392 24.9051 22.5926H30.1851ZM22.0926 33.3251C24.4071 33.3251 26.5577 32.5894 28.313 31.3395L25.2502 27.0386C24.3597 27.6727 23.2735 28.0451 22.0926 28.0451V33.3251ZM11.36 22.5926C11.36 28.52 16.1651 33.3251 22.0926 33.3251V28.0451C19.0812 28.0451 16.64 25.6039 16.64 22.5926H11.36ZM22.0926 11.86C16.1651 11.86 11.36 16.6651 11.36 22.5926H16.64C16.64 19.5812 19.0812 17.14 22.0926 17.14V11.86ZM32.8251 22.5926C32.8251 16.6651 28.02 11.86 22.0926 11.86V17.14C25.1039 17.14 27.5451 19.5812 27.5451 22.5926H32.8251ZM30.8395 28.813C32.0894 27.0577 32.8251 24.9071 32.8251 22.5926H27.5451C27.5451 23.7735 27.1727 24.8597 26.5386 25.7502L30.8395 28.813ZM26.8223 29.1483L32.1332 34.4593L35.8668 30.7258L30.5558 25.4148L26.8223 29.1483ZM32.1332 30.7258L30.2258 32.6332L33.9593 36.3668L35.8668 34.4593L32.1332 30.7258ZM33.9593 32.6332L28.6483 27.3223L24.9148 31.0558L30.2258 36.3668L33.9593 32.6332Z" fill="black" mask="url(#path-1-inside-1)"/>
</svg>
