<svg width="160" height="154" viewBox="0 0 160 154" fill="none" xmlns="http://www.w3.org/2000/svg">
<g clip-path="url(#clip0_3434:20535)">
<path d="M60.6064 76.7377H68.3434V79.1904C66.7807 79.3748 66.7807 79.3992 66.7807 80.182V86.2634H64.0721L62.9852 83.4975C62.4365 85.0353 61.0822 86.3678 58.5055 86.3678C54.5745 86.3678 51.6055 83.5845 51.6055 77.7049C51.6055 72.0166 54.8072 68.7011 58.8701 68.7011C60.9259 68.7011 62.2281 69.6404 62.8011 70.9729L62.8289 70.9972L63.5582 68.7811H66.6835V75.2521H63.5061C62.7768 72.9803 61.551 72.121 59.9883 72.121C57.6721 72.121 56.0573 74.0519 56.0573 77.7049C56.0573 81.4101 57.3596 83 59.8077 83C61.544 83 62.8289 81.8276 62.8289 80.3907V80.2098C62.8289 79.3992 62.8289 79.3748 60.6134 79.1904L60.6064 76.7377Z" fill="#FFD332"/>
<path d="M80.7147 80.5995H73.2938C73.5542 82.339 74.7523 83 76.7664 83C78.5895 83 80.0202 82.3042 80.489 81.9041L80.621 81.9841C80.6731 83.9394 79.5792 86.4199 75.7593 86.4199C72.1652 86.4199 69.6406 84.1238 69.6406 80.2098C69.6406 76.6612 71.6964 73.0847 75.5753 73.0847C79.4542 73.0847 81.2356 76.6716 80.7147 80.5995ZM73.4049 78.2511H77.3637C77.3116 76.7377 76.5823 76.0871 75.6274 76.0871C74.5717 76.0871 73.7522 76.8177 73.4049 78.2511Z" fill="#FFD332"/>
<path d="M81.704 83.6019C83.1903 83.4453 83.1903 83.4453 83.1903 82.5582V72.5628C83.1903 72.041 83.1903 72.041 81.6797 71.8079V69.1464C84.4126 69.0142 85.7947 68.9098 87.0171 68.7289V82.5582C87.0171 83.4453 87.0171 83.4453 88.5034 83.6019V85.9746H81.704V83.6019Z" fill="#FFD332"/>
<path d="M102.174 79.3992C102.174 83.5741 99.5698 86.4199 96.8612 86.4199C96.2287 86.4385 95.5998 86.3172 95.0194 86.0647C94.439 85.8121 93.9213 85.4345 93.5032 84.9587L92.9024 86.2634H89.909V72.5628C89.909 72.041 89.909 72.041 88.3984 71.8079V69.1464C91.1592 69.0142 92.5378 68.9098 93.7358 68.7289V75.8784C94.3609 74.3372 95.3506 73.0325 97.5904 73.0325C100.299 73.0325 102.174 75.5374 102.174 79.3992ZM98.1912 79.7123C98.1912 77.6005 97.33 76.5568 95.7951 76.5568C95.0673 76.5659 94.3555 76.7727 93.7358 77.1552V82.2172C94.2504 82.7221 94.9429 83.0034 95.6631 83C97.3057 83 98.1912 81.7997 98.1912 79.7123Z" fill="#FFD332"/>
<path d="M104.935 80.6273C104.31 75.7218 103.477 72.2254 103.477 69.1464H108.609C108.633 72.2254 107.8 75.7218 107.203 80.6273H104.935ZM103.737 84.0194C103.737 83.4067 103.98 82.8191 104.412 82.3859C104.845 81.9527 105.431 81.7093 106.043 81.7093C106.654 81.7093 107.241 81.9527 107.673 82.3859C108.106 82.8191 108.349 83.4067 108.349 84.0194C108.349 84.6321 108.106 85.2196 107.673 85.6529C107.241 86.0861 106.654 86.3295 106.043 86.3295C105.431 86.3295 104.845 86.0861 104.412 85.6529C103.98 85.2196 103.737 84.6321 103.737 84.0194Z" fill="#FFD332"/>
<path d="M52.1074 26.3122L40.1651 5.59085L38.3281 6.63457L50.2669 27.3733C50.8746 27.0254 51.4858 26.6566 52.1074 26.3295" fill="#FFD332"/>
<path d="M66.111 20.7978L61.1382 2.21964L59.0859 2.76933L64.0587 21.3545C64.7324 21.1527 65.4165 20.9672 66.111 20.7978Z" fill="#FFD332"/>
<path d="M24.6027 60.8732L4.59359 55.5015L4.04492 57.5576L24.0575 62.9293C24.2277 62.2335 24.4048 61.5377 24.6027 60.8732Z" fill="#FFD332"/>
<path d="M30.6224 47.0543L17.4439 39.4456L16.3848 41.2895L29.5806 48.9122C29.9279 48.2894 30.2752 47.6771 30.6224 47.0682" fill="#FFD332"/>
<path d="M40.0064 35.2707L30.4463 25.6929L28.9531 27.1993L38.5167 36.7772C39.0051 36.2669 39.5052 35.7659 40.0168 35.2742" fill="#FFD332"/>
<path d="M109.737 27.3733L121.815 6.41539L119.974 5.3508L107.896 26.3122C108.518 26.6601 109.129 27.008 109.737 27.3559" fill="#FFD332"/>
<path d="M130.442 48.8982L134.668 46.4629L133.605 44.6225L129.383 47.0578C129.747 47.6667 130.098 48.279 130.442 48.9017" fill="#FFD332"/>
<path d="M135.946 62.9293L157.524 57.1367L156.976 55.0805L135.4 60.8732C135.595 61.5504 135.777 62.2358 135.946 62.9293Z" fill="#FFD332"/>
<path d="M22.3566 76.8456C22.3566 76.4976 22.3566 76.1497 22.3566 75.781H0V77.9101H22.3809C22.3809 77.5622 22.3809 77.2143 22.3809 76.8456" fill="#FFD332"/>
<path d="M121.495 36.7772L128.44 29.8191L126.93 28.3126L119.984 35.2707C120.494 35.7601 120.994 36.2611 121.485 36.7737" fill="#FFD332"/>
<path d="M80.0021 19.1035C80.3493 19.1035 80.6966 19.1035 81.0647 19.1035V0H78.9395V19.1348C79.2867 19.1348 79.634 19.1348 80.0021 19.1348" fill="#FFD332"/>
<path d="M95.9449 21.3545L99.3515 8.6246L97.2992 8.07143L93.8926 20.7978C94.5871 20.9683 95.2816 21.1457 95.9449 21.3441" fill="#FFD332"/>
<path d="M119.995 118.42L129.555 128.002L131.048 126.492L121.485 116.914C120.994 117.424 120.494 117.925 119.984 118.417" fill="#FFD332"/>
<path d="M107.896 127.379L119.839 148.1L121.676 147.039L109.737 126.318C109.129 126.683 108.518 127.035 107.896 127.379Z" fill="#FFD332"/>
<path d="M129.383 106.637L142.561 114.245L143.62 112.402L130.442 104.779C130.095 105.402 129.747 106.014 129.383 106.623" fill="#FFD332"/>
<path d="M135.4 92.8179L155.41 98.1896L155.958 96.1335L135.946 90.7618C135.775 91.4576 135.598 92.1534 135.4 92.8179Z" fill="#FFD332"/>
<path d="M93.8926 132.893L98.8653 151.471L100.918 150.922L95.9449 132.337C95.2504 132.531 94.5802 132.712 93.8926 132.883" fill="#FFD332"/>
<path d="M137.623 75.781C137.623 76.1289 137.623 76.4768 137.623 76.8456C137.623 77.2143 137.623 77.5414 137.623 77.9101H160.004V75.781H137.623Z" fill="#FFD332"/>
<path d="M64.059 132.337L60.6523 145.067L62.7046 145.62L66.1113 132.893C65.4167 132.722 64.7326 132.54 64.059 132.347" fill="#FFD332"/>
<path d="M80.0021 134.588C79.6548 134.588 79.3075 134.588 78.9395 134.588V153.705H81.0647V134.574C80.7174 134.574 80.3702 134.574 80.0021 134.574" fill="#FFD332"/>
<path d="M38.5077 116.914L31.5625 123.872L33.0731 125.378L40.0183 118.42C39.509 117.929 39.0089 117.428 38.5181 116.917" fill="#FFD332"/>
<path d="M29.5621 104.793L25.3359 107.228L26.3986 109.069L30.6212 106.633C30.274 106.024 29.9059 105.412 29.5795 104.789" fill="#FFD332"/>
<path d="M24.0572 90.7618L2.47852 96.5544L3.02719 98.6106L24.6024 92.8179C24.408 92.1384 24.2262 91.453 24.0572 90.7618Z" fill="#FFD332"/>
<path d="M50.2652 126.318L38.1875 147.276L40.028 148.34L52.1057 127.379C51.4841 127.031 50.8729 126.683 50.2652 126.318Z" fill="#FFD332"/>
<path d="M81.1398 125.288C54.4772 125.288 32.7734 103.558 32.7734 76.8456C32.7734 50.1333 54.4772 28.4066 81.1398 28.4066C107.802 28.4066 129.489 50.1368 129.489 76.8456C129.489 103.554 107.799 125.288 81.1398 125.288ZM81.1398 33.9731C72.6752 33.9724 64.4005 36.4865 57.3621 41.1975C50.3238 45.9085 44.8379 52.6048 41.5984 60.4395C38.3588 68.2742 37.511 76.8954 39.1622 85.2129C40.8134 93.5303 44.8894 101.17 50.8748 107.167C56.8601 113.163 64.486 117.247 72.788 118.901C81.09 120.556 89.6952 119.706 97.5154 116.461C105.336 113.215 112.019 107.719 116.722 100.667C121.424 93.616 123.933 85.3259 123.933 76.8456C123.919 65.4793 119.406 54.5825 111.384 46.5454C103.361 38.5082 92.4849 33.9869 81.1398 33.9731Z" fill="#FFD332"/>
</g>
<defs>
<clipPath id="clip0_3434:20535">
<rect width="160" height="153.695" fill="white"/>
</clipPath>
</defs>
</svg>
