<svg width="119" height="19" viewBox="0 0 119 19" fill="none" xmlns="http://www.w3.org/2000/svg">
<path d="M118.878 5.44534L118.859 8.83833C118.56 8.78548 118.242 8.75618 117.905 8.75646C116.837 8.75525 115.892 8.92776 115.071 9.28608L115.038 14.9168C115.035 15.1889 115.063 15.3775 115.125 15.4704C115.181 15.5631 115.332 15.6349 115.572 15.6796C115.813 15.7244 116.319 15.7724 117.09 15.8297L117.08 17.8075L110.333 17.7823L110.343 15.8046C110.912 15.758 111.285 15.7106 111.476 15.6689C111.66 15.627 111.775 15.5584 111.825 15.4634C111.876 15.3684 111.9 15.1878 111.904 14.9096L111.939 8.51074C111.939 8.35949 111.913 8.2497 111.868 8.18763C111.817 8.12535 111.666 8.07163 111.408 8.02023C111.15 7.96883 110.791 7.91391 110.345 7.86193L110.358 5.62417C111.481 5.59704 112.415 5.5512 113.167 5.4929C113.919 5.4346 114.499 5.37634 114.897 5.30562L114.808 7.69798L115.005 7.95294C115.414 7.07804 115.844 6.42168 116.297 5.97782C116.749 5.53395 117.312 5.31174 117.979 5.317C118.191 5.31841 118.491 5.35918 118.878 5.44534ZM104.226 4.23534C103.844 3.85896 103.654 3.36232 103.658 2.74543C103.662 2.12854 103.863 1.62745 104.254 1.24193C104.651 0.856625 105.148 0.668383 105.75 0.67137C106.352 0.674357 106.847 0.867164 107.241 1.25604C107.629 1.64471 107.824 2.14759 107.82 2.76448C107.816 3.38137 107.621 3.87663 107.236 4.25027C106.851 4.62391 106.349 4.81194 105.729 4.80834C105.109 4.79869 104.608 4.61171 104.226 4.23534ZM103.006 15.7648C103.575 15.7182 103.954 15.6711 104.133 15.6289C104.317 15.587 104.432 15.5184 104.482 15.4234C104.533 15.3284 104.557 15.1478 104.561 14.8696L104.593 8.57347C104.594 8.38596 104.569 8.25805 104.518 8.18973C104.467 8.1214 104.316 8.06165 104.058 8.01024C103.8 7.95884 103.442 7.90393 102.995 7.85194L103.005 5.7169C104.375 5.7045 105.415 5.66843 106.114 5.61431C106.818 5.55435 107.359 5.47048 107.747 5.35101L107.695 14.8829C107.692 15.155 107.715 15.3433 107.753 15.4354C107.797 15.5277 107.906 15.5981 108.088 15.6407C108.269 15.6834 108.646 15.7329 109.216 15.7892L109.206 17.767L102.984 17.7422L103.006 15.7648ZM95.9279 15.2623C96.3049 15.1182 96.6433 14.8942 96.9494 14.5843L96.9619 12.3768L94.8538 13.065C94.3821 13.2178 94.0329 13.4112 93.7946 13.6388C93.5564 13.8663 93.4399 14.1586 93.4398 14.4974C93.4401 14.8241 93.5437 15.0697 93.7506 15.2282C93.9574 15.3927 94.2556 15.4758 94.6392 15.4771C95.1175 15.4758 95.5509 15.4063 95.9279 15.2623ZM101.963 15.0446C101.941 15.679 101.804 16.2247 101.539 16.6873C101.275 17.1498 100.932 17.5007 100.504 17.7519C100.077 17.997 99.6177 18.12 99.1336 18.1212C98.5492 18.1188 98.0891 17.9393 97.759 17.589C97.4289 17.2386 97.2641 16.7187 97.2645 16.0351L97.2635 15.7265L97.0374 15.4403C96.6986 16.3479 96.2442 17.0156 95.6738 17.4553C95.1036 17.889 94.364 18.105 93.4608 18.1035C92.776 18.1037 92.191 17.95 91.7052 17.6608C91.2197 17.3655 90.8502 16.9593 90.597 16.4362C90.3379 15.9129 90.2119 15.2975 90.2188 14.5961C90.2245 13.9308 90.3744 13.3614 90.668 12.8999C90.9617 12.4383 91.3945 12.0482 91.9664 11.7356C92.5382 11.423 93.2799 11.1465 94.2034 10.9067L96.9676 10.1992L96.972 9.40085C96.974 8.83834 96.8585 8.42899 96.6134 8.17841C96.3743 7.92804 95.9653 7.8048 95.3987 7.80306C94.7789 7.79945 94.3478 7.97184 94.1051 8.32628C93.8626 8.67468 93.7273 9.16597 93.7109 9.80057L90.7512 9.35186C90.7578 8.49309 90.9544 7.76803 91.3532 7.17105C91.752 6.57407 92.311 6.12185 93.042 5.8148C93.7731 5.50776 94.6285 5.35631 95.6143 5.36066C97.1549 5.36635 98.2888 5.69048 99.0222 6.3272C99.7555 6.96392 100.118 7.90823 100.109 9.16013L100.078 14.428C100.075 14.6698 100.128 14.8411 100.225 14.9534C100.327 15.0658 100.49 15.12 100.727 15.1222C101.075 15.1223 101.421 15.0195 101.759 14.8197L101.963 15.0446ZM86.3516 5.5255L89.2086 5.53505L89.1951 8.10553L86.3381 8.09597L86.2975 14.8032C86.2938 15.0753 86.3226 15.2638 86.3843 15.3567C86.4401 15.4494 86.5911 15.5213 86.8374 15.5662C87.0779 15.611 87.578 15.6588 88.3317 15.7155L88.3213 17.6932L81.5922 17.6627L81.6026 15.6849C82.171 15.6383 82.5446 15.591 82.7291 15.549C82.9136 15.5071 83.0282 15.4386 83.0787 15.3435C83.1293 15.2485 83.1533 15.0679 83.1572 14.7898L83.1919 8.08232L81.6631 8.07704L81.6683 7.25452L83.2105 5.53622L83.2123 5.14912C83.2175 4.32661 83.3792 3.58822 83.7035 2.92813C84.0218 2.26784 84.5065 1.74647 85.1403 1.35131C85.7797 0.962407 86.5482 0.76556 87.4514 0.76702C88.0181 0.768765 88.5407 0.847606 89.0194 1.00354C89.4921 1.15927 89.8928 1.34876 90.2097 1.57161L89.09 4.03671C88.7273 3.60658 88.239 3.38981 87.6369 3.38682C87.2532 3.38545 86.9421 3.50157 86.7098 3.72934C86.4716 3.9569 86.3536 4.29151 86.3505 4.71486L86.3516 5.5255ZM74.961 16.5285C75.4809 16.5166 75.889 16.4946 76.191 16.4689C76.493 16.4432 76.6657 16.4009 76.7209 16.3423C76.7702 16.2835 76.7978 16.1696 76.798 15.9942L76.8628 2.71219C76.8612 2.59115 76.8342 2.51761 76.7766 2.47929C76.7186 2.44701 76.5308 2.41622 76.2131 2.38692C75.8953 2.35762 75.4594 2.33022 74.9116 2.29284L74.9195 1.05906C76.639 1.01658 77.8631 0.95672 78.5798 0.891138L78.4981 15.9994C78.4981 16.1688 78.5235 16.2846 78.5745 16.3469C78.6254 16.4092 78.801 16.4516 79.1011 16.4803C79.4012 16.509 79.8137 16.5295 80.3326 16.5477L80.3291 17.6546L74.9634 17.6357L74.961 16.5285ZM68.338 16.5017C68.858 16.4897 69.2661 16.4678 69.5681 16.4421C69.87 16.4164 70.0427 16.374 70.0979 16.3155C70.1472 16.2567 70.1748 16.1428 70.1751 15.9673L70.2458 2.68558C70.2441 2.56454 70.2172 2.491 70.1595 2.45268C70.1016 2.4204 69.9138 2.38961 69.596 2.36031C69.2782 2.33101 68.8423 2.30361 68.2946 2.26623L68.3025 1.03245C70.0219 0.989974 71.2461 0.930109 71.9627 0.864527L71.8811 15.9728C71.881 16.1422 71.9065 16.258 71.9515 16.3201C72.0025 16.3823 72.1781 16.4248 72.4782 16.4535C72.7782 16.4822 73.1908 16.5027 73.7097 16.5209L73.7062 17.6278L68.3405 17.6088L68.338 16.5017ZM63.1258 2.85909C62.8921 2.62102 62.7791 2.30854 62.7805 1.93353C62.7818 1.55852 62.8988 1.25411 63.1372 1.02051C63.3696 0.792743 63.6747 0.676421 64.0407 0.67717C64.4067 0.67792 64.7095 0.797436 64.9434 1.02947C65.1773 1.26151 65.2906 1.56794 65.2892 1.94295C65.2878 2.31796 65.1707 2.62841 64.932 2.86805C64.6934 3.1077 64.3941 3.22423 64.0281 3.22348C63.6562 3.22252 63.3593 3.10321 63.1258 2.85909ZM61.721 16.4751C62.2409 16.4631 62.649 16.4412 62.951 16.4155C63.253 16.3898 63.4257 16.3474 63.4809 16.2889C63.5302 16.2301 63.5578 16.1161 63.5581 15.9407L63.6033 7.58825C63.6017 7.4672 63.5747 7.39367 63.517 7.35535C63.4591 7.32307 63.2713 7.29228 62.9535 7.26297C62.6358 7.23367 62.1998 7.20627 61.6521 7.1689L61.66 5.93512C63.3795 5.89264 64.6036 5.83278 65.3203 5.76719L65.264 15.9462C65.264 16.1155 65.2894 16.2314 65.3345 16.2935C65.3854 16.3557 65.561 16.3982 65.8611 16.4269C66.1612 16.4556 66.5737 16.4761 67.0926 16.4943L67.0892 17.6012L61.7234 17.5822L61.721 16.4751ZM60.4026 5.93332L60.3947 7.1671C59.9619 7.21845 59.6121 7.26061 59.3508 7.30588C59.0897 7.34511 58.9288 7.38786 58.8622 7.43392C58.7959 7.47393 58.7457 7.55686 58.712 7.67666L55.5491 17.5591L53.9435 17.5511L51.6226 11.015L51.0833 9.39303L50.5246 11.0128L48.1587 17.5295L46.5532 17.5215L43.471 7.61349C43.4399 7.49141 43.3896 7.411 43.3203 7.36622C43.251 7.32145 43.0931 7.27961 42.829 7.23404C42.5709 7.18868 42.2243 7.14022 41.7892 7.08865L41.7971 5.85487L46.9383 5.87807L46.9305 7.11185C46.4806 7.14445 46.1254 7.17433 45.8649 7.19543C45.6042 7.22257 45.4555 7.25365 45.4127 7.29449C45.37 7.33534 45.367 7.41992 45.3983 7.53596L47.0693 13.5834L47.536 15.2573L48.0963 13.5892L50.6469 6.35306L51.6739 6.35887L54.27 13.7999L54.8875 15.5517L55.3501 13.8076L57.1177 7.51786C57.1325 7.43369 57.1169 7.37265 57.0708 7.34078C57.0188 7.30871 56.8547 7.2727 56.5721 7.25069C56.2897 7.22262 55.8953 7.19063 55.3948 7.15491L55.4027 5.92113L60.4026 5.93332ZM40.0054 16.1968C40.0563 16.259 40.2319 16.3015 40.532 16.3302C40.8321 16.3589 41.2446 16.3794 41.7635 16.3976L41.7601 17.5045L38.2243 17.4893L38.2658 10.0864C38.2734 9.19742 38.0375 8.51766 37.5638 8.05339C37.0901 7.58911 36.4371 7.35446 35.599 7.34924C35.05 7.34812 34.4784 7.48533 33.8899 7.76714C33.3015 8.04895 32.8221 8.41927 32.4518 8.87812L32.4149 15.8154C32.4148 15.9847 32.4403 16.1006 32.4853 16.1626C32.5363 16.2249 32.7119 16.2674 33.012 16.2961C33.3121 16.3247 33.7246 16.3453 34.2435 16.3635L34.24 17.4704L28.8743 17.4514L28.8777 16.3445C29.38 16.3319 29.7822 16.3097 30.0842 16.284C30.3862 16.2583 30.5589 16.216 30.6141 16.1574C30.6634 16.0987 30.691 15.9847 30.6912 15.8093L30.7916 2.52253C30.79 2.40149 30.763 2.32795 30.7053 2.28963C30.6474 2.25735 30.4596 2.22656 30.1418 2.19726C29.8241 2.16795 29.3882 2.14055 28.8404 2.10318L28.8483 0.8694C30.5678 0.826922 31.7919 0.767057 32.5086 0.701475L32.4677 8.2556C32.9045 7.41798 33.4589 6.75992 34.1192 6.28101C34.7795 5.8021 35.5493 5.56901 36.4171 5.56922C37.0546 5.57345 37.6456 5.72124 38.1962 6.01278C38.7469 6.30433 39.1803 6.73695 39.5087 7.30501C39.8312 7.87286 39.9904 8.54993 39.9865 9.33619L39.953 15.838C39.9349 16.0188 39.9544 16.1345 40.0054 16.1968ZM20.6921 16.9404C19.9183 16.4474 19.3112 15.7486 18.8708 14.8378C18.4305 13.9271 18.2143 12.8548 18.2222 11.621C18.2252 10.5262 18.4554 9.518 18.9008 8.60205C19.3462 7.68609 19.9738 6.96406 20.7661 6.42324C21.5642 5.88867 22.4651 5.61784 23.4686 5.62281C24.6373 5.62755 25.5836 5.91484 26.2957 6.48427C27.0136 7.05391 27.4571 7.87403 27.6375 8.95714L26.0558 9.28272C25.6943 7.8061 24.8229 7.06774 23.4358 7.06139C22.7688 7.05613 22.1657 7.25273 21.6383 7.64557C21.1109 8.03841 20.6963 8.58039 20.4005 9.27172C20.1046 9.96305 19.9528 10.7562 19.9511 11.6454C19.9475 12.589 20.1082 13.3931 20.4388 14.0641C20.7695 14.7351 21.2181 15.2408 21.7845 15.5874C22.3509 15.9339 22.9883 16.1075 23.685 16.1078C24.4346 16.1099 25.1243 15.9708 25.7423 15.69C26.3602 15.4092 26.8632 15.0397 27.2514 14.5755L27.4752 14.7588C27.2012 15.6686 26.7218 16.3777 26.0364 16.8981C25.3451 17.4183 24.4505 17.6772 23.3468 17.6687C22.3545 17.6823 21.4659 17.4333 20.6921 16.9404ZM13.306 2.66487C13.0723 2.42679 12.9593 2.11431 12.9606 1.73931C12.962 1.3643 13.0789 1.05989 13.3174 0.826288C13.5497 0.598522 13.8549 0.4822 14.2209 0.482949C14.5869 0.483699 14.8897 0.603215 15.1236 0.83525C15.3575 1.06728 15.4707 1.37372 15.4693 1.74873C15.468 2.12374 15.3508 2.43419 15.1122 2.67383C14.8735 2.91348 14.5742 3.03 14.2082 3.02926C13.8366 3.02226 13.5338 2.90274 13.306 2.66487ZM11.9011 16.2809C12.4211 16.2689 12.8292 16.2469 13.1312 16.2212C13.4332 16.1955 13.6059 16.1532 13.661 16.0947C13.7103 16.0359 13.7379 15.9219 13.7382 15.7465L13.7835 7.39403C13.7818 7.27298 13.7549 7.19945 13.6972 7.16113C13.6393 7.12885 13.4514 7.09806 13.1337 7.06875C12.8159 7.03945 12.38 7.01205 11.8323 6.97467L11.8402 5.7409C13.5596 5.69842 14.7838 5.63855 15.5004 5.57297L15.4442 15.7519C15.4441 15.9213 15.4696 16.0372 15.5146 16.0992C15.5656 16.1615 15.7412 16.204 16.0413 16.2327C16.3413 16.2613 16.7539 16.2819 17.2728 16.3001L17.2693 17.407L11.9036 17.388L11.9011 16.2809ZM6.6049 6.88191L7.07267 4.99281L5.17781 4.98678L4.71005 6.87589L6.6049 6.88191ZM10.9213 5.00693L9.07387 4.99651L8.58842 6.885L10.0583 6.8882L10.0503 8.46074L8.20265 8.45637L7.48784 11.3289L5.49864 11.3195L6.21345 8.44703L4.3186 8.44101L3.59789 11.3133L1.60869 11.304L2.33509 8.43792L0.847504 8.4341L0.855478 6.86156L2.71495 6.86634L3.18272 4.97724L1.71282 4.97403L1.7208 3.4015L3.56848 3.40587L4.2833 0.533351L6.27249 0.542687L5.55768 3.4152L7.45253 3.42123L8.16735 0.548712L10.1742 0.558669L9.45942 3.43118L10.9293 3.43439L10.9213 5.00693Z" fill="white"/>
</svg>
