<svg width="15" height="15" viewBox="0 0 18 18" fill="none" xmlns="http://www.w3.org/2000/svg">
<path fill-rule="evenodd" clip-rule="evenodd" d="M2 16H16V11H18V16C18 16.5304 17.7893 17.0391 17.4142 17.4142C17.0392 17.7893 16.5304 18 16 18H2C1.4696 18 0.960815 17.7893 0.585815 17.4142C0.210693 17.0391 0 16.5304 0 16V2C0 1.46957 0.210693 0.960857 0.585815 0.585785C0.960815 0.210712 1.4696 0 2 0H7V2H2V16ZM9.99951 0H17.9995V8L14.7096 4.71L8.97961 10.44L7.55957 9.02L13.2896 3.29L9.99951 0Z" fill="white"/>
</svg>
