<svg width="208" height="48" viewBox="0 0 208 48" fill="none" xmlns="http://www.w3.org/2000/svg">
<mask id="mask0" mask-type="alpha" maskUnits="userSpaceOnUse" x="0" y="0" width="208" height="48">
<path fill-rule="evenodd" clip-rule="evenodd" d="M0 47.546H207.466V0.455078H0V47.546Z" fill="white"/>
</mask>
<g mask="url(#mask0)">
<path fill-rule="evenodd" clip-rule="evenodd" d="M104.51 33.4037H103.425V30.2563C103.425 29.8608 103.346 29.566 103.188 29.3712C103.03 29.1773 102.78 29.0799 102.436 29.0799C101.979 29.0799 101.645 29.2161 101.434 29.4876C101.223 29.7591 101.116 30.2141 101.116 30.8527V33.4037H100.036V28.2845H100.883L101.034 28.955H101.09C101.243 28.7119 101.461 28.5232 101.742 28.3905C102.025 28.2578 102.337 28.1914 102.679 28.1914C103.9 28.1914 104.51 28.8162 104.51 30.0659V33.4037Z" fill="#9DA042"/>
<path fill-rule="evenodd" clip-rule="evenodd" d="M97.2783 33.4027H98.3766V26.6348H97.2783V33.4027Z" fill="#9DA042"/>
<path fill-rule="evenodd" clip-rule="evenodd" d="M106.013 33.4028H107.093V28.2835H106.013V33.4028ZM105.949 26.9262C105.949 26.7314 106.002 26.5823 106.108 26.478C106.213 26.372 106.365 26.3203 106.56 26.3203C106.751 26.3203 106.898 26.372 107.003 26.478C107.11 26.5823 107.162 26.7314 107.162 26.9262C107.162 27.1115 107.11 27.258 107.003 27.364C106.898 27.4709 106.751 27.5234 106.56 27.5234C106.365 27.5234 106.213 27.4709 106.108 27.364C106.002 27.258 105.949 27.1115 105.949 26.9262Z" fill="#9DA042"/>
<path fill-rule="evenodd" clip-rule="evenodd" d="M110.533 32.6163C110.797 32.6163 111.061 32.5749 111.324 32.4904V33.3109C111.204 33.3626 111.05 33.4074 110.862 33.4427C110.674 33.4781 110.479 33.4962 110.276 33.4962C109.252 33.4962 108.74 32.9532 108.74 31.8665V29.1078H108.045V28.626L108.79 28.2278L109.159 27.1445H109.825V28.2839H111.274V29.1078H109.825V31.8475C109.825 32.1095 109.89 32.3043 110.021 32.4284C110.152 32.5542 110.322 32.6163 110.533 32.6163Z" fill="#9DA042"/>
<path fill-rule="evenodd" clip-rule="evenodd" d="M112.341 33.4028H113.421V28.2835H112.341V33.4028ZM112.276 26.9262C112.276 26.7314 112.329 26.5823 112.436 26.478C112.541 26.372 112.692 26.3203 112.888 26.3203C113.078 26.3203 113.226 26.372 113.331 26.478C113.438 26.5823 113.49 26.7314 113.49 26.9262C113.49 27.1115 113.438 27.258 113.331 27.364C113.226 27.4709 113.078 27.5234 112.888 27.5234C112.692 27.5234 112.541 27.4709 112.436 27.364C112.329 27.258 112.276 27.1115 112.276 26.9262Z" fill="#9DA042"/>
<path fill-rule="evenodd" clip-rule="evenodd" d="M116.538 32.6626C116.93 32.6626 117.245 32.5522 117.483 32.3316C117.72 32.1101 117.84 31.8016 117.84 31.4034V30.9587L117.186 30.9872C116.678 31.0053 116.307 31.0914 116.076 31.244C115.844 31.3965 115.729 31.6301 115.729 31.9446C115.729 32.1739 115.797 32.3506 115.931 32.4747C116.066 32.6005 116.268 32.6626 116.538 32.6626ZM118.147 33.4029L117.932 32.6901H117.895C117.649 33.0021 117.403 33.2141 117.154 33.327C116.906 33.4391 116.588 33.4959 116.198 33.4959C115.698 33.4959 115.308 33.3606 115.027 33.0883C114.747 32.8168 114.607 32.4324 114.607 31.9352C114.607 31.4077 114.802 31.0096 115.192 30.7415C115.58 30.4727 116.173 30.3261 116.97 30.302L117.848 30.2744V30.0004C117.848 29.6737 117.772 29.429 117.621 29.2678C117.469 29.1049 117.233 29.0239 116.915 29.0239C116.654 29.0239 116.405 29.0627 116.166 29.1394C115.927 29.217 115.697 29.3075 115.476 29.4126L115.127 28.6352C115.402 28.4896 115.704 28.3793 116.032 28.3043C116.36 28.2285 116.67 28.1914 116.961 28.1914C117.608 28.1914 118.096 28.3327 118.426 28.6171C118.755 28.9007 118.919 29.3463 118.919 29.9538V33.4029H118.147Z" fill="#9DA042"/>
<path fill-rule="evenodd" clip-rule="evenodd" d="M122.322 32.6163C122.586 32.6163 122.849 32.5749 123.113 32.4904V33.3109C122.993 33.3626 122.839 33.4074 122.651 33.4427C122.462 33.4781 122.267 33.4962 122.064 33.4962C121.041 33.4962 120.529 32.9532 120.529 31.8665V29.1078H119.834V28.626L120.58 28.2278L120.948 27.1445H121.614V28.2839H123.062V29.1078H121.614V31.8475C121.614 32.1095 121.679 32.3043 121.809 32.4284C121.94 32.5542 122.111 32.6163 122.322 32.6163Z" fill="#9DA042"/>
<path fill-rule="evenodd" clip-rule="evenodd" d="M124.129 33.4028H125.209V28.2835H124.129V33.4028ZM124.065 26.9262C124.065 26.7314 124.118 26.5823 124.224 26.478C124.329 26.372 124.481 26.3203 124.676 26.3203C124.867 26.3203 125.015 26.372 125.12 26.478C125.226 26.5823 125.279 26.7314 125.279 26.9262C125.279 27.1115 125.226 27.258 125.12 27.364C125.015 27.4709 124.867 27.5234 124.676 27.5234C124.481 27.5234 124.329 27.4709 124.224 27.364C124.118 27.258 124.065 27.1115 124.065 26.9262Z" fill="#9DA042"/>
<path fill-rule="evenodd" clip-rule="evenodd" d="M127.913 33.4024L125.981 28.2832H127.122L128.157 31.2591C128.334 31.7589 128.441 32.164 128.478 32.4717H128.514C128.543 32.2493 128.65 31.8451 128.837 31.2591L129.871 28.2832H131.021L129.08 33.4024H127.913Z" fill="#9DA042"/>
<path fill-rule="evenodd" clip-rule="evenodd" d="M133.816 29.0153C133.473 29.0153 133.197 29.1248 132.991 29.3437C132.784 29.5634 132.661 29.8823 132.621 30.302H134.929C134.923 29.8789 134.822 29.5591 134.625 29.3419C134.429 29.1239 134.16 29.0153 133.816 29.0153ZM134.013 33.4959C133.223 33.4959 132.605 33.2641 132.158 32.7996C131.713 32.3351 131.49 31.6947 131.49 30.8803C131.49 30.0443 131.696 29.3876 132.111 28.9084C132.524 28.4301 133.093 28.1914 133.816 28.1914C134.487 28.1914 135.017 28.3965 135.407 28.8067C135.796 29.217 135.991 29.7823 135.991 30.5011V31.0889H132.603C132.618 31.5853 132.751 31.9679 133.002 32.2342C133.254 32.5014 133.608 32.635 134.065 32.635C134.365 32.635 134.645 32.6065 134.904 32.5497C135.163 32.4919 135.44 32.3971 135.738 32.2652V33.1495C135.474 33.2753 135.208 33.3649 134.939 33.4166C134.668 33.4701 134.361 33.4959 134.013 33.4959Z" fill="#9DA042"/>
<path fill-rule="evenodd" clip-rule="evenodd" d="M142.216 29.1071H140.975V33.4024H139.89V29.1071H139.053V28.5977L139.89 28.2642V27.9316C139.89 27.3266 140.03 26.8784 140.313 26.5862C140.594 26.2949 141.025 26.1484 141.604 26.1484C141.985 26.1484 142.359 26.2122 142.727 26.3389L142.442 27.1628C142.175 27.0766 141.92 27.0335 141.678 27.0335C141.433 27.0335 141.254 27.1102 141.142 27.2619C141.03 27.4153 140.975 27.6446 140.975 27.9496V28.2832H142.216V29.1071Z" fill="#9DA042"/>
<path fill-rule="evenodd" clip-rule="evenodd" d="M145.641 26.926C145.641 26.7347 145.692 26.5968 145.795 26.5123C145.898 26.427 146.022 26.3848 146.169 26.3848C146.332 26.3848 146.462 26.433 146.56 26.5278C146.658 26.6235 146.708 26.7571 146.708 26.926C146.708 27.0923 146.657 27.225 146.555 27.3224C146.454 27.419 146.326 27.4681 146.169 27.4681C146.022 27.4681 145.898 27.4233 145.795 27.3336C145.692 27.244 145.641 27.1087 145.641 26.926ZM143.834 26.926C143.834 26.7347 143.885 26.5968 143.987 26.5123C144.09 26.427 144.215 26.3848 144.362 26.3848C144.525 26.3848 144.655 26.433 144.751 26.5278C144.848 26.6235 144.896 26.7571 144.896 26.926C144.896 27.0897 144.847 27.2207 144.748 27.3198C144.651 27.4181 144.521 27.4681 144.362 27.4681C144.215 27.4681 144.09 27.4233 143.987 27.3336C143.885 27.244 143.834 27.1087 143.834 26.926ZM146.666 33.4026L146.514 32.7304H146.459C146.309 32.9691 146.095 33.1561 145.817 33.2914C145.54 33.4267 145.224 33.4948 144.869 33.4948C144.252 33.4948 143.792 33.3405 143.489 33.032C143.185 32.7235 143.034 32.2564 143.034 31.629V28.2825H144.123V31.4394C144.123 31.8306 144.203 32.1254 144.362 32.3219C144.521 32.5166 144.771 32.6157 145.112 32.6157C145.566 32.6157 145.899 32.4787 146.112 32.2055C146.325 31.9332 146.432 31.4747 146.432 30.8326V28.2825H147.517V33.4026H146.666Z" fill="#9DA042"/>
<path fill-rule="evenodd" clip-rule="evenodd" d="M151.637 28.1914C151.854 28.1914 152.033 28.2069 152.174 28.2379L152.068 29.2506C151.915 29.2144 151.756 29.1954 151.59 29.1954C151.158 29.1954 150.808 29.3376 150.54 29.6212C150.271 29.9056 150.137 30.2744 150.137 30.7278V33.4037H149.057V28.2836H149.903L150.045 29.186H150.1C150.269 28.8809 150.489 28.6387 150.761 28.4603C151.031 28.281 151.324 28.1914 151.637 28.1914Z" fill="#9DA042"/>
<path fill-rule="evenodd" clip-rule="evenodd" d="M160.037 33.4037H158.951V30.2563C158.951 29.8608 158.873 29.566 158.714 29.3712C158.557 29.1773 158.307 29.0799 157.963 29.0799C157.506 29.0799 157.172 29.2161 156.96 29.4876C156.749 29.7591 156.643 30.2141 156.643 30.8527V33.4037H155.562V28.2845H156.409L156.561 28.955H156.616C156.769 28.7119 156.987 28.5232 157.269 28.3905C157.551 28.2578 157.863 28.1914 158.206 28.1914C159.426 28.1914 160.037 28.8162 160.037 30.0659V33.4037Z" fill="#9DA042"/>
<path fill-rule="evenodd" clip-rule="evenodd" d="M163.112 32.6626C163.504 32.6626 163.819 32.5522 164.057 32.3316C164.294 32.1101 164.414 31.8016 164.414 31.4034V30.9587L163.76 30.9872C163.252 31.0053 162.881 31.0914 162.65 31.244C162.418 31.3965 162.303 31.6301 162.303 31.9446C162.303 32.1739 162.371 32.3506 162.505 32.4747C162.64 32.6005 162.843 32.6626 163.112 32.6626ZM164.722 33.4029L164.506 32.6901H164.469C164.223 33.0021 163.977 33.2141 163.729 33.327C163.48 33.4391 163.162 33.4959 162.772 33.4959C162.273 33.4959 161.882 33.3606 161.601 33.0883C161.322 32.8168 161.181 32.4324 161.181 31.9352C161.181 31.4077 161.376 31.0096 161.766 30.7415C162.154 30.4727 162.748 30.3261 163.545 30.302L164.422 30.2744V30.0004C164.422 29.6737 164.347 29.429 164.195 29.2678C164.044 29.1049 163.807 29.0239 163.489 29.0239C163.229 29.0239 162.98 29.0627 162.74 29.1394C162.501 29.217 162.271 29.3075 162.05 29.4126L161.701 28.6352C161.976 28.4896 162.279 28.3793 162.606 28.3043C162.934 28.2285 163.244 28.1914 163.535 28.1914C164.182 28.1914 164.67 28.3327 165 28.6171C165.329 28.9007 165.494 29.3463 165.494 29.9538V33.4029H164.722Z" fill="#9DA042"/>
<path fill-rule="evenodd" clip-rule="evenodd" d="M169.053 33.4959C168.284 33.4959 167.699 33.2693 167.299 32.8177C166.898 32.3652 166.699 31.7171 166.699 30.8708C166.699 30.0099 166.908 29.3488 167.326 28.8852C167.745 28.4224 168.35 28.1914 169.141 28.1914C169.677 28.1914 170.16 28.2914 170.588 28.4913L170.262 29.3669C169.805 29.1877 169.428 29.098 169.131 29.098C168.251 29.098 167.812 29.6858 167.812 30.8613C167.812 31.4353 167.921 31.8671 168.14 32.1558C168.359 32.4436 168.68 32.5884 169.104 32.5884C169.584 32.5884 170.04 32.4686 170.469 32.2273V33.1762C170.276 33.2908 170.069 33.3718 169.85 33.4218C169.631 33.4718 169.365 33.4959 169.053 33.4959Z" fill="#9DA042"/>
<path fill-rule="evenodd" clip-rule="evenodd" d="M176.138 33.4034H175.052V30.2561C175.052 29.8605 174.974 29.5657 174.815 29.371C174.658 29.177 174.408 29.0797 174.064 29.0797C173.61 29.0797 173.277 29.2167 173.064 29.4899C172.851 29.7622 172.744 30.2207 172.744 30.8619V33.4034H171.664V26.2012H172.744V28.0291C172.744 28.3221 172.726 28.6358 172.689 28.9685H172.758C172.906 28.7211 173.11 28.5307 173.372 28.3945C173.634 28.2583 173.94 28.1911 174.289 28.1911C175.521 28.1911 176.138 28.8159 176.138 30.0656V33.4034Z" fill="#9DA042"/>
<path fill-rule="evenodd" clip-rule="evenodd" d="M182.115 33.4034H181.03V30.2561C181.03 29.8605 180.951 29.5657 180.792 29.371C180.635 29.177 180.385 29.0797 180.041 29.0797C179.587 29.0797 179.254 29.2167 179.041 29.4899C178.828 29.7622 178.721 30.2207 178.721 30.8619V33.4034H177.641V26.2012H178.721V28.0291C178.721 28.3221 178.703 28.6358 178.666 28.9685H178.735C178.883 28.7211 179.087 28.5307 179.349 28.3945C179.611 28.2583 179.917 28.1911 180.266 28.1911C181.498 28.1911 182.115 28.8159 182.115 30.0656V33.4034Z" fill="#9DA042"/>
<path fill-rule="evenodd" clip-rule="evenodd" d="M185.19 32.6626C185.583 32.6626 185.898 32.5522 186.135 32.3316C186.373 32.1101 186.492 31.8016 186.492 31.4034V30.9587L185.838 30.9872C185.33 31.0053 184.959 31.0914 184.728 31.244C184.496 31.3965 184.382 31.6301 184.382 31.9446C184.382 32.1739 184.449 32.3506 184.584 32.4747C184.718 32.6005 184.921 32.6626 185.19 32.6626ZM186.8 33.4029L186.584 32.6901H186.547C186.301 33.0021 186.055 33.2141 185.807 33.327C185.558 33.4391 185.24 33.4959 184.851 33.4959C184.351 33.4959 183.96 33.3606 183.68 33.0883C183.4 32.8168 183.259 32.4324 183.259 31.9352C183.259 31.4077 183.454 31.0096 183.844 30.7415C184.233 30.4727 184.826 30.3261 185.623 30.302L186.5 30.2744V30.0004C186.5 29.6737 186.425 29.429 186.273 29.2678C186.122 29.1049 185.885 29.0239 185.567 29.0239C185.307 29.0239 185.058 29.0627 184.818 29.1394C184.579 29.217 184.349 29.3075 184.128 29.4126L183.779 28.6352C184.054 28.4896 184.357 28.3793 184.685 28.3043C185.012 28.2285 185.322 28.1914 185.613 28.1914C186.26 28.1914 186.748 28.3327 187.078 28.6171C187.407 28.9007 187.572 29.3463 187.572 29.9538V33.4029H186.8Z" fill="#9DA042"/>
<path fill-rule="evenodd" clip-rule="evenodd" d="M189.079 33.4034H190.159V26.2012H189.079V33.4034Z" fill="#9DA042"/>
<path fill-rule="evenodd" clip-rule="evenodd" d="M193.599 32.6163C193.863 32.6163 194.126 32.5749 194.39 32.4904V33.3109C194.27 33.3626 194.116 33.4074 193.928 33.4427C193.739 33.4781 193.544 33.4962 193.341 33.4962C192.317 33.4962 191.806 32.9532 191.806 31.8665V29.1078H191.111V28.626L191.857 28.2278L192.225 27.1445H192.891V28.2839H194.339V29.1078H192.891V31.8475C192.891 32.1095 192.956 32.3043 193.086 32.4284C193.217 32.5542 193.387 32.6163 193.599 32.6163Z" fill="#9DA042"/>
<path fill-rule="evenodd" clip-rule="evenodd" d="M195.406 33.4028H196.486V28.2835H195.406V33.4028ZM195.342 26.9262C195.342 26.7314 195.395 26.5823 195.501 26.478C195.606 26.372 195.757 26.3203 195.953 26.3203C196.144 26.3203 196.291 26.372 196.397 26.478C196.503 26.5823 196.556 26.7314 196.556 26.9262C196.556 27.1115 196.503 27.258 196.397 27.364C196.291 27.4709 196.144 27.5234 195.953 27.5234C195.757 27.5234 195.606 27.4709 195.501 27.364C195.395 27.258 195.342 27.1115 195.342 26.9262Z" fill="#9DA042"/>
<path fill-rule="evenodd" clip-rule="evenodd" d="M198.795 29.9409C198.795 30.2615 198.877 30.508 199.04 30.6812C199.205 30.8544 199.44 30.9406 199.747 30.9406C200.372 30.9406 200.685 30.6045 200.685 29.9314C200.685 29.5988 200.607 29.3419 200.453 29.161C200.298 28.9808 200.062 28.8895 199.747 28.8895C199.434 28.8895 199.197 28.98 199.036 29.1584C198.875 29.3376 198.795 29.5988 198.795 29.9409ZM198.331 34.1992C198.331 34.4345 198.435 34.6146 198.645 34.7413C198.855 34.868 199.15 34.9309 199.53 34.9309C200.119 34.9309 200.557 34.8456 200.846 34.6758C201.133 34.5069 201.277 34.2811 201.277 34.001C201.277 33.7786 201.199 33.6209 201.041 33.5261C200.882 33.4322 200.59 33.3848 200.16 33.3848H199.343C199.032 33.3848 198.786 33.458 198.604 33.6045C198.421 33.751 198.331 33.9493 198.331 34.1992ZM202.326 28.2836V28.8809L201.457 29.0429C201.536 29.1506 201.602 29.2833 201.655 29.4411C201.706 29.5988 201.733 29.7651 201.733 29.9409C201.733 30.4683 201.552 30.8837 201.19 31.1854C200.828 31.4887 200.33 31.6396 199.696 31.6396C199.533 31.6396 199.386 31.6275 199.254 31.6025C199.021 31.7482 198.905 31.9171 198.905 32.1118C198.905 32.229 198.959 32.317 199.068 32.3756C199.176 32.4342 199.378 32.4635 199.669 32.4635H200.556C201.116 32.4635 201.542 32.5833 201.833 32.8246C202.125 33.065 202.271 33.4123 202.271 33.8665C202.271 34.4465 202.033 34.8938 201.558 35.2084C201.083 35.5238 200.396 35.6807 199.497 35.6807C198.806 35.6807 198.277 35.5574 197.912 35.3101C197.547 35.0636 197.364 34.712 197.364 34.2552C197.364 33.9406 197.464 33.6761 197.661 33.4615C197.859 33.2469 198.136 33.0978 198.492 33.0142C198.348 32.953 198.229 32.853 198.135 32.716C198.041 32.5789 197.994 32.4342 197.994 32.2833C197.994 32.0912 198.048 31.93 198.155 31.7964C198.263 31.6646 198.422 31.5336 198.634 31.4034C198.37 31.2888 198.156 31.1035 197.993 30.8458C197.828 30.5881 197.746 30.2856 197.746 29.9409C197.746 29.385 197.921 28.9541 198.268 28.649C198.616 28.3431 199.111 28.1914 199.755 28.1914C199.9 28.1914 200.05 28.2009 200.208 28.2216C200.366 28.2405 200.485 28.2621 200.564 28.2836H202.326Z" fill="#9DA042"/>
<path fill-rule="evenodd" clip-rule="evenodd" d="M205.292 29.0153C204.948 29.0153 204.673 29.1248 204.466 29.3437C204.259 29.5634 204.136 29.8823 204.097 30.302H206.404C206.398 29.8789 206.297 29.5591 206.1 29.3419C205.904 29.1239 205.635 29.0153 205.292 29.0153ZM205.488 33.4959C204.698 33.4959 204.08 33.2641 203.633 32.7996C203.188 32.3351 202.965 31.6947 202.965 30.8803C202.965 30.0443 203.171 29.3876 203.586 28.9084C203.999 28.4301 204.568 28.1914 205.291 28.1914C205.963 28.1914 206.492 28.3965 206.882 28.8067C207.271 29.217 207.467 29.7823 207.467 30.5011V31.0889H204.078C204.093 31.5853 204.227 31.9679 204.477 32.2342C204.729 32.5014 205.083 32.635 205.54 32.635C205.84 32.635 206.12 32.6065 206.379 32.5497C206.638 32.4919 206.915 32.3971 207.213 32.2652V33.1495C206.95 33.2753 206.683 33.3649 206.414 33.4166C206.143 33.4701 205.836 33.4959 205.488 33.4959Z" fill="#9DA042"/>
<path fill-rule="evenodd" clip-rule="evenodd" d="M100.487 41.7732L99.8583 39.9306C99.8112 39.8074 99.7479 39.6126 99.6674 39.348C99.5853 39.0817 99.5296 38.887 99.4988 38.7646C99.4166 39.1438 99.2942 39.5592 99.1359 40.0091L98.529 41.7732H100.487ZM101.448 44.606L100.778 42.7264H98.2071L97.5488 44.606H96.3906L98.9056 37.8105H100.101L102.616 44.606H101.448Z" fill="#9DA042"/>
<path fill-rule="evenodd" clip-rule="evenodd" d="M104.151 41.144C104.151 41.4646 104.233 41.7111 104.397 41.8843C104.561 42.0576 104.797 42.1437 105.103 42.1437C105.729 42.1437 106.041 41.8076 106.041 41.1345C106.041 40.8019 105.963 40.5451 105.809 40.3641C105.654 40.184 105.418 40.0926 105.103 40.0926C104.791 40.0926 104.554 40.1831 104.393 40.3615C104.232 40.5407 104.151 40.8019 104.151 41.144ZM103.687 45.4023C103.687 45.6367 103.792 45.8177 104.002 45.9435C104.212 46.0711 104.507 46.134 104.887 46.134C105.476 46.134 105.915 46.0487 106.202 45.8789C106.49 45.71 106.634 45.4842 106.634 45.2032C106.634 44.9809 106.556 44.8232 106.398 44.7292C106.239 44.6353 105.947 44.5879 105.517 44.5879H104.699C104.388 44.5879 104.143 44.6611 103.96 44.8076C103.778 44.9542 103.687 45.1524 103.687 45.4023ZM107.682 39.4867V40.084L106.813 40.246C106.893 40.3537 106.96 40.4865 107.012 40.6442C107.063 40.8019 107.091 40.9682 107.091 41.144C107.091 41.6715 106.908 42.0869 106.547 42.3885C106.186 42.6919 105.688 42.8427 105.053 42.8427C104.89 42.8427 104.743 42.8306 104.611 42.8056C104.379 42.9513 104.262 43.1202 104.262 43.315C104.262 43.4322 104.316 43.5201 104.425 43.5787C104.534 43.6373 104.734 43.6666 105.025 43.6666H105.913C106.474 43.6666 106.9 43.7864 107.191 44.0277C107.482 44.2681 107.627 44.6155 107.627 45.0696C107.627 45.6496 107.389 46.0969 106.915 46.4115C106.44 46.7269 105.753 46.8838 104.855 46.8838C104.163 46.8838 103.634 46.7605 103.269 46.5132C102.904 46.2659 102.722 45.9142 102.722 45.4583C102.722 45.1438 102.82 44.8783 103.018 44.6646C103.216 44.45 103.492 44.3009 103.848 44.2173C103.704 44.1552 103.585 44.0561 103.492 43.9191C103.399 43.7821 103.352 43.6373 103.352 43.4865C103.352 43.2943 103.406 43.1331 103.513 42.9995C103.62 42.8677 103.779 42.7367 103.991 42.6065C103.727 42.4919 103.513 42.3066 103.349 42.0489C103.185 41.7913 103.103 41.4888 103.103 41.144C103.103 40.5882 103.277 40.1572 103.625 39.8522C103.973 39.5462 104.469 39.3945 105.113 39.3945C105.256 39.3945 105.408 39.404 105.565 39.4247C105.723 39.4437 105.842 39.4652 105.921 39.4867H107.682Z" fill="#9DA042"/>
<path fill-rule="evenodd" clip-rule="evenodd" d="M111.206 39.3945C111.423 39.3945 111.602 39.41 111.743 39.4411L111.637 40.4537C111.484 40.4175 111.325 40.3986 111.159 40.3986C110.727 40.3986 110.377 40.5408 110.108 40.8243C109.841 41.1087 109.705 41.4776 109.705 41.9309V44.6068H108.625V39.4867H109.472L109.614 40.3891H109.668C109.837 40.084 110.058 39.8418 110.33 39.6634C110.601 39.4842 110.893 39.3945 111.206 39.3945Z" fill="#9DA042"/>
<path fill-rule="evenodd" clip-rule="evenodd" d="M114.258 43.8657C114.65 43.8657 114.965 43.7554 115.203 43.5347C115.44 43.3132 115.56 43.0047 115.56 42.6065V42.1618L114.906 42.1903C114.397 42.2084 114.027 42.2946 113.796 42.4471C113.564 42.5997 113.449 42.8332 113.449 43.1478C113.449 43.377 113.517 43.5537 113.651 43.6778C113.785 43.8036 113.988 43.8657 114.258 43.8657ZM115.867 44.606L115.651 43.8932H115.615C115.369 44.2052 115.122 44.4172 114.874 44.5301C114.626 44.6422 114.307 44.6991 113.918 44.6991C113.418 44.6991 113.028 44.5629 112.747 44.2914C112.467 44.0199 112.327 43.6356 112.327 43.1383C112.327 42.6109 112.522 42.2127 112.911 41.9447C113.3 41.6758 113.893 41.5293 114.69 41.5051L115.567 41.4776V41.2035C115.567 40.8769 115.492 40.6321 115.341 40.4709C115.189 40.3081 114.953 40.2271 114.634 40.2271C114.374 40.2271 114.125 40.2658 113.885 40.3425C113.647 40.4201 113.416 40.5106 113.196 40.6157L112.846 39.8384C113.122 39.6927 113.424 39.5824 113.752 39.5074C114.08 39.4316 114.39 39.3945 114.681 39.3945C115.328 39.3945 115.816 39.5359 116.145 39.8203C116.475 40.1038 116.639 40.5494 116.639 41.157V44.606H115.867Z" fill="#9DA042"/>
<path fill-rule="evenodd" clip-rule="evenodd" d="M120.727 39.3945C120.944 39.3945 121.123 39.41 121.265 39.4411L121.158 40.4537C121.005 40.4175 120.846 40.3986 120.68 40.3986C120.248 40.3986 119.898 40.5408 119.63 40.8243C119.362 41.1087 119.227 41.4776 119.227 41.9309V44.6068H118.147V39.4867H118.994L119.136 40.3891H119.19C119.359 40.084 119.579 39.8418 119.851 39.6634C120.122 39.4842 120.415 39.3945 120.727 39.3945Z" fill="#9DA042"/>
<path fill-rule="evenodd" clip-rule="evenodd" d="M122.206 44.6066H123.286V37.4043H122.206V44.6066Z" fill="#9DA042"/>
<path fill-rule="evenodd" clip-rule="evenodd" d="M124.832 44.6079H125.913V39.4886H124.832V44.6079ZM124.768 38.1313C124.768 37.9365 124.82 37.7874 124.926 37.6831C125.032 37.5771 125.183 37.5254 125.379 37.5254C125.569 37.5254 125.717 37.5771 125.823 37.6831C125.929 37.7874 125.982 37.9365 125.982 38.1313C125.982 38.3165 125.929 38.4631 125.823 38.5691C125.717 38.6759 125.569 38.7285 125.379 38.7285C125.183 38.7285 125.032 38.6759 124.926 38.5691C124.82 38.4631 124.768 38.3165 124.768 38.1313Z" fill="#9DA042"/>
<path fill-rule="evenodd" clip-rule="evenodd" d="M129.481 40.2184C129.138 40.2184 128.862 40.3279 128.656 40.5468C128.449 40.7666 128.325 41.0854 128.286 41.5051H130.594C130.588 41.082 130.487 40.7622 130.29 40.5451C130.094 40.327 129.824 40.2184 129.481 40.2184ZM129.678 44.6991C128.888 44.6991 128.27 44.4672 127.823 44.0027C127.378 43.5382 127.154 42.8978 127.154 42.0834C127.154 41.2475 127.361 40.5907 127.776 40.1116C128.188 39.6333 128.758 39.3945 129.481 39.3945C130.152 39.3945 130.682 39.5996 131.071 40.0099C131.461 40.4201 131.656 40.9855 131.656 41.7042V42.292H128.267C128.283 42.7884 128.416 43.171 128.667 43.4373C128.919 43.7045 129.273 43.8381 129.729 43.8381C130.03 43.8381 130.31 43.8097 130.569 43.7528C130.827 43.695 131.105 43.6002 131.403 43.4684V44.3517C131.139 44.4784 130.873 44.5681 130.603 44.6198C130.333 44.6732 130.025 44.6991 129.678 44.6991Z" fill="#9DA042"/>
<path fill-rule="evenodd" clip-rule="evenodd" d="M135.434 40.3122H134.194V44.6075H133.109V40.3122H132.271V39.8028L133.109 39.4693V39.1366C133.109 38.5316 133.249 38.0835 133.532 37.7913C133.813 37.5 134.244 37.3535 134.823 37.3535C135.203 37.3535 135.577 37.4173 135.945 37.544L135.66 38.3679C135.393 38.2817 135.139 38.2386 134.897 38.2386C134.652 38.2386 134.473 38.3153 134.361 38.467C134.249 38.6204 134.194 38.8496 134.194 39.1547V39.4883H135.434V40.3122Z" fill="#9DA042"/>
<path fill-rule="evenodd" clip-rule="evenodd" d="M138.322 40.2184C137.978 40.2184 137.703 40.3279 137.497 40.5468C137.289 40.7666 137.166 41.0854 137.127 41.5051H139.435C139.429 41.082 139.328 40.7622 139.131 40.5451C138.935 40.327 138.665 40.2184 138.322 40.2184ZM138.519 44.6991C137.729 44.6991 137.11 44.4672 136.664 44.0027C136.219 43.5382 135.995 42.8978 135.995 42.0834C135.995 41.2475 136.201 40.5907 136.617 40.1116C137.029 39.6333 137.598 39.3945 138.322 39.3945C138.993 39.3945 139.523 39.5996 139.912 40.0099C140.302 40.4201 140.497 40.9855 140.497 41.7042V42.292H137.108C137.123 42.7884 137.257 43.171 137.508 43.4373C137.759 43.7045 138.114 43.8381 138.57 43.8381C138.87 43.8381 139.15 43.8097 139.41 43.7528C139.668 43.695 139.946 43.6002 140.243 43.4684V44.3517C139.98 44.4784 139.714 44.5681 139.444 44.6198C139.173 44.6732 138.866 44.6991 138.519 44.6991Z" fill="#9DA042"/>
<path fill-rule="evenodd" clip-rule="evenodd" d="M144.304 39.3945C144.521 39.3945 144.7 39.41 144.841 39.4411L144.735 40.4537C144.582 40.4175 144.423 40.3986 144.257 40.3986C143.825 40.3986 143.475 40.5408 143.207 40.8243C142.938 41.1087 142.804 41.4776 142.804 41.9309V44.6068H141.724V39.4867H142.57L142.712 40.3891H142.767C142.936 40.084 143.156 39.8418 143.428 39.6634C143.698 39.4842 143.991 39.3945 144.304 39.3945Z" fill="#9DA042"/>
<path fill-rule="evenodd" clip-rule="evenodd" d="M146.827 41.9039L147.439 41.1351L148.974 39.4873H150.221L148.174 41.6858L150.349 44.6074H149.081L147.448 42.3615L146.855 42.8527V44.6074H145.783V37.4043H146.855V40.9171L146.8 41.9039H146.827Z" fill="#9DA042"/>
<path fill-rule="evenodd" clip-rule="evenodd" d="M153.191 40.2184C152.848 40.2184 152.572 40.3279 152.366 40.5468C152.159 40.7666 152.035 41.0854 151.996 41.5051H154.304C154.298 41.082 154.197 40.7622 154 40.5451C153.804 40.327 153.534 40.2184 153.191 40.2184ZM153.388 44.6991C152.598 44.6991 151.98 44.4672 151.533 44.0027C151.088 43.5382 150.864 42.8978 150.864 42.0834C150.864 41.2475 151.071 40.5907 151.486 40.1116C151.898 39.6333 152.468 39.3945 153.191 39.3945C153.862 39.3945 154.392 39.5996 154.781 40.0099C155.171 40.4201 155.366 40.9855 155.366 41.7042V42.292H151.977C151.992 42.7884 152.126 43.171 152.377 43.4373C152.628 43.7045 152.983 43.8381 153.439 43.8381C153.74 43.8381 154.019 43.8097 154.279 43.7528C154.537 43.695 154.815 43.6002 155.113 43.4684V44.3517C154.849 44.4784 154.583 44.5681 154.313 44.6198C154.043 44.6732 153.735 44.6991 153.388 44.6991Z" fill="#9DA042"/>
<path fill-rule="evenodd" clip-rule="evenodd" d="M158.487 43.8194C158.751 43.8194 159.014 43.7771 159.278 43.6935V44.514C159.158 44.5657 159.004 44.6097 158.816 44.6459C158.627 44.6812 158.432 44.6993 158.229 44.6993C157.206 44.6993 156.694 44.1555 156.694 43.0696V40.3109H156V39.8291L156.745 39.431L157.113 38.3477H157.779V39.487H159.228V40.3109H157.779V43.0506C157.779 43.3126 157.844 43.5074 157.974 43.6315C158.105 43.7573 158.276 43.8194 158.487 43.8194Z" fill="#9DA042"/>
<path fill-rule="evenodd" clip-rule="evenodd" d="M162.188 43.8194C162.451 43.8194 162.715 43.7771 162.979 43.6935V44.514C162.859 44.5657 162.705 44.6097 162.516 44.6459C162.328 44.6812 162.133 44.6993 161.93 44.6993C160.906 44.6993 160.394 44.1555 160.394 43.0696V40.3109H159.7V39.8291L160.446 39.431L160.814 38.3477H161.48V39.487H162.928V40.3109H161.48V43.0506C161.48 43.3126 161.545 43.5074 161.675 43.6315C161.806 43.7573 161.976 43.8194 162.188 43.8194Z" fill="#9DA042"/>
<path fill-rule="evenodd" clip-rule="evenodd" d="M166.018 40.2184C165.675 40.2184 165.399 40.3279 165.193 40.5468C164.986 40.7666 164.862 41.0854 164.823 41.5051H167.131C167.125 41.082 167.024 40.7622 166.827 40.5451C166.631 40.327 166.361 40.2184 166.018 40.2184ZM166.215 44.6991C165.425 44.6991 164.807 44.4672 164.36 44.0027C163.915 43.5382 163.691 42.8978 163.691 42.0834C163.691 41.2475 163.898 40.5907 164.313 40.1116C164.725 39.6333 165.295 39.3945 166.018 39.3945C166.689 39.3945 167.219 39.5996 167.608 40.0099C167.998 40.4201 168.193 40.9855 168.193 41.7042V42.292H164.804C164.82 42.7884 164.953 43.171 165.204 43.4373C165.456 43.7045 165.81 43.8381 166.266 43.8381C166.567 43.8381 166.847 43.8097 167.106 43.7528C167.364 43.695 167.642 43.6002 167.94 43.4684V44.3517C167.676 44.4784 167.41 44.5681 167.14 44.6198C166.87 44.6732 166.562 44.6991 166.215 44.6991Z" fill="#9DA042"/>
<path fill-rule="evenodd" clip-rule="evenodd" d="M173.894 44.6068H172.809V41.4595C172.809 41.0639 172.73 40.7691 172.572 40.5744C172.414 40.3805 172.164 40.2831 171.82 40.2831C171.364 40.2831 171.029 40.4192 170.818 40.6907C170.606 40.9622 170.5 41.4172 170.5 42.0558V44.6068H169.42V39.4876H170.267L170.418 40.1581H170.474C170.627 39.9151 170.844 39.7263 171.126 39.5936C171.408 39.4609 171.721 39.3945 172.063 39.3945C173.284 39.3945 173.894 40.0194 173.894 41.269V44.6068Z" fill="#9DA042"/>
<path fill-rule="evenodd" clip-rule="evenodd" d="M0 47.3503H4.49572V2.64411L2.354 0.455078L0 2.64411V47.3503Z" fill="#9DA042"/>
<path fill-rule="evenodd" clip-rule="evenodd" d="M15.2871 3.48047L15.3008 47.3533H19.7974L19.7828 11.2998L15.2871 3.48047Z" fill="#9DA042"/>
<path fill-rule="evenodd" clip-rule="evenodd" d="M40.5357 47.3702H44.3475L44.3723 44.3883L19.1117 0.455078L15.2871 3.4818L40.5357 47.3702Z" fill="#CECF74"/>
<path fill-rule="evenodd" clip-rule="evenodd" d="M42.8837 0.455078L40.5306 2.58982L39.8706 36.5534L44.3672 44.3728L45.0263 2.58982L42.8837 0.455078Z" fill="#9DA042"/>
<path fill-rule="evenodd" clip-rule="evenodd" d="M69.8589 2.79688L69.7331 2.86324L67.2832 9.31657L81.3858 46.4707L84.1652 47.4549L85.5999 44.2704L69.8589 2.79688Z" fill="#CECF74"/>
<path fill-rule="evenodd" clip-rule="evenodd" d="M52.7735 47.546L69.8114 2.65618L65.5964 0.455078L48.5586 45.3449L52.7735 47.546Z" fill="#9DA042"/>
</g>
</svg>
