<svg width="266" height="141" viewBox="0 0 266 141" fill="none" xmlns="http://www.w3.org/2000/svg">
<rect x="1" y="1" width="264" height="139" fill="white"/>
<rect x="0.5" y="0.5" width="265" height="140" stroke="black" stroke-opacity="0.1"/>
<path d="M21.852 49H26.22V33.04H31.876V29.176H16.196V33.04H21.852V49ZM33.5621 27.832V49H37.7621V42.224C37.7621 40.46 38.0981 38.752 40.2821 38.752C42.4381 38.752 42.4661 40.768 42.4661 42.336V49H46.6661V41.496C46.6661 37.856 45.8821 35.056 41.6261 35.056C39.5821 35.056 38.2101 36.176 37.8181 37.24H37.7621V27.832H33.5621ZM59.5803 44.492C58.8803 45.444 57.9563 46.144 56.5843 46.144C54.9603 46.144 53.7563 45.108 53.4203 43.512H63.1643V42.196C63.1643 37.856 60.7003 35.056 56.7803 35.056C52.5803 35.056 49.2203 37.856 49.2203 42.196C49.2203 46.536 52.5803 49.336 56.7803 49.336C58.9643 49.336 61.1763 48.356 62.5203 46.648L59.5803 44.492ZM53.4203 40.656C53.5323 39.34 54.5403 38.08 56.3882 38.08C57.9003 38.08 58.9923 39.256 58.9643 40.656H53.4203ZM74.7035 49H87.1635V44.968H79.0715V29.176H74.7035V49ZM89.0986 49H93.2986V35.392H89.0986V49ZM88.7626 31.108C88.7626 32.452 89.8546 33.544 91.1986 33.544C92.5426 33.544 93.6346 32.452 93.6346 31.108C93.6346 29.764 92.5426 28.672 91.1986 28.672C89.8546 28.672 88.7626 29.764 88.7626 31.108ZM100.516 49H104.968L110.344 35.392H106.116L102.924 44.632H102.868L99.424 35.392H94.888L100.516 49ZM111.931 49H116.131V35.392H111.931V49ZM111.595 31.108C111.595 32.452 112.687 33.544 114.031 33.544C115.375 33.544 116.467 32.452 116.467 31.108C116.467 29.764 115.375 28.672 114.031 28.672C112.687 28.672 111.595 29.764 111.595 31.108ZM119.148 49H123.348V42.224C123.348 40.46 123.684 38.752 125.868 38.752C128.024 38.752 128.052 40.768 128.052 42.336V49H132.252V41.496C132.252 37.856 131.468 35.056 127.212 35.056C125.168 35.056 123.796 36.176 123.236 37.24H123.18V35.392H119.148V49ZM149.506 35.392H145.642V37.184H145.586C144.942 36.204 143.318 35.056 140.938 35.056C137.074 35.056 134.722 38.528 134.722 42.14C134.722 46.256 137.382 49.168 141.414 49.168C142.674 49.168 144.298 48.692 145.25 47.376H145.306V48.692C145.306 50.624 144.102 52.024 141.554 52.024C139.846 52.024 138.418 51.352 137.13 50.26L134.806 53.732C136.766 55.3 139.23 55.72 141.638 55.72C146.902 55.72 149.506 52.976 149.506 47.852V35.392ZM138.922 42.112C138.922 40.348 140.378 38.752 142.282 38.752C144.186 38.752 145.642 40.348 145.642 42.112C145.642 43.876 144.186 45.472 142.282 45.472C140.378 45.472 138.922 43.876 138.922 42.112ZM17.96 78H22.328V58.176H17.96V78ZM25.7692 78H29.9692V71.224C29.9692 69.46 30.3052 67.752 32.4892 67.752C34.6452 67.752 34.6732 69.768 34.6732 71.336V78H38.8732V70.496C38.8732 66.856 38.0892 64.056 33.8332 64.056C31.7892 64.056 30.4172 65.176 29.8572 66.24H29.8012V64.392H25.7692V78ZM53.8313 65.876C52.5153 64.532 50.5833 64.056 48.9873 64.056C44.7873 64.056 41.4273 66.856 41.4273 71.196C41.4273 75.536 44.7873 78.336 48.9873 78.336C50.5833 78.336 52.5153 77.86 53.8313 76.516L51.0593 73.604C50.5833 74.164 49.9113 74.64 48.9873 74.64C46.8873 74.64 45.6273 73.24 45.6273 71.196C45.6273 69.152 46.8873 67.752 48.9873 67.752C49.8553 67.752 50.6393 68.2 51.0593 68.788L53.8313 65.876ZM54.8511 71.196C54.8511 75.536 58.2111 78.336 62.4111 78.336C66.6111 78.336 69.9711 75.536 69.9711 71.196C69.9711 66.856 66.6111 64.056 62.4111 64.056C58.2111 64.056 54.8511 66.856 54.8511 71.196ZM59.0511 71.196C59.0511 69.152 60.3111 67.752 62.4111 67.752C64.5111 67.752 65.7711 69.152 65.7711 71.196C65.7711 73.24 64.5111 74.64 62.4111 74.64C60.3111 74.64 59.0511 73.24 59.0511 71.196ZM72.4449 78H76.6449V71.224C76.6449 69.46 76.9809 67.752 79.1649 67.752C81.0969 67.752 81.0409 69.796 81.0409 70.804V78H85.2409V70.804C85.2409 69.124 85.8569 67.752 87.7889 67.752C89.1609 67.752 89.6369 68.816 89.6369 70.076V78H93.8369V69.964C93.8369 66.66 92.7169 64.056 89.0209 64.056C87.0049 64.056 85.6889 64.756 84.7089 66.492C83.9809 64.84 82.4129 64.056 80.5089 64.056C78.4649 64.056 77.0929 65.176 76.5329 66.24H76.4769V64.392H72.4449V78ZM106.748 73.492C106.048 74.444 105.124 75.144 103.752 75.144C102.128 75.144 100.924 74.108 100.588 72.512H110.332V71.196C110.332 66.856 107.868 64.056 103.948 64.056C99.7482 64.056 96.3882 66.856 96.3882 71.196C96.3882 75.536 99.7482 78.336 103.948 78.336C106.132 78.336 108.344 77.356 109.688 75.648L106.748 73.492ZM100.588 69.656C100.7 68.34 101.708 67.08 103.556 67.08C105.068 67.08 106.16 68.256 106.132 69.656H100.588Z" fill="#373737"/>
<path d="M29.755 90.938C28.495 89.321 26.395 88.754 24.736 88.754C20.095 88.754 16.714 91.799 16.714 96.566C16.714 101.333 20.095 104.378 24.736 104.378C26.773 104.378 28.873 103.559 30.112 101.795L27.382 99.758C26.71 100.766 25.639 101.354 24.316 101.354C21.943 101.354 20.116 99.338 20.116 96.566C20.116 93.794 21.943 91.778 24.421 91.778C25.639 91.778 26.584 92.219 27.235 92.996L29.755 90.938ZM31.111 98.897C31.111 102.152 33.631 104.252 36.781 104.252C39.931 104.252 42.451 102.152 42.451 98.897C42.451 95.642 39.931 93.542 36.781 93.542C33.631 93.542 31.111 95.642 31.111 98.897ZM34.261 98.897C34.261 97.364 35.206 96.314 36.781 96.314C38.356 96.314 39.301 97.364 39.301 98.897C39.301 100.43 38.356 101.48 36.781 101.48C35.206 101.48 34.261 100.43 34.261 98.897ZM44.3064 104H47.4564V98.918C47.4564 97.595 47.7084 96.314 49.3464 96.314C50.7954 96.314 50.7534 97.847 50.7534 98.603V104H53.9034V98.603C53.9034 97.343 54.3654 96.314 55.8144 96.314C56.8434 96.314 57.2004 97.112 57.2004 98.057V104H60.3504V97.973C60.3504 95.495 59.5104 93.542 56.7384 93.542C55.2264 93.542 54.2394 94.067 53.5044 95.369C52.9584 94.13 51.7824 93.542 50.3544 93.542C48.8214 93.542 47.7924 94.382 47.3724 95.18H47.3304V93.794H44.3064V104ZM62.5788 104H65.7288V98.918C65.7288 97.595 65.9808 96.314 67.6188 96.314C69.0678 96.314 69.0258 97.847 69.0258 98.603V104H72.1758V98.603C72.1758 97.343 72.6378 96.314 74.0868 96.314C75.1158 96.314 75.4728 97.112 75.4728 98.057V104H78.6228V97.973C78.6228 95.495 77.7828 93.542 75.0108 93.542C73.4988 93.542 72.5118 94.067 71.7768 95.369C71.2308 94.13 70.0548 93.542 68.6268 93.542C67.0938 93.542 66.0648 94.382 65.6448 95.18H65.6028V93.794H62.5788V104ZM90.6793 93.794H87.5293V98.876C87.5293 100.199 87.2773 101.48 85.6393 101.48C84.0223 101.48 84.0013 99.968 84.0013 98.792V93.794H80.8513V99.422C80.8513 102.152 81.4393 104.252 84.6313 104.252C86.1643 104.252 87.1933 103.412 87.6133 102.614H87.6553V104H90.6793V93.794ZM92.9099 104H96.0599V98.918C96.0599 97.595 96.3119 96.314 97.9499 96.314C99.5669 96.314 99.5879 97.826 99.5879 99.002V104H102.738V98.372C102.738 95.642 102.15 93.542 98.9579 93.542C97.4249 93.542 96.3959 94.382 95.9759 95.18H95.9339V93.794H92.9099V104ZM105.01 104H108.16V93.794H105.01V104ZM104.758 90.581C104.758 91.589 105.577 92.408 106.585 92.408C107.593 92.408 108.412 91.589 108.412 90.581C108.412 89.573 107.593 88.754 106.585 88.754C105.577 88.754 104.758 89.573 104.758 90.581ZM117.375 93.794H114.603V90.77H111.453V93.794H109.437V96.314H111.453V101.165C111.453 103.391 113.07 104.252 115.17 104.252C115.905 104.252 116.682 104.189 117.375 103.937V101.312C117.102 101.564 116.43 101.606 116.094 101.606C114.729 101.606 114.603 100.808 114.603 99.716V96.314H117.375V93.794ZM129.475 93.794H126.241L123.994 100.535H123.952L121.327 93.794H117.925L122.398 104.084L122.167 104.672C121.726 105.785 121.495 106.394 120.067 106.394C119.542 106.394 119.08 106.289 118.597 106.079L118.177 108.662C118.933 108.914 119.731 109.04 120.529 109.04C123.532 109.04 124.015 107.822 124.855 105.659L129.475 93.794ZM136.48 98.897C136.48 102.152 139 104.252 142.15 104.252C145.3 104.252 147.82 102.152 147.82 98.897C147.82 95.642 145.3 93.542 142.15 93.542C139 93.542 136.48 95.642 136.48 98.897ZM139.63 98.897C139.63 97.364 140.575 96.314 142.15 96.314C143.725 96.314 144.67 97.364 144.67 98.897C144.67 100.43 143.725 101.48 142.15 101.48C140.575 101.48 139.63 100.43 139.63 98.897ZM150.768 104H153.918V96.314H156.249V93.794H153.918V92.177C153.918 90.833 154.422 90.518 155.43 90.518C155.808 90.518 156.102 90.602 156.459 90.728L156.606 88.061C156.018 87.914 155.388 87.872 154.758 87.872C151.334 87.872 150.768 89.762 150.768 91.988V93.794H148.689V96.314H150.768V104ZM164.061 104H167.337V98.204H169.731C172.86 98.204 175.233 97.133 175.233 93.647C175.233 90.119 172.671 89.132 169.584 89.132H164.061V104ZM167.337 91.904H169.017C170.277 91.904 171.831 92.114 171.831 93.647C171.831 95.033 170.676 95.432 169.521 95.432H167.337V91.904ZM176.889 104H180.039V99.737C180.039 97.7 180.333 96.314 182.727 96.314C183.189 96.314 183.63 96.398 184.071 96.524V93.647C183.777 93.563 183.378 93.542 183.021 93.542C181.635 93.542 180.753 94.193 180.081 95.432H180.039V93.794H176.889V104ZM191.846 104H194.744V98.813C194.744 95.411 193.757 93.542 190.082 93.542C188.423 93.542 186.743 94.088 185.588 95.18L187.268 96.902C187.94 96.146 188.801 95.684 189.83 95.684C190.922 95.684 191.846 96.398 191.846 97.511C189.221 97.511 184.937 97.574 184.937 101.102C184.937 103.16 186.659 104.252 188.57 104.252C189.851 104.252 191.111 103.811 191.804 102.719H191.846V104ZM191.846 99.527V100.199C191.846 101.459 190.691 102.11 189.452 102.11C188.759 102.11 187.961 101.753 187.961 100.997C187.961 99.611 190.103 99.527 191.069 99.527H191.846ZM205.708 94.907C204.721 93.899 203.272 93.542 202.075 93.542C198.925 93.542 196.405 95.642 196.405 98.897C196.405 102.152 198.925 104.252 202.075 104.252C203.272 104.252 204.721 103.895 205.708 102.887L203.629 100.703C203.272 101.123 202.768 101.48 202.075 101.48C200.5 101.48 199.555 100.43 199.555 98.897C199.555 97.364 200.5 96.314 202.075 96.314C202.726 96.314 203.314 96.65 203.629 97.091L205.708 94.907ZM213.802 93.794H211.03V90.77H207.88V93.794H205.864V96.314H207.88V101.165C207.88 103.391 209.497 104.252 211.597 104.252C212.332 104.252 213.109 104.189 213.802 103.937V101.312C213.529 101.564 212.857 101.606 212.521 101.606C211.156 101.606 211.03 100.808 211.03 99.716V96.314H213.802V93.794ZM215.445 104H218.595V93.794H215.445V104ZM215.193 90.581C215.193 91.589 216.012 92.408 217.02 92.408C218.028 92.408 218.847 91.589 218.847 90.581C218.847 89.573 218.028 88.754 217.02 88.754C216.012 88.754 215.193 89.573 215.193 90.581ZM229.846 94.907C228.859 93.899 227.41 93.542 226.213 93.542C223.063 93.542 220.543 95.642 220.543 98.897C220.543 102.152 223.063 104.252 226.213 104.252C227.41 104.252 228.859 103.895 229.846 102.887L227.767 100.703C227.41 101.123 226.906 101.48 226.213 101.48C224.638 101.48 223.693 100.43 223.693 98.897C223.693 97.364 224.638 96.314 226.213 96.314C226.864 96.314 227.452 96.65 227.767 97.091L229.846 94.907ZM238.444 100.619C237.919 101.333 237.226 101.858 236.197 101.858C234.979 101.858 234.076 101.081 233.824 99.884H241.132V98.897C241.132 95.642 239.284 93.542 236.344 93.542C233.194 93.542 230.674 95.642 230.674 98.897C230.674 102.152 233.194 104.252 236.344 104.252C237.982 104.252 239.641 103.517 240.649 102.236L238.444 100.619ZM233.824 97.742C233.908 96.755 234.664 95.81 236.05 95.81C237.184 95.81 238.003 96.692 237.982 97.742H233.824Z" fill="#787877"/>
</svg>
