<svg width="76" height="50" viewBox="0 0 76 50" fill="none"
     xmlns="http://www.w3.org/2000/svg">
    <path fill-rule="evenodd" clip-rule="evenodd"
          d="M2 1.94843L3.3472 0.679077L4.57375 1.94843V27.8432H2V1.94843Z" fill="white"/>
    <path fill-rule="evenodd" clip-rule="evenodd"
          d="M50.9999 26.0861L50.1788 27.9331L48.5873 27.3625L39.5767 3.31373L41.9892 2.03735L50.9999 26.0861Z"
          fill="white"/>
    <path fill-rule="evenodd" clip-rule="evenodd"
          d="M39.5495 0.679077L41.9621 1.95545L32.2089 27.9858L29.7964 26.7094L39.5495 0.679077Z"
          fill="white"/>
    <path fill-rule="evenodd" clip-rule="evenodd"
          d="M10.7507 1.94843L12.0979 0.679077L13.3245 1.94843V27.8432H10.7507V1.94843Z" fill="white"/>
    <path fill-rule="evenodd" clip-rule="evenodd"
          d="M24.9766 1.23762L26.3238 0L27.5503 1.23762V26.485H24.9766V1.23762Z" fill="white"/>
    <path fill-rule="evenodd" clip-rule="evenodd"
          d="M27.6363 25.8902L27.6259 27.6267L25.4469 27.645L10.7507 1.75479L12.9401 0L27.6363 25.8902Z"
          fill="white"/>
    <path fill-rule="evenodd" clip-rule="evenodd"
          d="M5.52386 39.9348H4.78549V37.7938C4.78549 37.5247 4.73192 37.3241 4.62419 37.1916C4.51704 37.0597 4.34701 36.9935 4.11291 36.9935C3.80196 36.9935 3.57486 37.0861 3.43102 37.2708C3.28719 37.4555 3.21498 37.765 3.21498 38.1995V39.9348H2.4801V36.4524H3.05601L3.15908 36.9085H3.19693C3.30117 36.7431 3.44908 36.6148 3.64066 36.5245C3.83282 36.4342 4.04537 36.389 4.27829 36.389C5.10867 36.389 5.52386 36.8141 5.52386 37.6642V39.9348Z"
          fill="white"/>
    <path fill-rule="evenodd" clip-rule="evenodd"
          d="M0.604004 39.9351H1.35112V35.3311H0.604004V39.9351Z" fill="white"/>
    <path fill-rule="evenodd" clip-rule="evenodd"
          d="M6.54601 39.9351H7.28088V36.4526H6.54601V39.9351ZM6.50232 35.5292C6.50232 35.3967 6.53842 35.2953 6.61063 35.2244C6.68225 35.1522 6.78532 35.1171 6.91809 35.1171C7.04794 35.1171 7.1481 35.1522 7.21972 35.2244C7.29251 35.2953 7.32745 35.3967 7.32745 35.5292C7.32745 35.6553 7.29251 35.7549 7.21972 35.827C7.1481 35.8997 7.04794 35.9355 6.91809 35.9355C6.78532 35.9355 6.68225 35.8997 6.61063 35.827C6.53842 35.7549 6.50232 35.6553 6.50232 35.5292Z"
          fill="white"/>
    <path fill-rule="evenodd" clip-rule="evenodd"
          d="M9.62113 39.3996C9.80048 39.3996 9.97983 39.3715 10.1592 39.314V39.8722C10.0777 39.9073 9.97285 39.9378 9.84474 39.9619C9.71663 39.9859 9.58386 39.9982 9.44585 39.9982C8.74941 39.9982 8.40118 39.6289 8.40118 38.8896V37.0129H7.92834V36.6852L8.43554 36.4143L8.68593 35.6774H9.13956V36.4524H10.1248V37.0129H9.13956V38.8767C9.13956 39.0549 9.18381 39.1874 9.27232 39.2718C9.36142 39.3574 9.4773 39.3996 9.62113 39.3996Z"
          fill="white"/>
    <path fill-rule="evenodd" clip-rule="evenodd"
          d="M10.8504 39.9351H11.5853V36.4526H10.8504V39.9351ZM10.8068 35.5292C10.8068 35.3967 10.8429 35.2953 10.9151 35.2244C10.9867 35.1522 11.0892 35.1171 11.2225 35.1171C11.3524 35.1171 11.4526 35.1522 11.5242 35.2244C11.597 35.2953 11.6325 35.3967 11.6325 35.5292C11.6325 35.6553 11.597 35.7549 11.5242 35.827C11.4526 35.8997 11.3524 35.9355 11.2225 35.9355C11.0892 35.9355 10.9867 35.8997 10.9151 35.827C10.8429 35.7549 10.8068 35.6553 10.8068 35.5292Z"
          fill="white"/>
    <path fill-rule="evenodd" clip-rule="evenodd"
          d="M13.706 39.4311C13.9727 39.4311 14.1869 39.3561 14.3488 39.206C14.5101 39.0553 14.5917 38.8454 14.5917 38.5746V38.2721L14.1468 38.2914C13.8009 38.3037 13.5487 38.3623 13.3915 38.4661C13.2337 38.5699 13.1557 38.7288 13.1557 38.9428C13.1557 39.0987 13.2017 39.2189 13.2931 39.3033C13.3845 39.3889 13.5225 39.4311 13.706 39.4311ZM14.8007 39.9347L14.6539 39.4499H14.6289C14.4617 39.6621 14.294 39.8063 14.1252 39.8831C13.9563 39.9594 13.7397 39.998 13.4747 39.998C13.1347 39.998 12.8691 39.906 12.6781 39.7207C12.4877 39.5361 12.3922 39.2746 12.3922 38.9363C12.3922 38.5775 12.525 38.3066 12.7899 38.1243C13.0543 37.9414 13.4578 37.8417 14 37.8253L14.5968 37.8066V37.6201C14.5968 37.3979 14.5456 37.2314 14.4425 37.1218C14.3395 37.011 14.1787 36.9559 13.9621 36.9559C13.7851 36.9559 13.6156 36.9823 13.4526 37.0344C13.2901 37.0872 13.1335 37.1488 12.9833 37.2203L12.7457 36.6915C12.9332 36.5924 13.1387 36.5173 13.3618 36.4663C13.5848 36.4147 13.7956 36.3895 13.9936 36.3895C14.4338 36.3895 14.7657 36.4857 14.9899 36.6791C15.2141 36.872 15.3259 37.1751 15.3259 37.5885V39.9347H14.8007Z"
          fill="white"/>
    <path fill-rule="evenodd" clip-rule="evenodd"
          d="M17.6404 39.3996C17.8198 39.3996 17.9991 39.3715 18.1785 39.314V39.8722C18.097 39.9073 17.9922 39.9378 17.864 39.9619C17.7359 39.9859 17.6032 39.9982 17.4652 39.9982C16.7687 39.9982 16.4205 39.6289 16.4205 38.8896V37.0129H15.9482V36.6852L16.4554 36.4143L16.7058 35.6774H17.1589V36.4524H18.1441V37.0129H17.1589V38.8767C17.1589 39.0549 17.2031 39.1874 17.2916 39.2718C17.3807 39.3574 17.4966 39.3996 17.6404 39.3996Z"
          fill="white"/>
    <path fill-rule="evenodd" clip-rule="evenodd"
          d="M18.8695 39.9351H19.6044V36.4526H18.8695V39.9351ZM18.8264 35.5292C18.8264 35.3967 18.8619 35.2953 18.9341 35.2244C19.0058 35.1522 19.1088 35.1171 19.2416 35.1171C19.3715 35.1171 19.4722 35.1522 19.5438 35.2244C19.616 35.2953 19.6521 35.3967 19.6521 35.5292C19.6521 35.6553 19.616 35.7549 19.5438 35.827C19.4722 35.8997 19.3715 35.9355 19.2416 35.9355C19.1088 35.9355 19.0058 35.8997 18.9341 35.827C18.8619 35.7549 18.8264 35.6553 18.8264 35.5292Z"
          fill="white"/>
    <path fill-rule="evenodd" clip-rule="evenodd"
          d="M21.4437 39.935L20.13 36.4525H20.9056L21.6097 38.4769C21.7302 38.817 21.803 39.0925 21.828 39.3018H21.8531C21.8723 39.1506 21.9451 38.8756 22.0726 38.4769L22.776 36.4525H23.5581L22.238 39.935H21.4437Z"
          fill="white"/>
    <path fill-rule="evenodd" clip-rule="evenodd"
          d="M25.4596 36.9498C25.2261 36.9498 25.0386 37.0242 24.8983 37.1731C24.7574 37.3226 24.6735 37.5396 24.6467 37.8251H26.2166C26.2126 37.5372 26.1439 37.3197 26.0099 37.172C25.8766 37.0236 25.6931 36.9498 25.4596 36.9498ZM25.5936 39.9978C25.0561 39.9978 24.6357 39.8401 24.3317 39.5241C24.0289 39.2081 23.877 38.7725 23.877 38.2185C23.877 37.6498 24.0173 37.203 24.2997 36.8771C24.5804 36.5517 24.9676 36.3893 25.4597 36.3893C25.9162 36.3893 26.2767 36.5288 26.5416 36.8079C26.8066 37.0869 26.9393 37.4715 26.9393 37.9605V38.3603H24.634C24.6444 38.698 24.7353 38.9583 24.9059 39.1395C25.0771 39.3212 25.3182 39.4121 25.6285 39.4121C25.8329 39.4121 26.0233 39.3928 26.1998 39.3541C26.3756 39.3148 26.5643 39.2503 26.767 39.1606V39.7621C26.5876 39.8477 26.4065 39.9087 26.2231 39.9439C26.0391 39.9802 25.83 39.9978 25.5936 39.9978Z"
          fill="white"/>
    <path fill-rule="evenodd" clip-rule="evenodd"
          d="M31.1735 37.0127H30.3297V39.9347H29.5914V37.0127H29.0219V36.6662L29.5914 36.4393V36.213C29.5914 35.8014 29.6869 35.4966 29.879 35.2978C30.0706 35.0997 30.3635 35 30.7577 35C31.0163 35 31.2708 35.0434 31.5211 35.1296L31.3272 35.69C31.1456 35.6314 30.9726 35.6021 30.8078 35.6021C30.6413 35.6021 30.5196 35.6543 30.4433 35.7575C30.367 35.8618 30.3297 36.0178 30.3297 36.2253V36.4522H31.1735V37.0127Z"
          fill="white"/>
    <path fill-rule="evenodd" clip-rule="evenodd"
          d="M33.504 35.5293C33.504 35.3992 33.5389 35.3054 33.6088 35.2479C33.6787 35.1899 33.7631 35.1611 33.8633 35.1611C33.9739 35.1611 34.0624 35.194 34.1294 35.2585C34.1958 35.3235 34.2296 35.4144 34.2296 35.5293C34.2296 35.6425 34.1952 35.7328 34.1259 35.799C34.0572 35.8647 33.9699 35.8981 33.8633 35.8981C33.7631 35.8981 33.6787 35.8676 33.6088 35.8066C33.5389 35.7456 33.504 35.6536 33.504 35.5293ZM32.2747 35.5293C32.2747 35.3992 32.3091 35.3054 32.3789 35.2479C32.4488 35.1899 32.5338 35.1611 32.634 35.1611C32.7446 35.1611 32.8331 35.194 32.8984 35.2585C32.9642 35.3235 32.9968 35.4144 32.9968 35.5293C32.9968 35.6407 32.9636 35.7298 32.8966 35.7972C32.8302 35.8641 32.7423 35.8981 32.634 35.8981C32.5338 35.8981 32.4488 35.8676 32.3789 35.8066C32.3091 35.7456 32.2747 35.6536 32.2747 35.5293ZM34.201 39.9352L34.0979 39.4779H34.0601C33.9581 39.6403 33.8126 39.7675 33.6239 39.8595C33.4352 39.9516 33.2204 39.9979 32.9787 39.9979C32.5589 39.9979 32.2462 39.893 32.04 39.6831C31.8333 39.4732 31.7302 39.1554 31.7302 38.7286V36.4521H32.4715V38.5996C32.4715 38.8658 32.5257 39.0663 32.634 39.2C32.7423 39.3325 32.9123 39.3999 33.1441 39.3999C33.4527 39.3999 33.6792 39.3067 33.8242 39.1208C33.9692 38.9356 34.042 38.6237 34.042 38.1869V36.4521H34.7798V39.9352H34.201Z"
          fill="white"/>
    <path fill-rule="evenodd" clip-rule="evenodd"
          d="M37.5825 36.3892C37.7304 36.3892 37.8521 36.3997 37.9482 36.4208L37.876 37.1097C37.7717 37.0851 37.6634 37.0722 37.5505 37.0722C37.257 37.0722 37.0188 37.1689 36.8365 37.3618C36.6537 37.5553 36.5623 37.8062 36.5623 38.1146V39.935H35.8274V36.4519H36.4033L36.5 37.0657H36.5372C36.6519 36.8582 36.8016 36.6934 36.9868 36.5721C37.1708 36.4501 37.3699 36.3892 37.5825 36.3892Z"
          fill="white"/>
    <path fill-rule="evenodd" clip-rule="evenodd"
          d="M43.2969 39.935H42.5586V37.7939C42.5586 37.5248 42.505 37.3243 42.3973 37.1918C42.2901 37.0599 42.1201 36.9936 41.886 36.9936C41.5756 36.9936 41.3479 37.0862 41.2041 37.2709C41.0603 37.4556 40.9881 37.7651 40.9881 38.1996V39.935H40.2532V36.4525H40.8291L40.9322 36.9086H40.97C41.0742 36.7433 41.2221 36.6149 41.4137 36.5246C41.6059 36.4343 41.8184 36.3892 42.0514 36.3892C42.8817 36.3892 43.2969 36.8142 43.2969 37.6643V39.935Z"
          fill="white"/>
    <path fill-rule="evenodd" clip-rule="evenodd"
          d="M45.389 39.4311C45.6557 39.4311 45.87 39.3561 46.0319 39.206C46.1932 39.0553 46.2747 38.8454 46.2747 38.5746V38.2721L45.8298 38.2914C45.4839 38.3037 45.2318 38.3623 45.0746 38.4661C44.9168 38.5699 44.8387 38.7288 44.8387 38.9428C44.8387 39.0987 44.8847 39.2189 44.9762 39.3033C45.0676 39.3889 45.2056 39.4311 45.389 39.4311ZM46.4838 39.9347L46.337 39.4499H46.312C46.1449 39.6621 45.9771 39.8063 45.8083 39.8831C45.6394 39.9594 45.4228 39.998 45.1578 39.998C44.8178 39.998 44.5522 39.906 44.3612 39.7207C44.1708 39.5361 44.0753 39.2746 44.0753 38.9363C44.0753 38.5775 44.2081 38.3066 44.473 38.1243C44.7374 37.9414 45.1409 37.8417 45.6831 37.8253L46.2799 37.8066V37.6201C46.2799 37.3979 46.2287 37.2314 46.1256 37.1218C46.0226 37.011 45.8619 36.9559 45.6452 36.9559C45.4682 36.9559 45.2988 36.9823 45.1357 37.0344C44.9732 37.0872 44.8166 37.1488 44.6664 37.2203L44.4288 36.6915C44.6163 36.5924 44.8218 36.5173 45.0449 36.4663C45.2679 36.4147 45.4787 36.3895 45.6767 36.3895C46.1169 36.3895 46.4488 36.4857 46.673 36.6791C46.8972 36.872 47.009 37.1751 47.009 37.5885V39.9347H46.4838Z"
          fill="white"/>
    <path fill-rule="evenodd" clip-rule="evenodd"
          d="M49.43 39.9979C48.907 39.9979 48.5087 39.8437 48.2368 39.5365C47.9643 39.2287 47.8286 38.7879 47.8286 38.2121C47.8286 37.6264 47.9707 37.1768 48.2554 36.8614C48.5402 36.5465 48.9519 36.3894 49.4899 36.3894C49.8545 36.3894 50.1829 36.4574 50.4746 36.5934L50.2528 37.1891C49.9418 37.0671 49.685 37.0062 49.4829 37.0062C48.8843 37.0062 48.5856 37.406 48.5856 38.2057C48.5856 38.5961 48.6601 38.8899 48.8092 39.0863C48.9577 39.2821 49.1767 39.3806 49.4649 39.3806C49.7916 39.3806 50.1014 39.2991 50.3931 39.1349V39.7804C50.2621 39.8584 50.1212 39.9135 49.9727 39.9475C49.8236 39.9815 49.6425 39.9979 49.43 39.9979Z"
          fill="white"/>
    <path fill-rule="evenodd" clip-rule="evenodd"
          d="M54.2501 39.9349H53.5117V37.7938C53.5117 37.5247 53.4581 37.3242 53.3504 37.1917C53.2432 37.0598 53.0732 36.9936 52.8391 36.9936C52.5305 36.9936 52.304 37.0868 52.159 37.2726C52.014 37.4579 51.9412 37.7698 51.9412 38.206V39.9349H51.2063V35.0354H51.9412V36.2789C51.9412 36.4782 51.929 36.6916 51.9039 36.9179H51.9511C52.0512 36.7497 52.1904 36.6201 52.3686 36.5275C52.5468 36.4348 52.7547 36.3891 52.9923 36.3891C53.8302 36.3891 54.2501 36.8142 54.2501 37.6643V39.9349Z"
          fill="white"/>
    <path fill-rule="evenodd" clip-rule="evenodd"
          d="M58.316 39.9349H57.5776V37.7938C57.5776 37.5247 57.524 37.3242 57.4163 37.1917C57.3092 37.0598 57.1391 36.9936 56.905 36.9936C56.5964 36.9936 56.3699 37.0868 56.2249 37.2726C56.0799 37.4579 56.0071 37.7698 56.0071 38.206V39.9349H55.2722V35.0354H56.0071V36.2789C56.0071 36.4782 55.9949 36.6916 55.9698 36.9179H56.017C56.1172 36.7497 56.2563 36.6201 56.4345 36.5275C56.6127 36.4348 56.8206 36.3891 57.0582 36.3891C57.8961 36.3891 58.316 36.8142 58.316 37.6643V39.9349Z"
          fill="white"/>
    <path fill-rule="evenodd" clip-rule="evenodd"
          d="M60.4081 39.4311C60.6748 39.4311 60.8891 39.3561 61.051 39.206C61.2123 39.0553 61.2938 38.8454 61.2938 38.5746V38.2721L60.8489 38.2914C60.503 38.3037 60.2509 38.3623 60.0937 38.4661C59.9359 38.5699 59.8578 38.7288 59.8578 38.9428C59.8578 39.0987 59.9038 39.2189 59.9953 39.3033C60.0867 39.3889 60.2247 39.4311 60.4081 39.4311ZM61.5028 39.9347L61.3561 39.4499H61.331C61.1639 39.6621 60.9962 39.8063 60.8273 39.8831C60.6584 39.9594 60.4418 39.998 60.1769 39.998C59.8368 39.998 59.5713 39.906 59.3803 39.7207C59.1899 39.5361 59.0944 39.2746 59.0944 38.9363C59.0944 38.5775 59.2271 38.3066 59.4921 38.1243C59.7564 37.9414 60.16 37.8417 60.7021 37.8253L61.299 37.8066V37.6201C61.299 37.3979 61.2477 37.2314 61.1447 37.1218C61.0416 37.011 60.8809 36.9559 60.6643 36.9559C60.4872 36.9559 60.3178 36.9823 60.1547 37.0344C59.9923 37.0872 59.8356 37.1488 59.6854 37.2203L59.4478 36.6915C59.6353 36.5924 59.8409 36.5173 60.0639 36.4663C60.2869 36.4147 60.4977 36.3895 60.6957 36.3895C61.1359 36.3895 61.4679 36.4857 61.692 36.6791C61.9162 36.872 62.028 37.1751 62.028 37.5885V39.9347H61.5028Z"
          fill="white"/>
    <path fill-rule="evenodd" clip-rule="evenodd" d="M63.0536 39.9351H63.7885V35.0356H63.0536V39.9351Z"
          fill="white"/>
    <path fill-rule="evenodd" clip-rule="evenodd"
          d="M66.1283 39.3996C66.3076 39.3996 66.487 39.3715 66.6663 39.314V39.8722C66.5848 39.9073 66.48 39.9378 66.3519 39.9619C66.2238 39.9859 66.091 39.9982 65.953 39.9982C65.2565 39.9982 64.9083 39.6289 64.9083 38.8896V37.0129H64.436V36.6852L64.9432 36.4143L65.1936 35.6774H65.6467V36.4524H66.632V37.0129H65.6467V38.8767C65.6467 39.0549 65.6909 39.1874 65.7794 39.2718C65.8685 39.3574 65.9844 39.3996 66.1283 39.3996Z"
          fill="white"/>
    <path fill-rule="evenodd" clip-rule="evenodd"
          d="M67.3576 39.9351H68.0925V36.4526H67.3576V39.9351ZM67.314 35.5292C67.314 35.3967 67.3501 35.2953 67.4223 35.2244C67.4939 35.1522 67.5964 35.1171 67.7298 35.1171C67.8596 35.1171 67.9598 35.1522 68.032 35.2244C68.1042 35.2953 68.1397 35.3967 68.1397 35.5292C68.1397 35.6553 68.1042 35.7549 68.032 35.827C67.9598 35.8997 67.8596 35.9355 67.7298 35.9355C67.5964 35.9355 67.4939 35.8997 67.4223 35.827C67.3501 35.7549 67.314 35.6553 67.314 35.5292Z"
          fill="white"/>
    <path fill-rule="evenodd" clip-rule="evenodd"
          d="M69.6625 37.5795C69.6625 37.7976 69.7184 37.9653 69.8296 38.0832C69.9414 38.201 70.1016 38.2596 70.3101 38.2596C70.7357 38.2596 70.9483 38.031 70.9483 37.5731C70.9483 37.3468 70.8953 37.1721 70.7905 37.049C70.6851 36.9264 70.5243 36.8643 70.3101 36.8643C70.0975 36.8643 69.9362 36.9258 69.8267 37.0472C69.7173 37.1692 69.6625 37.3468 69.6625 37.5795ZM69.3469 40.4763C69.3469 40.6364 69.418 40.7589 69.5606 40.8451C69.7033 40.9313 69.9042 40.9741 70.1628 40.9741C70.5634 40.9741 70.8615 40.916 71.0578 40.8005C71.2534 40.6856 71.3513 40.532 71.3513 40.3415C71.3513 40.1902 71.2983 40.0829 71.1905 40.0185C71.0828 39.9545 70.8837 39.9223 70.5913 39.9223H70.0352C69.8238 39.9223 69.6567 39.9721 69.5327 40.0718C69.4087 40.1715 69.3469 40.3063 69.3469 40.4763ZM72.0645 36.4521V36.8584L71.4735 36.9686C71.5276 37.0419 71.5725 37.1322 71.608 37.2395C71.6429 37.3468 71.6616 37.4599 71.6616 37.5795C71.6616 37.9383 71.5381 38.2209 71.2918 38.4261C71.0461 38.6325 70.7072 38.7351 70.2757 38.7351C70.165 38.7351 70.0649 38.7269 69.9752 38.7099C69.8168 38.809 69.7376 38.9239 69.7376 39.0564C69.7376 39.1361 69.7743 39.1959 69.8483 39.2358C69.9222 39.2756 70.0591 39.2956 70.257 39.2956H70.8609C71.2417 39.2956 71.5317 39.3771 71.7297 39.5412C71.9283 39.7048 72.0273 39.9411 72.0273 40.25C72.0273 40.6446 71.8654 40.9489 71.5422 41.1628C71.219 41.3774 70.752 41.4841 70.1406 41.4841C69.6701 41.4841 69.3102 41.4003 69.0621 41.232C68.8141 41.0644 68.6895 40.8252 68.6895 40.5144C68.6895 40.3004 68.757 40.1205 68.8915 39.9745C69.026 39.8285 69.2141 39.7271 69.4564 39.6702C69.3585 39.6286 69.2776 39.5606 69.2135 39.4673C69.1501 39.3741 69.118 39.2756 69.118 39.173C69.118 39.0423 69.1547 38.9327 69.2275 38.8418C69.3009 38.7521 69.4092 38.663 69.553 38.5744C69.3737 38.4965 69.2281 38.3704 69.1169 38.1951C69.0051 38.0198 68.9492 37.8141 68.9492 37.5795C68.9492 37.2014 69.068 36.9083 69.3044 36.7007C69.5408 36.4926 69.878 36.3894 70.3158 36.3894C70.4143 36.3894 70.5167 36.3959 70.6239 36.4099C70.7316 36.4228 70.8126 36.4375 70.8661 36.4521H72.0645Z"
          fill="white"/>
    <path fill-rule="evenodd" clip-rule="evenodd"
          d="M74.0823 36.9498C73.8488 36.9498 73.6613 37.0242 73.5209 37.1731C73.38 37.3226 73.2962 37.5396 73.2694 37.8251H74.8393C74.8352 37.5372 74.7665 37.3197 74.6326 37.172C74.4992 37.0236 74.3158 36.9498 74.0823 36.9498ZM74.2162 39.9978C73.6787 39.9978 73.2583 39.8401 72.9543 39.5241C72.6515 39.2081 72.4995 38.7725 72.4995 38.2185C72.4995 37.6498 72.6399 37.203 72.9223 36.8771C73.2029 36.5517 73.5902 36.3893 74.0822 36.3893C74.5388 36.3893 74.8992 36.5288 75.1642 36.8079C75.4291 37.0869 75.5619 37.4715 75.5619 37.9605V38.3603H73.2565C73.267 38.698 73.3578 38.9583 73.5285 39.1395C73.6996 39.3212 73.9407 39.4121 74.2511 39.4121C74.4555 39.4121 74.6459 39.3928 74.8223 39.3541C74.9982 39.3148 75.1869 39.2503 75.3895 39.1606V39.7621C75.2102 39.8477 75.0291 39.9087 74.8456 39.9439C74.6616 39.9802 74.4526 39.9978 74.2162 39.9978Z"
          fill="white"/>
    <path fill-rule="evenodd" clip-rule="evenodd"
          d="M2.78696 45.6294L2.35897 44.376C2.32694 44.2921 2.28385 44.1596 2.22911 43.9796C2.17321 43.7985 2.13536 43.666 2.11439 43.5827C2.05849 43.8407 1.97522 44.1233 1.86749 44.4293L1.45464 45.6294H2.78696ZM3.44031 47.5565L2.98436 46.2778H1.23567L0.787871 47.5565H0L1.71084 42.9337H2.52433L4.23517 47.5565H3.44031Z"
          fill="white"/>
    <path fill-rule="evenodd" clip-rule="evenodd"
          d="M5.27937 45.2011C5.27937 45.4192 5.33528 45.5869 5.4465 45.7047C5.55831 45.8226 5.71845 45.8812 5.92692 45.8812C6.3526 45.8812 6.56515 45.6525 6.56515 45.1947C6.56515 44.9684 6.51216 44.7937 6.40734 44.6705C6.30194 44.548 6.14121 44.4859 5.92692 44.4859C5.71437 44.4859 5.55365 44.5474 5.44417 44.6688C5.33411 44.7907 5.27937 44.9684 5.27937 45.2011ZM4.96379 48.0979C4.96379 48.2574 5.03483 48.3805 5.17808 48.4661C5.32075 48.5528 5.52165 48.5956 5.77962 48.5956C6.18025 48.5956 6.47898 48.5376 6.67464 48.4221C6.8703 48.3072 6.96813 48.1536 6.96813 47.9625C6.96813 47.8112 6.91514 47.7039 6.80799 47.64C6.69968 47.5761 6.50111 47.5439 6.20879 47.5439H5.65209C5.44071 47.5439 5.27358 47.5937 5.14955 47.6934C5.02552 47.793 4.96379 47.9279 4.96379 48.0979ZM7.68142 44.0737V44.48L7.08978 44.5902C7.14452 44.6635 7.18994 44.7538 7.22546 44.8611C7.2604 44.9684 7.27904 45.0815 7.27904 45.2011C7.27904 45.5599 7.155 45.8425 6.90927 46.0477C6.66353 46.2541 6.32462 46.3567 5.89254 46.3567C5.7819 46.3567 5.68174 46.3485 5.59206 46.3315C5.43425 46.4305 5.35448 46.5455 5.35448 46.6779C5.35448 46.7577 5.39174 46.8175 5.4657 46.8573C5.53965 46.8972 5.67592 46.9171 5.8739 46.9171H6.47777C6.85919 46.9171 7.14918 46.9986 7.34717 47.1628C7.54516 47.3264 7.64415 47.5626 7.64415 47.8716C7.64415 48.2662 7.48227 48.5704 7.15966 48.7844C6.83648 48.999 6.36887 49.1057 5.75802 49.1057C5.28751 49.1057 4.92764 49.0219 4.67899 48.8536C4.43092 48.6854 4.30688 48.4461 4.30688 48.136C4.30688 47.922 4.37385 47.7414 4.50837 47.5961C4.64347 47.4501 4.83097 47.3486 5.07322 47.2918C4.97539 47.2496 4.89444 47.1821 4.83097 47.0889C4.7675 46.9957 4.73547 46.8972 4.73547 46.7946C4.73547 46.6639 4.77216 46.5542 4.84495 46.4634C4.91774 46.3737 5.02605 46.2846 5.17046 46.196C4.99053 46.1181 4.84553 45.992 4.73372 45.8167C4.62192 45.6414 4.56602 45.4356 4.56602 45.2011C4.56602 44.823 4.68481 44.5298 4.92123 44.3223C5.15823 44.1142 5.4954 44.011 5.9333 44.011C6.03113 44.011 6.1342 44.0174 6.24135 44.0315C6.34849 44.0444 6.42943 44.0591 6.48359 44.0737H7.68142Z"
          fill="white"/>
    <path fill-rule="evenodd" clip-rule="evenodd"
          d="M10.0784 44.0107C10.2263 44.0107 10.348 44.0213 10.4441 44.0424L10.3719 44.7313C10.2677 44.7066 10.1594 44.6938 10.0464 44.6938C9.75291 44.6938 9.51475 44.7905 9.3319 44.9834C9.14964 45.1768 9.05763 45.4278 9.05763 45.7361V47.5565H8.32275V44.0735H8.89866L8.99532 44.6873H9.03259C9.14731 44.4798 9.29754 44.315 9.48272 44.1937C9.66673 44.0717 9.86588 44.0107 10.0784 44.0107Z"
          fill="white"/>
    <path fill-rule="evenodd" clip-rule="evenodd"
          d="M12.1546 47.0527C12.4213 47.0527 12.6356 46.9777 12.7975 46.8276C12.9588 46.6769 13.0403 46.467 13.0403 46.1962V45.8936L12.5954 45.913C12.2495 45.9253 11.9973 45.9839 11.8401 46.0877C11.6823 46.1915 11.6043 46.3503 11.6043 46.5643C11.6043 46.7203 11.6503 46.8405 11.7417 46.9249C11.8331 47.0105 11.9711 47.0527 12.1546 47.0527ZM13.2493 47.5563L13.1025 47.0715H13.0775C12.9104 47.2837 12.7427 47.4279 12.5738 47.5047C12.4049 47.5809 12.1883 47.6196 11.9233 47.6196C11.5833 47.6196 11.3177 47.527 11.1267 47.3423C10.9363 47.1576 10.8408 46.8962 10.8408 46.5579C10.8408 46.1991 10.9736 45.9282 11.2385 45.7459C11.5029 45.563 11.9065 45.4633 12.4486 45.4469L13.0455 45.4281V45.2417C13.0455 45.0195 12.9942 44.853 12.8912 44.7434C12.7881 44.6326 12.6274 44.5774 12.4107 44.5774C12.2337 44.5774 12.0643 44.6038 11.9012 44.656C11.7388 44.7088 11.5821 44.7703 11.4319 44.8419L11.1943 44.313C11.3818 44.214 11.5873 44.1389 11.8104 44.0879C12.0334 44.0363 12.2442 44.0111 12.4422 44.0111C12.8824 44.0111 13.2143 44.1073 13.4385 44.3007C13.6627 44.4936 13.7745 44.7967 13.7745 45.21V47.5563H13.2493Z"
          fill="white"/>
    <path fill-rule="evenodd" clip-rule="evenodd"
          d="M16.5554 44.0107C16.7033 44.0107 16.825 44.0213 16.9211 44.0424L16.8489 44.7313C16.7447 44.7066 16.6363 44.6938 16.5234 44.6938C16.2299 44.6938 15.9917 44.7905 15.8095 44.9834C15.6266 45.1768 15.5352 45.4278 15.5352 45.7361V47.5565H14.8003V44.0735H15.3762L15.4729 44.6873H15.5101C15.6249 44.4798 15.7745 44.315 15.9597 44.1937C16.1437 44.0717 16.3429 44.0107 16.5554 44.0107Z"
          fill="white"/>
    <path fill-rule="evenodd" clip-rule="evenodd" d="M17.5615 47.5567H18.2964V42.6572H17.5615V47.5567Z"
          fill="white"/>
    <path fill-rule="evenodd" clip-rule="evenodd"
          d="M19.3481 47.5567H20.083V44.0742H19.3481V47.5567ZM19.3044 43.1508C19.3044 43.0183 19.34 42.9169 19.4122 42.8459C19.4838 42.7738 19.5869 42.7386 19.7202 42.7386C19.8495 42.7386 19.9502 42.7738 20.0218 42.8459C20.0941 42.9169 20.1302 43.0183 20.1302 43.1508C20.1302 43.2768 20.0941 43.3765 20.0218 43.4486C19.9502 43.5213 19.8495 43.5571 19.7202 43.5571C19.5869 43.5571 19.4838 43.5213 19.4122 43.4486C19.34 43.3765 19.3044 43.2768 19.3044 43.1508Z"
          fill="white"/>
    <path fill-rule="evenodd" clip-rule="evenodd"
          d="M22.5105 44.5713C22.277 44.5713 22.0894 44.6458 21.9491 44.7947C21.8082 44.9442 21.7243 45.1611 21.6975 45.4466H23.2675C23.2634 45.1588 23.1947 44.9413 23.0607 44.7935C22.9274 44.6452 22.744 44.5713 22.5105 44.5713ZM22.6444 47.6194C22.1069 47.6194 21.6865 47.4617 21.3825 47.1457C21.0797 46.8297 20.9277 46.3941 20.9277 45.84C20.9277 45.2714 21.0681 44.8246 21.3505 44.4986C21.6312 44.1733 22.0184 44.0109 22.5105 44.0109C22.967 44.0109 23.3274 44.1504 23.5924 44.4295C23.8573 44.7085 23.9901 45.0931 23.9901 45.5821V45.9819H21.6847C21.6952 46.3196 21.7861 46.5799 21.9567 46.7611C22.1279 46.9428 22.3689 47.0337 22.6793 47.0337C22.8837 47.0337 23.0741 47.0143 23.2506 46.9757C23.4264 46.9364 23.6151 46.8719 23.8177 46.7822V47.3831C23.6384 47.4693 23.4573 47.5303 23.2739 47.5654C23.0898 47.6018 22.8808 47.6194 22.6444 47.6194Z"
          fill="white"/>
    <path fill-rule="evenodd" clip-rule="evenodd"
          d="M26.5606 44.6343H25.7168V47.5563H24.9784V44.6343H24.4089V44.2878L24.9784 44.0609V43.8346C24.9784 43.423 25.0739 43.1182 25.2661 42.9194C25.4577 42.7212 25.7506 42.6216 26.1448 42.6216C26.4034 42.6216 26.6578 42.665 26.9082 42.7511L26.7143 43.3116C26.5326 43.253 26.3597 43.2237 26.1949 43.2237C26.0283 43.2237 25.9066 43.2759 25.8304 43.379C25.7541 43.4834 25.7168 43.6394 25.7168 43.8469V44.0738H26.5606V44.6343Z"
          fill="white"/>
    <path fill-rule="evenodd" clip-rule="evenodd"
          d="M28.5246 44.5713C28.2911 44.5713 28.1036 44.6458 27.9633 44.7947C27.8223 44.9442 27.7385 45.1611 27.7117 45.4466H29.2816C29.2775 45.1588 29.2088 44.9413 29.0749 44.7935C28.9416 44.6452 28.7581 44.5713 28.5246 44.5713ZM28.6586 47.6194C28.1211 47.6194 27.7006 47.4617 27.3967 47.1457C27.0939 46.8297 26.9419 46.3941 26.9419 45.84C26.9419 45.2714 27.0822 44.8246 27.3647 44.4986C27.6453 44.1733 28.0326 44.0109 28.5246 44.0109C28.9812 44.0109 29.3416 44.1504 29.6066 44.4295C29.8715 44.7085 30.0043 45.0931 30.0043 45.5821V45.9819H27.6989C27.7094 46.3196 27.8002 46.5799 27.9708 46.7611C28.142 46.9428 28.3831 47.0337 28.6935 47.0337C28.8979 47.0337 29.0883 47.0143 29.2647 46.9757C29.4406 46.9364 29.6293 46.8719 29.8319 46.7822V47.3831C29.6526 47.4693 29.4715 47.5303 29.288 47.5654C29.104 47.6018 28.895 47.6194 28.6586 47.6194Z"
          fill="white"/>
    <path fill-rule="evenodd" clip-rule="evenodd"
          d="M32.5941 44.0107C32.742 44.0107 32.8637 44.0213 32.9598 44.0424L32.8876 44.7313C32.7833 44.7066 32.675 44.6938 32.5621 44.6938C32.2686 44.6938 32.0304 44.7905 31.8481 44.9834C31.6653 45.1768 31.5739 45.4278 31.5739 45.7361V47.5565H30.839V44.0735H31.4149L31.5116 44.6873H31.5488C31.6636 44.4798 31.8132 44.315 31.9984 44.1937C32.1824 44.0717 32.3815 44.0107 32.5941 44.0107Z"
          fill="white"/>
    <path fill-rule="evenodd" clip-rule="evenodd"
          d="M34.3104 45.7174L34.7268 45.1945L35.7715 44.0735H36.6193L35.227 45.5691L36.7066 47.5566H35.8437L34.7332 46.0287L34.3296 46.3629V47.5566H33.6006V42.6565H34.3296V45.0461L34.2924 45.7174H34.3104Z"
          fill="white"/>
    <path fill-rule="evenodd" clip-rule="evenodd"
          d="M38.6397 44.5713C38.4062 44.5713 38.2187 44.6458 38.0783 44.7947C37.9374 44.9442 37.8536 45.1611 37.8268 45.4466H39.3967C39.3926 45.1588 39.3239 44.9413 39.19 44.7935C39.0566 44.6452 38.8732 44.5713 38.6397 44.5713ZM38.7735 47.6194C38.2361 47.6194 37.8156 47.4617 37.5117 47.1457C37.2089 46.8297 37.0569 46.3941 37.0569 45.84C37.0569 45.2714 37.1972 44.8246 37.4796 44.4986C37.7603 44.1733 38.1476 44.0109 38.6396 44.0109C39.0962 44.0109 39.4566 44.1504 39.7216 44.4295C39.9865 44.7085 40.1193 45.0931 40.1193 45.5821V45.9819H37.8139C37.8244 46.3196 37.9152 46.5799 38.0858 46.7611C38.257 46.9428 38.4981 47.0337 38.8085 47.0337C39.0129 47.0337 39.2033 47.0143 39.3797 46.9757C39.5556 46.9364 39.7443 46.8719 39.9469 46.7822V47.3831C39.7676 47.4693 39.5865 47.5303 39.403 47.5654C39.219 47.6018 39.01 47.6194 38.7735 47.6194Z"
          fill="white"/>
    <path fill-rule="evenodd" clip-rule="evenodd"
          d="M42.2427 47.0212C42.4221 47.0212 42.6015 46.9925 42.7808 46.9356V47.4937C42.6993 47.5289 42.5945 47.5588 42.4664 47.5834C42.3382 47.6075 42.2055 47.6198 42.0675 47.6198C41.371 47.6198 41.0228 47.2499 41.0228 46.5111V44.6345H40.5505V44.3068L41.0577 44.0359L41.3081 43.299H41.7612V44.074H42.7465V44.6345H41.7612V46.4982C41.7612 46.6765 41.8054 46.809 41.8939 46.8934C41.983 46.979 42.0989 47.0212 42.2427 47.0212Z"
          fill="white"/>
    <path fill-rule="evenodd" clip-rule="evenodd"
          d="M44.7601 47.0212C44.9394 47.0212 45.1188 46.9925 45.2981 46.9356V47.4937C45.2166 47.5289 45.1118 47.5588 44.9837 47.5834C44.8556 47.6075 44.7228 47.6198 44.5848 47.6198C43.8884 47.6198 43.5401 47.2499 43.5401 46.5111V44.6345H43.0679V44.3068L43.5751 44.0359L43.8255 43.299H44.2785V44.074H45.2638V44.6345H44.2785V46.4982C44.2785 46.6765 44.3228 46.809 44.4113 46.8934C44.5004 46.979 44.6163 47.0212 44.7601 47.0212Z"
          fill="white"/>
    <path fill-rule="evenodd" clip-rule="evenodd"
          d="M47.3658 44.5713C47.1323 44.5713 46.9448 44.6458 46.8045 44.7947C46.6635 44.9442 46.5797 45.1611 46.5529 45.4466H48.1228C48.1187 45.1588 48.05 44.9413 47.9161 44.7935C47.7828 44.6452 47.5993 44.5713 47.3658 44.5713ZM47.4997 47.6194C46.9623 47.6194 46.5418 47.4617 46.2379 47.1457C45.9351 46.8297 45.7831 46.3941 45.7831 45.84C45.7831 45.2714 45.9234 44.8246 46.2058 44.4986C46.4865 44.1733 46.8737 44.0109 47.3658 44.0109C47.8223 44.0109 48.1828 44.1504 48.4477 44.4295C48.7127 44.7085 48.8455 45.0931 48.8455 45.5821V45.9819H46.5401C46.5506 46.3196 46.6414 46.5799 46.812 46.7611C46.9832 46.9428 47.2243 47.0337 47.5347 47.0337C47.7391 47.0337 47.9295 47.0143 48.1059 46.9757C48.2818 46.9364 48.4704 46.8719 48.6731 46.7822V47.3831C48.4937 47.4693 48.3126 47.5303 48.1292 47.5654C47.9452 47.6018 47.7362 47.6194 47.4997 47.6194Z"
          fill="white"/>
    <path fill-rule="evenodd" clip-rule="evenodd"
          d="M52.7237 47.5565H51.9853V45.4155C51.9853 45.1464 51.9317 44.9458 51.824 44.8134C51.7169 44.6814 51.5468 44.6152 51.3127 44.6152C51.0024 44.6152 50.7747 44.7078 50.6309 44.8925C50.487 45.0772 50.4148 45.3867 50.4148 45.8212V47.5565H49.6799V44.0741H50.2558L50.3589 44.5302H50.3968C50.501 44.3649 50.6489 44.2365 50.8405 44.1462C51.0326 44.0559 51.2452 44.0107 51.4781 44.0107C52.3085 44.0107 52.7237 44.4358 52.7237 45.2859V47.5565Z"
          fill="white"/>
</svg>
