<svg width="130" height="30" viewBox="0 0 684 154" fill="none" xmlns="http://www.w3.org/2000/svg">
    <mask id="mask0" mask-type="alpha" maskUnits="userSpaceOnUse" x="0" y="0" width="684" height="154">
        <path fill-rule="evenodd" clip-rule="evenodd" d="M0 154H683.086V0H0V154Z" fill="white"/>
    </mask>
    <g mask="url(#mask0)">
        <path fill-rule="evenodd" clip-rule="evenodd" d="M344.103 107.749H340.529V97.4562C340.529 96.1626 340.27 95.1987 339.749 94.5618C339.23 93.9276 338.407 93.6091 337.274 93.6091C335.769 93.6091 334.67 94.0544 333.974 94.9422C333.278 95.83 332.928 97.3181 332.928 99.4066V107.749H329.371V91.0078H332.159L332.657 93.2005H332.841C333.345 92.4057 334.061 91.7885 334.988 91.3544C335.918 90.9204 336.947 90.7034 338.074 90.7034C342.093 90.7034 344.103 92.7467 344.103 96.8334V107.749Z" fill="white"/>
        <path fill-rule="evenodd" clip-rule="evenodd" d="M320.291 107.75H323.907V85.6171H320.291V107.75Z" fill="white"/>
        <path fill-rule="evenodd" clip-rule="evenodd" d="M349.05 107.75H352.607V91.0088H349.05V107.75ZM348.839 86.5699C348.839 85.9329 349.013 85.4453 349.363 85.1043C349.709 84.7576 350.208 84.5885 350.851 84.5885C351.479 84.5885 351.964 84.7576 352.311 85.1043C352.663 85.4453 352.832 85.9329 352.832 86.5699C352.832 87.1758 352.663 87.6549 352.311 88.0016C351.964 88.3511 351.479 88.523 350.851 88.523C350.208 88.523 349.709 88.3511 349.363 88.0016C349.013 87.6549 348.839 87.1758 348.839 86.5699Z" fill="white"/>
        <path fill-rule="evenodd" clip-rule="evenodd" d="M363.934 105.176C364.802 105.176 365.67 105.041 366.538 104.764V107.447C366.143 107.617 365.636 107.763 365.016 107.879C364.396 107.994 363.753 108.053 363.085 108.053C359.715 108.053 358.029 106.278 358.029 102.724V93.7021H355.741V92.1266L358.196 90.8245L359.407 87.2818H361.603V91.0077H366.372V93.7021H361.603V102.662C361.603 103.519 361.817 104.156 362.246 104.561C362.677 104.973 363.238 105.176 363.934 105.176Z" fill="white"/>
        <path fill-rule="evenodd" clip-rule="evenodd" d="M369.884 107.75H373.44V91.0088H369.884V107.75ZM369.672 86.5699C369.672 85.9329 369.847 85.4453 370.197 85.1043C370.543 84.7576 371.039 84.5885 371.685 84.5885C372.313 84.5885 372.798 84.7576 373.145 85.1043C373.497 85.4453 373.669 85.9329 373.669 86.5699C373.669 87.1758 373.497 87.6549 373.145 88.0016C372.798 88.3511 372.313 88.523 371.685 88.523C371.039 88.523 370.543 88.3511 370.197 88.0016C369.847 87.6549 369.672 87.1758 369.672 86.5699Z" fill="white"/>
        <path fill-rule="evenodd" clip-rule="evenodd" d="M383.704 105.327C384.995 105.327 386.032 104.966 386.815 104.245C387.596 103.521 387.991 102.512 387.991 101.209V99.7552L385.837 99.8482C384.163 99.9074 382.943 100.189 382.182 100.688C381.418 101.187 381.041 101.951 381.041 102.979C381.041 103.729 381.263 104.307 381.706 104.713C382.148 105.124 382.816 105.327 383.704 105.327ZM389.002 107.748L388.292 105.417H388.171C387.362 106.438 386.55 107.131 385.733 107.5C384.916 107.867 383.867 108.053 382.585 108.053C380.939 108.053 379.654 107.61 378.729 106.719C377.808 105.832 377.345 104.575 377.345 102.948C377.345 101.224 377.988 99.9215 379.27 99.045C380.55 98.1656 382.503 97.6865 385.127 97.6076L388.016 97.5174V96.6211C388.016 95.553 387.768 94.7525 387.269 94.2255C386.77 93.6928 385.992 93.4279 384.944 93.4279C384.087 93.4279 383.267 93.5547 382.478 93.8056C381.691 94.0592 380.933 94.3551 380.206 94.699L379.056 92.1568C379.964 91.6805 380.959 91.3197 382.038 91.0745C383.118 90.8265 384.138 90.7053 385.096 90.7053C387.227 90.7053 388.833 91.1675 389.918 92.0976C391.003 93.0249 391.545 94.482 391.545 96.4689V107.748H389.002Z" fill="white"/>
        <path fill-rule="evenodd" clip-rule="evenodd" d="M402.747 105.176C403.615 105.176 404.483 105.041 405.351 104.764V107.447C404.957 107.617 404.449 107.763 403.829 107.879C403.209 107.994 402.567 108.053 401.899 108.053C398.528 108.053 396.843 106.278 396.843 102.724V93.7021H394.557V92.1266L397.012 90.8245L398.224 87.2818H400.416V91.0077H405.185V93.7021H400.416V102.662C400.416 103.519 400.631 104.156 401.059 104.561C401.49 104.973 402.051 105.176 402.747 105.176Z" fill="white"/>
        <path fill-rule="evenodd" clip-rule="evenodd" d="M408.696 107.75H412.253V91.0088H408.696V107.75ZM408.487 86.5699C408.487 85.9329 408.659 85.4453 409.009 85.1043C409.355 84.7576 409.854 84.5885 410.497 84.5885C411.125 84.5885 411.613 84.7576 411.959 85.1043C412.309 85.4453 412.484 85.9329 412.484 86.5699C412.484 87.1758 412.309 87.6549 411.959 88.0016C411.613 88.3511 411.125 88.523 410.497 88.523C409.854 88.523 409.355 88.3511 409.009 88.0016C408.659 87.6549 408.487 87.1758 408.487 86.5699Z" fill="white"/>
        <path fill-rule="evenodd" clip-rule="evenodd" d="M421.155 107.749L414.797 91.008H418.551L421.958 100.74C422.542 102.375 422.894 103.699 423.015 104.705H423.136C423.229 103.978 423.582 102.656 424.199 100.74L427.603 91.008H431.389L424.999 107.749H421.155Z" fill="white"/>
        <path fill-rule="evenodd" clip-rule="evenodd" d="M440.592 93.3986C439.462 93.3986 438.554 93.7565 437.875 94.4724C437.193 95.1911 436.787 96.2339 436.657 97.6064H444.256C444.236 96.2226 443.904 95.177 443.255 94.4667C442.61 93.7537 441.722 93.3986 440.592 93.3986ZM441.24 108.051C438.639 108.051 436.604 107.293 435.133 105.774C433.667 104.255 432.931 102.161 432.931 99.4976C432.931 96.7637 433.611 94.6161 434.978 93.0491C436.336 91.4849 438.21 90.7042 440.592 90.7042C442.801 90.7042 444.546 91.3749 445.828 92.7165C447.111 94.0581 447.753 95.9069 447.753 98.2575V100.18H436.595C436.646 101.803 437.086 103.054 437.912 103.925C438.74 104.799 439.907 105.236 441.409 105.236C442.398 105.236 443.32 105.143 444.174 104.957C445.025 104.768 445.938 104.458 446.919 104.027V106.918C446.051 107.33 445.175 107.623 444.287 107.792C443.396 107.967 442.384 108.051 441.24 108.051Z" fill="white"/>
        <path fill-rule="evenodd" clip-rule="evenodd" d="M468.247 93.7013H464.163V107.748H460.59V93.7013H457.833V92.0356L460.59 90.9449V89.857C460.59 87.8784 461.052 86.4129 461.982 85.4574C462.909 84.5048 464.327 84.0257 466.235 84.0257C467.486 84.0257 468.718 84.2343 469.93 84.6486L468.991 87.3429C468.112 87.0611 467.275 86.9202 466.477 86.9202C465.671 86.9202 465.082 87.171 464.713 87.6671C464.344 88.1687 464.163 88.9184 464.163 89.9161V91.0069H468.247V93.7013Z" fill="white"/>
        <path fill-rule="evenodd" clip-rule="evenodd" d="M479.527 86.5698C479.527 85.9442 479.696 85.4932 480.034 85.217C480.372 84.938 480.781 84.7999 481.265 84.7999C481.801 84.7999 482.229 84.9577 482.554 85.2678C482.875 85.5806 483.038 86.0174 483.038 86.5698C483.038 87.1138 482.872 87.5478 482.537 87.8663C482.204 88.182 481.781 88.3426 481.265 88.3426C480.781 88.3426 480.372 88.1961 480.034 87.903C479.696 87.6098 479.527 87.1673 479.527 86.5698ZM473.577 86.5698C473.577 85.9442 473.743 85.4932 474.082 85.217C474.42 84.938 474.831 84.7999 475.316 84.7999C475.851 84.7999 476.28 84.9577 476.596 85.2678C476.914 85.5806 477.072 86.0174 477.072 86.5698C477.072 87.1053 476.911 87.5337 476.587 87.8579C476.266 88.1792 475.84 88.3426 475.316 88.3426C474.831 88.3426 474.42 88.1961 474.082 87.903C473.743 87.6098 473.577 87.1673 473.577 86.5698ZM482.9 107.75L482.401 105.552H482.218C481.725 106.332 481.02 106.944 480.107 107.387C479.194 107.829 478.154 108.052 476.984 108.052C474.952 108.052 473.439 107.547 472.441 106.538C471.441 105.529 470.942 104.002 470.942 101.95V91.006H474.529V101.33C474.529 102.609 474.792 103.573 475.316 104.216C475.84 104.853 476.663 105.177 477.785 105.177C479.278 105.177 480.375 104.729 481.077 103.835C481.778 102.945 482.131 101.445 482.131 99.3457V91.006H485.702V107.75H482.9Z" fill="white"/>
        <path fill-rule="evenodd" clip-rule="evenodd" d="M499.266 90.7039C499.982 90.7039 500.571 90.7546 501.036 90.8561L500.687 94.1677C500.182 94.0493 499.658 93.9873 499.111 93.9873C497.691 93.9873 496.538 94.4524 495.656 95.3796C494.771 96.3097 494.328 97.516 494.328 98.9984V107.75H490.771V91.0055H493.559L494.027 93.9563H494.207C494.762 92.9586 495.487 92.1666 496.383 91.5832C497.274 90.997 498.237 90.7039 499.266 90.7039Z" fill="white"/>
        <path fill-rule="evenodd" clip-rule="evenodd" d="M526.924 107.749H523.351V97.4565C523.351 96.1628 523.091 95.1989 522.57 94.562C522.051 93.9278 521.228 93.6093 520.095 93.6093C518.593 93.6093 517.491 94.0547 516.795 94.9425C516.099 95.8302 515.749 97.3184 515.749 99.4068V107.749H512.193V91.008H514.98L515.479 93.2007H515.662C516.167 92.4059 516.882 91.7887 517.81 91.3546C518.74 90.9206 519.768 90.7036 520.896 90.7036C524.915 90.7036 526.924 92.7469 526.924 96.8336V107.749Z" fill="white"/>
        <path fill-rule="evenodd" clip-rule="evenodd" d="M537.051 105.327C538.341 105.327 539.379 104.966 540.162 104.245C540.943 103.521 541.337 102.512 541.337 101.209V99.7552L539.184 99.8482C537.51 99.9074 536.29 100.189 535.529 100.688C534.765 101.187 534.387 101.951 534.387 102.979C534.387 103.729 534.61 104.307 535.052 104.713C535.495 105.124 536.163 105.327 537.051 105.327ZM542.349 107.748L541.639 105.417H541.518C540.709 106.438 539.897 107.131 539.08 107.5C538.262 107.867 537.214 108.053 535.932 108.053C534.286 108.053 533 107.61 532.076 106.719C531.154 105.832 530.692 104.575 530.692 102.948C530.692 101.224 531.335 99.9215 532.617 99.045C533.897 98.1656 535.85 97.6865 538.474 97.6076L541.363 97.5174V96.6211C541.363 95.553 541.115 94.7525 540.616 94.2255C540.117 93.6928 539.339 93.4279 538.291 93.4279C537.434 93.4279 536.614 93.5547 535.824 93.8056C535.038 94.0592 534.28 94.3551 533.553 94.699L532.403 92.1568C533.31 91.6805 534.305 91.3197 535.385 91.0745C536.464 90.8265 537.484 90.7053 538.443 90.7053C540.573 90.7053 542.18 91.1675 543.265 92.0976C544.35 93.0249 544.891 94.482 544.891 96.4689V107.748H542.349Z" fill="white"/>
        <path fill-rule="evenodd" clip-rule="evenodd" d="M556.609 108.052C554.078 108.052 552.15 107.311 550.834 105.834C549.515 104.354 548.858 102.235 548.858 99.4671C548.858 96.6515 549.546 94.4898 550.924 92.9735C552.302 91.4601 554.295 90.7047 556.899 90.7047C558.663 90.7047 560.253 91.0317 561.665 91.6855L560.591 94.549C559.086 93.9628 557.843 93.6697 556.865 93.6697C553.968 93.6697 552.522 95.5918 552.522 99.4361C552.522 101.313 552.883 102.725 553.604 103.669C554.323 104.611 555.382 105.084 556.778 105.084C558.359 105.084 559.858 104.692 561.27 103.903V107.006C560.636 107.381 559.954 107.646 559.235 107.81C558.514 107.973 557.637 108.052 556.609 108.052Z" fill="white"/>
        <path fill-rule="evenodd" clip-rule="evenodd" d="M579.938 107.749H576.364V97.4565C576.364 96.1628 576.105 95.199 575.583 94.562C575.065 93.9279 574.242 93.6094 573.109 93.6094C571.615 93.6094 570.518 94.0575 569.817 94.9509C569.115 95.8416 568.763 97.3409 568.763 99.4378V107.749H565.206V84.1959H568.763V90.1738C568.763 91.132 568.703 92.1579 568.582 93.2458H568.811C569.295 92.4369 569.969 91.8141 570.831 91.3688C571.694 90.9235 572.7 90.7036 573.85 90.7036C577.906 90.7036 579.938 92.747 579.938 96.8336V107.749Z" fill="white"/>
        <path fill-rule="evenodd" clip-rule="evenodd" d="M599.617 107.749H596.043V97.4565C596.043 96.1628 595.784 95.199 595.262 94.562C594.744 93.9279 593.921 93.6094 592.788 93.6094C591.294 93.6094 590.198 94.0575 589.496 94.9509C588.794 95.8416 588.442 97.3409 588.442 99.4378V107.749H584.885V84.1959H588.442V90.1738C588.442 91.132 588.383 92.1579 588.261 93.2458H588.49C588.975 92.4369 589.648 91.8141 590.511 91.3688C591.373 90.9235 592.379 90.7036 593.529 90.7036C597.585 90.7036 599.617 92.747 599.617 96.8336V107.749Z" fill="white"/>
        <path fill-rule="evenodd" clip-rule="evenodd" d="M609.742 105.327C611.033 105.327 612.07 104.966 612.854 104.245C613.634 103.521 614.029 102.512 614.029 101.209V99.7552L611.876 99.8482C610.202 99.9074 608.981 100.189 608.22 100.688C607.457 101.187 607.079 101.951 607.079 102.979C607.079 103.729 607.302 104.307 607.744 104.713C608.187 105.124 608.854 105.327 609.742 105.327ZM615.041 107.748L614.33 105.417H614.209C613.4 106.438 612.589 107.131 611.771 107.5C610.954 107.867 609.906 108.053 608.623 108.053C606.977 108.053 605.692 107.61 604.768 106.719C603.846 105.832 603.384 104.575 603.384 102.948C603.384 101.224 604.026 99.9215 605.309 99.045C606.588 98.1656 608.541 97.6865 611.165 97.6076L614.054 97.5174V96.6211C614.054 95.553 613.806 94.7525 613.307 94.2255C612.809 93.6928 612.031 93.4279 610.982 93.4279C610.125 93.4279 609.305 93.5547 608.516 93.8056C607.73 94.0592 606.972 94.3551 606.244 94.699L605.095 92.1568C606.002 91.6805 606.997 91.3197 608.076 91.0745C609.156 90.8265 610.176 90.7053 611.134 90.7053C613.265 90.7053 614.872 91.1675 615.957 92.0976C617.042 93.0249 617.583 94.482 617.583 96.4689V107.748H615.041Z" fill="white"/>
        <path fill-rule="evenodd" clip-rule="evenodd" d="M622.547 107.75H626.104V84.1968H622.547V107.75Z" fill="white"/>
        <path fill-rule="evenodd" clip-rule="evenodd" d="M637.428 105.176C638.296 105.176 639.164 105.041 640.032 104.764V107.447C639.638 107.617 639.131 107.763 638.511 107.879C637.891 107.994 637.248 108.053 636.58 108.053C633.209 108.053 631.524 106.278 631.524 102.724V93.7021H629.238V92.1266L631.693 90.8245L632.905 87.2818H635.097V91.0077H639.866V93.7021H635.097V102.662C635.097 103.519 635.312 104.156 635.74 104.561C636.171 104.973 636.732 105.176 637.428 105.176Z" fill="white"/>
        <path fill-rule="evenodd" clip-rule="evenodd" d="M643.378 107.75H646.935V91.0088H643.378V107.75ZM643.167 86.5699C643.167 85.9329 643.341 85.4453 643.691 85.1043C644.037 84.7576 644.533 84.5885 645.179 84.5885C645.807 84.5885 646.292 84.7576 646.642 85.1043C646.991 85.4453 647.163 85.9329 647.163 86.5699C647.163 87.1758 646.991 87.6549 646.642 88.0016C646.292 88.3511 645.807 88.523 645.179 88.523C644.533 88.523 644.037 88.3511 643.691 88.0016C643.341 87.6549 643.167 87.1758 643.167 86.5699Z" fill="white"/>
        <path fill-rule="evenodd" clip-rule="evenodd" d="M654.534 96.4261C654.534 97.4745 654.805 98.2806 655.343 98.8471C655.884 99.4136 656.659 99.6954 657.668 99.6954C659.728 99.6954 660.757 98.5962 660.757 96.3951C660.757 95.3072 660.501 94.4673 659.993 93.8754C659.483 93.2864 658.705 92.9876 657.668 92.9876C656.639 92.9876 655.859 93.2836 655.329 93.867C654.799 94.4532 654.534 95.3072 654.534 96.4261ZM653.007 110.352C653.007 111.121 653.35 111.71 654.041 112.125C654.731 112.539 655.704 112.745 656.955 112.745C658.894 112.745 660.337 112.466 661.287 111.91C662.234 111.358 662.707 110.62 662.707 109.704C662.707 108.976 662.451 108.461 661.93 108.151C661.408 107.843 660.444 107.688 659.029 107.688H656.338C655.315 107.688 654.506 107.928 653.906 108.407C653.305 108.886 653.007 109.534 653.007 110.352ZM666.16 91.0063V92.9594L663.299 93.4893C663.561 93.8416 663.778 94.2756 663.95 94.7914C664.119 95.3072 664.21 95.8511 664.21 96.4261C664.21 98.1509 663.612 99.5094 662.42 100.496C661.231 101.488 659.59 101.981 657.502 101.981C656.966 101.981 656.482 101.942 656.047 101.86C655.281 102.336 654.898 102.889 654.898 103.526C654.898 103.909 655.075 104.196 655.433 104.388C655.791 104.58 656.453 104.676 657.412 104.676H660.334C662.177 104.676 663.581 105.067 664.539 105.856C665.5 106.643 665.98 107.779 665.98 109.264C665.98 111.161 665.196 112.623 663.632 113.652C662.068 114.684 659.807 115.197 656.848 115.197C654.571 115.197 652.829 114.794 651.628 113.985C650.428 113.179 649.824 112.029 649.824 110.535C649.824 109.506 650.151 108.641 650.802 107.939C651.453 107.237 652.364 106.75 653.536 106.476C653.063 106.276 652.671 105.949 652.361 105.501C652.054 105.053 651.899 104.58 651.899 104.086C651.899 103.458 652.076 102.931 652.429 102.494C652.784 102.063 653.308 101.634 654.004 101.209C653.136 100.834 652.431 100.228 651.893 99.3854C651.352 98.5427 651.081 97.5534 651.081 96.4261C651.081 94.6082 651.656 93.199 652.801 92.2013C653.945 91.2008 655.577 90.7047 657.696 90.7047C658.173 90.7047 658.669 90.7357 659.187 90.8034C659.709 90.8654 660.1 90.9358 660.36 91.0063H666.16Z" fill="white"/>
        <path fill-rule="evenodd" clip-rule="evenodd" d="M675.925 93.3986C674.795 93.3986 673.888 93.7565 673.208 94.4724C672.526 95.1911 672.12 96.2339 671.991 97.6064H679.589C679.569 96.2226 679.237 95.177 678.589 94.4667C677.943 93.7537 677.055 93.3986 675.925 93.3986ZM676.573 108.051C673.972 108.051 671.937 107.293 670.466 105.774C669 104.255 668.265 102.161 668.265 99.4976C668.265 96.7637 668.944 94.6161 670.311 93.0491C671.669 91.4849 673.544 90.7042 675.925 90.7042C678.135 90.7042 679.879 91.3749 681.162 92.7165C682.444 94.0581 683.087 95.9069 683.087 98.2575V100.18H671.929C671.979 101.803 672.419 103.054 673.245 103.925C674.073 104.799 675.24 105.236 676.743 105.236C677.732 105.236 678.653 105.143 679.507 104.957C680.359 104.768 681.272 104.458 682.252 104.027V106.918C681.384 107.33 680.508 107.623 679.62 107.792C678.729 107.967 677.718 108.051 676.573 108.051Z" fill="white"/>
        <path fill-rule="evenodd" clip-rule="evenodd" d="M330.856 135.124L328.785 129.098C328.63 128.695 328.421 128.058 328.156 127.193C327.886 126.322 327.702 125.685 327.601 125.285C327.33 126.525 326.927 127.884 326.406 129.355L324.408 135.124H330.856ZM334.018 144.388L331.811 138.241H323.348L321.18 144.388H317.367L325.648 122.165H329.585L337.865 144.388H334.018Z" fill="white"/>
        <path fill-rule="evenodd" clip-rule="evenodd" d="M342.92 133.065C342.92 134.114 343.19 134.92 343.729 135.486C344.27 136.053 345.045 136.335 346.054 136.335C348.114 136.335 349.143 135.235 349.143 133.034C349.143 131.946 348.886 131.106 348.379 130.515C347.869 129.926 347.091 129.627 346.054 129.627C345.025 129.627 344.247 129.923 343.718 130.506C343.185 131.092 342.92 131.946 342.92 133.065ZM341.392 146.991C341.392 147.758 341.736 148.349 342.43 148.761C343.12 149.178 344.092 149.384 345.341 149.384C347.28 149.384 348.726 149.105 349.673 148.55C350.62 147.997 351.093 147.259 351.093 146.34C351.093 145.613 350.837 145.097 350.318 144.79C349.794 144.483 348.833 144.328 347.418 144.328H344.724C343.701 144.328 342.892 144.567 342.291 145.046C341.691 145.525 341.392 146.174 341.392 146.991ZM354.546 127.645V129.599L351.682 130.128C351.947 130.481 352.167 130.915 352.339 131.431C352.508 131.946 352.598 132.49 352.598 133.065C352.598 134.79 351.998 136.149 350.809 137.135C349.619 138.127 347.979 138.62 345.888 138.62C345.352 138.62 344.867 138.581 344.433 138.499C343.67 138.975 343.283 139.528 343.283 140.165C343.283 140.548 343.464 140.836 343.822 141.027C344.18 141.219 344.839 141.315 345.797 141.315H348.72C350.566 141.315 351.97 141.706 352.928 142.496C353.886 143.282 354.365 144.418 354.365 145.903C354.365 147.8 353.582 149.263 352.02 150.291C350.456 151.323 348.193 151.836 345.237 151.836C342.959 151.836 341.218 151.433 340.014 150.624C338.813 149.815 338.213 148.665 338.213 147.174C338.213 146.145 338.537 145.277 339.188 144.578C339.842 143.877 340.75 143.389 341.922 143.116C341.449 142.913 341.057 142.589 340.75 142.14C340.442 141.692 340.287 141.219 340.287 140.726C340.287 140.097 340.465 139.57 340.817 139.133C341.17 138.702 341.694 138.274 342.393 137.848C341.522 137.473 340.82 136.867 340.279 136.025C339.738 135.182 339.467 134.193 339.467 133.065C339.467 131.247 340.042 129.838 341.187 128.84C342.334 127.84 343.965 127.344 346.085 127.344C346.558 127.344 347.057 127.375 347.576 127.443C348.094 127.505 348.486 127.575 348.748 127.645H354.546Z" fill="white"/>
        <path fill-rule="evenodd" clip-rule="evenodd" d="M366.147 127.343C366.862 127.343 367.451 127.394 367.916 127.495L367.567 130.807C367.062 130.688 366.538 130.626 365.992 130.626C364.571 130.626 363.418 131.092 362.533 132.019C361.651 132.949 361.206 134.155 361.206 135.638V144.389H357.649V127.645H360.436L360.904 130.595H361.085C361.64 129.598 362.367 128.806 363.263 128.222C364.154 127.636 365.118 127.343 366.147 127.343Z" fill="white"/>
        <path fill-rule="evenodd" clip-rule="evenodd" d="M376.196 141.966C377.486 141.966 378.524 141.606 379.307 140.884C380.088 140.16 380.482 139.151 380.482 137.849V136.394L378.329 136.487C376.655 136.547 375.435 136.828 374.674 137.327C373.91 137.826 373.532 138.59 373.532 139.619C373.532 140.368 373.755 140.946 374.197 141.352C374.64 141.763 375.308 141.966 376.196 141.966ZM381.494 144.387L380.784 142.056H380.663C379.854 143.077 379.042 143.77 378.225 144.139C377.407 144.506 376.359 144.692 375.077 144.692C373.431 144.692 372.145 144.246 371.221 143.359C370.299 142.471 369.837 141.214 369.837 139.588C369.837 137.863 370.48 136.561 371.762 135.684C373.042 134.805 374.995 134.326 377.619 134.247L380.508 134.157V133.26C380.508 132.192 380.26 131.392 379.761 130.865C379.262 130.332 378.484 130.067 377.436 130.067C376.579 130.067 375.759 130.194 374.969 130.445C374.183 130.698 373.425 130.994 372.698 131.338L371.548 128.796C372.455 128.32 373.45 127.959 374.53 127.714C375.609 127.466 376.629 127.344 377.588 127.344C379.718 127.344 381.325 127.807 382.41 128.737C383.495 129.664 384.036 131.121 384.036 133.108V144.387H381.494Z" fill="white"/>
        <path fill-rule="evenodd" clip-rule="evenodd" d="M397.496 127.343C398.211 127.343 398.801 127.394 399.266 127.495L398.916 130.807C398.412 130.688 397.887 130.626 397.341 130.626C395.92 130.626 394.767 131.092 393.885 132.019C393 132.949 392.558 134.155 392.558 135.638V144.389H389.001V127.645H391.788L392.256 130.595H392.437C392.992 129.598 393.716 128.806 394.612 128.222C395.503 127.636 396.467 127.343 397.496 127.343Z" fill="white"/>
        <path fill-rule="evenodd" clip-rule="evenodd" d="M402.366 144.389H405.923V120.836H402.366V144.389Z" fill="white"/>
        <path fill-rule="evenodd" clip-rule="evenodd" d="M411.012 144.389H414.569V127.648H411.012V144.389ZM410.801 123.209C410.801 122.572 410.973 122.084 411.322 121.743C411.669 121.397 412.168 121.228 412.813 121.228C413.439 121.228 413.927 121.397 414.273 121.743C414.623 122.084 414.797 122.572 414.797 123.209C414.797 123.815 414.623 124.294 414.273 124.641C413.927 124.99 413.439 125.162 412.813 125.162C412.168 125.162 411.669 124.99 411.322 124.641C410.973 124.294 410.801 123.815 410.801 123.209Z" fill="white"/>
        <path fill-rule="evenodd" clip-rule="evenodd" d="M426.318 130.038C425.188 130.038 424.281 130.396 423.601 131.112C422.919 131.83 422.513 132.873 422.384 134.246H429.982C429.962 132.862 429.63 131.816 428.982 131.106C428.336 130.393 427.448 130.038 426.318 130.038ZM426.966 144.691C424.365 144.691 422.33 143.932 420.859 142.413C419.393 140.894 418.658 138.8 418.658 136.137C418.658 133.403 419.337 131.255 420.704 129.688C422.062 128.124 423.937 127.343 426.318 127.343C428.528 127.343 430.272 128.014 431.555 129.356C432.837 130.697 433.48 132.546 433.48 134.897V136.819H422.322C422.372 138.442 422.812 139.694 423.638 140.564C424.467 141.438 425.633 141.875 427.136 141.875C428.125 141.875 429.046 141.782 429.9 141.596C430.752 141.407 431.665 141.097 432.646 140.666V143.555C431.777 143.969 430.901 144.262 430.013 144.431C429.123 144.606 428.111 144.691 426.966 144.691Z" fill="white"/>
        <path fill-rule="evenodd" clip-rule="evenodd" d="M445.921 130.34H441.837V144.387H438.263V130.34H435.507V128.675L438.263 127.584V126.496C438.263 124.518 438.725 123.052 439.655 122.097C440.583 121.144 442 120.665 443.908 120.665C445.16 120.665 446.391 120.873 447.603 121.288L446.665 123.982C445.785 123.7 444.948 123.559 444.151 123.559C443.345 123.559 442.756 123.81 442.386 124.306C442.017 124.808 441.837 125.558 441.837 126.555V127.646H445.921V130.34Z" fill="white"/>
        <path fill-rule="evenodd" clip-rule="evenodd" d="M455.427 130.038C454.297 130.038 453.389 130.396 452.71 131.112C452.028 131.83 451.622 132.873 451.493 134.246H459.091C459.071 132.862 458.739 131.816 458.09 131.106C457.445 130.393 456.557 130.038 455.427 130.038ZM456.075 144.691C453.474 144.691 451.439 143.932 449.968 142.413C448.502 140.894 447.767 138.8 447.767 136.137C447.767 133.403 448.446 131.255 449.813 129.688C451.171 128.124 453.045 127.343 455.427 127.343C457.637 127.343 459.381 128.014 460.664 129.356C461.946 130.697 462.589 132.546 462.589 134.897V136.819H451.431C451.481 138.442 451.921 139.694 452.747 140.564C453.575 141.438 454.742 141.875 456.244 141.875C457.234 141.875 458.155 141.782 459.009 141.596C459.86 141.407 460.774 141.097 461.754 140.666V143.555C460.886 143.969 460.01 144.262 459.122 144.431C458.231 144.606 457.22 144.691 456.075 144.691Z" fill="white"/>
        <path fill-rule="evenodd" clip-rule="evenodd" d="M475.123 127.343C475.838 127.343 476.427 127.394 476.893 127.495L476.543 130.807C476.039 130.688 475.514 130.626 474.968 130.626C473.547 130.626 472.394 131.092 471.512 132.019C470.627 132.949 470.185 134.155 470.185 135.638V144.389H466.628V127.645H469.415L469.883 130.595H470.064C470.619 129.598 471.343 128.806 472.239 128.222C473.13 127.636 474.094 127.343 475.123 127.343Z" fill="white"/>
        <path fill-rule="evenodd" clip-rule="evenodd" d="M483.429 135.548L485.444 133.034L490.501 127.645H494.604L487.865 134.835L495.027 144.389H490.85L485.475 137.044L483.522 138.651V144.389H479.994V120.833H483.522V132.321L483.342 135.548H483.429Z" fill="white"/>
        <path fill-rule="evenodd" clip-rule="evenodd" d="M504.383 130.038C503.253 130.038 502.345 130.396 501.666 131.112C500.984 131.83 500.578 132.873 500.448 134.246H508.047C508.027 132.862 507.695 131.816 507.046 131.106C506.401 130.393 505.513 130.038 504.383 130.038ZM505.031 144.691C502.43 144.691 500.395 143.932 498.924 142.413C497.458 140.894 496.722 138.8 496.722 136.137C496.722 133.403 497.402 131.255 498.769 129.688C500.127 128.124 502.001 127.343 504.383 127.343C506.592 127.343 508.337 128.014 509.619 129.356C510.902 130.697 511.544 132.546 511.544 134.897V136.819H500.386C500.437 138.442 500.877 139.694 501.703 140.564C502.531 141.438 503.698 141.875 505.2 141.875C506.189 141.875 507.111 141.782 507.965 141.596C508.816 141.407 509.729 141.097 510.71 140.666V143.555C509.842 143.969 508.966 144.262 508.078 144.431C507.187 144.606 506.175 144.691 505.031 144.691Z" fill="white"/>
        <path fill-rule="evenodd" clip-rule="evenodd" d="M521.822 141.815C522.69 141.815 523.558 141.677 524.426 141.403V144.087C524.031 144.256 523.524 144.399 522.904 144.518C522.284 144.633 521.641 144.693 520.973 144.693C517.602 144.693 515.917 142.914 515.917 139.363V130.341H513.631V128.766L516.086 127.464L517.298 123.921H519.491V127.647H524.26V130.341H519.491V139.301C519.491 140.158 519.705 140.795 520.133 141.201C520.565 141.612 521.125 141.815 521.822 141.815Z" fill="white"/>
        <path fill-rule="evenodd" clip-rule="evenodd" d="M534.006 141.815C534.874 141.815 535.742 141.677 536.61 141.403V144.087C536.216 144.256 535.709 144.399 535.089 144.518C534.469 144.633 533.826 144.693 533.158 144.693C529.787 144.693 528.102 142.914 528.102 139.363V130.341H525.816V128.766L528.271 127.464L529.483 123.921H531.675V127.647H536.444V130.341H531.675V139.301C531.675 140.158 531.89 140.795 532.318 141.201C532.749 141.612 533.31 141.815 534.006 141.815Z" fill="white"/>
        <path fill-rule="evenodd" clip-rule="evenodd" d="M546.618 130.038C545.487 130.038 544.58 130.396 543.901 131.112C543.219 131.83 542.813 132.873 542.683 134.246H550.281C550.262 132.862 549.929 131.816 549.281 131.106C548.636 130.393 547.748 130.038 546.618 130.038ZM547.266 144.691C544.664 144.691 542.629 143.932 541.158 142.413C539.693 140.894 538.957 138.8 538.957 136.137C538.957 133.403 539.636 131.255 541.003 129.688C542.362 128.124 544.236 127.343 546.617 127.343C548.827 127.343 550.572 128.014 551.854 129.356C553.136 130.697 553.779 132.546 553.779 134.897V136.819H542.621C542.672 138.442 543.111 139.694 543.937 140.564C544.766 141.438 545.933 141.875 547.435 141.875C548.424 141.875 549.346 141.782 550.2 141.596C551.051 141.407 551.964 141.097 552.945 140.666V143.555C552.077 143.969 551.2 144.262 550.312 144.431C549.422 144.606 548.41 144.691 547.266 144.691Z" fill="white"/>
        <path fill-rule="evenodd" clip-rule="evenodd" d="M572.55 144.388H568.977V134.096C568.977 132.802 568.717 131.838 568.196 131.201C567.677 130.567 566.854 130.249 565.721 130.249C564.219 130.249 563.117 130.694 562.421 131.582C561.725 132.469 561.375 133.958 561.375 136.046V144.388H557.819V127.647H560.606L561.105 129.84H561.288C561.793 129.045 562.508 128.428 563.436 127.994C564.366 127.56 565.394 127.343 566.522 127.343C570.541 127.343 572.55 129.386 572.55 133.473V144.388Z" fill="white"/>
        <path fill-rule="evenodd" clip-rule="evenodd" d="M0 153.358H14.8022V7.15684L7.75059 -0.00188828L0 7.15684V153.358Z" fill="white"/>
        <path fill-rule="evenodd" clip-rule="evenodd" d="M50.3334 9.89651L50.3785 153.373H65.1836L65.1357 35.4678L50.3334 9.89651Z" fill="white"/>
        <path fill-rule="evenodd" clip-rule="evenodd" d="M133.464 153.424H146.014L146.096 143.673L62.925 -0.000850677L50.3324 9.89736L133.464 153.424Z" fill="white"/>
        <path fill-rule="evenodd" clip-rule="evenodd" d="M141.195 -0.000850677L133.448 6.98032L131.275 118.051L146.08 143.622L148.25 6.98032L141.195 -0.000850677Z" fill="white"/>
        <path fill-rule="evenodd" clip-rule="evenodd" d="M230.012 7.65899L229.597 7.87601L221.531 28.9802L267.964 150.484L277.115 153.703L281.839 143.289L230.012 7.65899Z" fill="white"/>
        <path fill-rule="evenodd" clip-rule="evenodd" d="M173.758 153.999L229.856 7.19762L215.978 -0.00056076L159.88 146.801L173.758 153.999Z" fill="white"/>
    </g>
</svg>
