<svg width="214" height="92" viewBox="0 0 214 92" fill="none" xmlns="http://www.w3.org/2000/svg">
<path d="M188.885 62.9261C188.885 63.3408 190.874 86.7697 190.874 86.7697H151.11L30.997 91.02L0 89.2087V86.7697L1.76229 46.443L0.621971 28.8196L2.69537 3.52468L63.6526 4.66499C63.6526 4.66499 161.827 0 162.345 0C162.864 0 189.61 1.76234 189.61 1.76234L190.336 21.8738C190.336 21.8738 190.249 24.2952 190.119 27.9609L214 34.9607L189.621 41.9275C189.255 52.2423 188.884 62.7165 188.884 62.9261" fill="#4DB163"/>
<path d="M172.277 38.1758L172.411 42.5934C172.008 42.5387 171.583 42.518 171.137 42.5316C169.709 42.575 168.455 42.8475 167.376 43.3492L167.599 50.6785C167.61 51.0356 167.656 51.2743 167.738 51.3944C167.82 51.5148 168.023 51.5982 168.348 51.6438C168.673 51.69 169.35 51.7307 170.379 51.7663L170.457 54.3433L161.455 54.6167L161.376 52.0397C162.133 51.9499 162.633 51.8734 162.877 51.8099C163.12 51.7471 163.274 51.6529 163.337 51.5281C163.4 51.4036 163.427 51.1626 163.416 50.8056L163.163 42.4724C163.157 42.2716 163.119 42.1335 163.05 42.0571C162.98 41.9811 162.771 41.9148 162.424 41.8585C162.076 41.802 161.6 41.7493 160.995 41.7008L160.907 38.7893C162.4 38.6993 163.648 38.6003 164.649 38.4914C165.651 38.3829 166.418 38.2759 166.951 38.1702L166.945 41.2856L167.223 41.6122C167.724 40.458 168.267 39.582 168.852 38.9833C169.437 38.3852 170.175 38.0723 171.067 38.0452C171.357 38.0363 171.761 38.0802 172.277 38.1758L172.277 38.1758ZM152.674 37.264C152.146 36.7891 151.87 36.1494 151.845 35.3463C151.821 34.5431 152.063 33.8825 152.572 33.3647C153.081 32.8466 153.738 32.5756 154.541 32.5512C155.344 32.5268 156.015 32.7575 156.555 33.2437C157.094 33.7298 157.377 34.3744 157.401 35.1775C157.425 35.9807 157.188 36.6359 156.69 37.142C156.192 37.6486 155.53 37.9142 154.704 37.9392C153.879 37.9643 153.202 37.7394 152.674 37.264ZM151.591 52.337C152.347 52.2471 152.847 52.1707 153.091 52.1072C153.335 52.0443 153.489 51.9502 153.552 51.8253C153.615 51.7008 153.641 51.4599 153.63 51.1027L153.381 42.9035C153.374 42.6582 153.335 42.492 153.266 42.4046C153.196 42.3176 152.987 42.2454 152.64 42.1891C152.291 42.1326 151.815 42.0801 151.211 42.0315L151.127 39.2538C152.955 39.1762 154.337 39.084 155.272 38.9771C156.207 38.8708 156.928 38.7316 157.437 38.5597L157.814 50.9757C157.825 51.3329 157.86 51.572 157.919 51.6926C157.978 51.8138 158.132 51.8987 158.379 51.9466C158.626 51.9952 159.13 52.0411 159.891 52.0849L159.969 54.6619L151.669 54.914L151.591 52.337L151.591 52.337ZM142.121 52.0051C142.618 51.8006 143.061 51.4908 143.45 51.077L143.363 48.1989L140.579 49.1878C139.96 49.4077 139.499 49.673 139.196 49.9836C138.893 50.2943 138.748 50.6728 138.762 51.1189C138.775 51.543 138.923 51.8568 139.209 52.06C139.494 52.2639 139.893 52.3575 140.407 52.3419C141.053 52.3222 141.625 52.2102 142.121 52.0051ZM150.161 51.4427C150.163 52.269 150.001 52.9883 149.674 53.6013C149.346 54.2142 148.903 54.6913 148.343 55.0318C147.784 55.3722 147.181 55.5527 146.534 55.5723C145.753 55.5961 145.133 55.3857 144.673 54.9423C144.212 54.4988 143.969 53.8305 143.942 52.938L143.93 52.5363L143.617 52.1773C143.207 53.3737 142.631 54.2674 141.89 54.8594C141.148 55.4512 140.176 55.7656 138.971 55.8021C138.056 55.83 137.269 55.6638 136.611 55.3043C135.952 54.9449 135.44 54.4304 135.073 53.7601C134.706 53.0902 134.51 52.298 134.482 51.3829C134.455 50.5128 134.628 49.7706 135 49.1564C135.372 48.5422 135.932 48.0174 136.678 47.5812C137.423 47.1457 138.406 46.7532 139.623 46.4032L143.276 45.3543L143.245 44.3168C143.222 43.5805 143.044 43.0557 142.711 42.7419C142.378 42.4286 141.831 42.283 141.073 42.306C140.247 42.331 139.68 42.5775 139.37 43.0443C139.061 43.5117 138.907 44.1586 138.91 44.9845L134.944 44.5355C134.91 43.4202 135.143 42.4641 135.644 41.6669C136.144 40.8704 136.874 40.2563 137.832 39.825C138.791 39.394 139.928 39.1585 141.244 39.1185C143.297 39.0561 144.826 39.4232 145.834 40.2186C146.84 41.0144 147.368 42.2267 147.418 43.855L147.626 50.7157C147.636 51.0284 147.709 51.2548 147.848 51.3956C147.986 51.537 148.211 51.6023 148.524 51.5928C148.992 51.5785 149.445 51.4308 149.884 51.1496L150.161 51.4427V51.4427ZM128.887 39.7619L132.702 39.6461L132.804 42.9926L128.989 43.1086L129.254 51.8433C129.265 52.2004 129.311 52.4391 129.393 52.5591C129.475 52.6796 129.678 52.7629 130.003 52.8085C130.328 52.8547 130.994 52.8958 132 52.9321L132.078 55.5091L123.109 55.7815L123.031 53.2045C123.787 53.1146 124.287 53.0382 124.532 52.9747C124.775 52.9119 124.929 52.8177 124.992 52.6928C125.055 52.5684 125.081 52.3274 125.071 51.9703L124.805 43.2356L122.764 43.2976L122.731 42.2268L124.705 39.9224L124.689 39.4204C124.657 38.3495 124.839 37.3782 125.237 36.5063C125.635 35.6347 126.25 34.9295 127.082 34.3901C127.914 33.8514 128.933 33.5635 130.138 33.527C130.896 33.5039 131.597 33.5831 132.239 33.7645C132.881 33.946 133.418 34.1757 133.851 34.4524L132.476 37.71C131.968 37.1675 131.313 36.9079 130.509 36.9323C129.996 36.9479 129.588 37.111 129.285 37.4218C128.981 37.7324 128.838 38.1671 128.855 38.7245L128.887 39.7619L128.887 39.7619ZM114.204 54.6116C114.895 54.5686 115.441 54.5238 115.841 54.4782C116.242 54.4324 116.475 54.3699 116.539 54.2894C116.604 54.2095 116.633 54.0579 116.626 53.8346L116.1 36.5325C116.095 36.3767 116.053 36.2776 115.974 36.235C115.894 36.1929 115.642 36.1614 115.217 36.1406C114.792 36.1201 114.211 36.099 113.474 36.0764L113.425 34.47C115.72 34.3333 117.347 34.2058 118.304 34.0873L118.901 53.7655C118.908 53.9888 118.946 54.1384 119.016 54.2142C119.085 54.2906 119.321 54.3389 119.724 54.3603C120.126 54.3815 120.674 54.3931 121.366 54.3941L121.41 55.8332L114.248 56.0507L114.204 54.6116L114.204 54.6116ZM105.373 54.8799C106.063 54.8369 106.609 54.7921 107.01 54.7464C107.41 54.7006 107.643 54.6382 107.707 54.5577C107.772 54.4778 107.801 54.3261 107.794 54.1029L107.269 36.8008C107.264 36.645 107.222 36.5459 107.142 36.5032C107.063 36.4611 106.81 36.4296 106.386 36.4089C105.961 36.3884 105.379 36.3674 104.642 36.3447L104.593 34.7382C106.889 34.6016 108.515 34.4741 109.472 34.3555L110.07 54.0337C110.077 54.257 110.115 54.4067 110.184 54.4825C110.253 54.5589 110.489 54.6072 110.892 54.6285C111.295 54.6498 111.842 54.6613 112.534 54.6623L112.578 56.1014L105.416 56.3189L105.373 54.8799L105.373 54.8799ZM97.7758 37.3572C97.4536 37.0545 97.2856 36.6577 97.2707 36.1665C97.2557 35.6762 97.3996 35.2751 97.7031 34.9643C98.0061 34.6537 98.4032 34.4909 98.8942 34.476C99.3847 34.4611 99.7908 34.5995 100.113 34.8912C100.434 35.1829 100.602 35.5745 100.617 36.0649C100.632 36.556 100.488 36.9623 100.185 37.2841C99.8821 37.6062 99.4854 37.7741 98.9949 37.789C98.5039 37.8039 98.0974 37.6605 97.7758 37.3572ZM96.5408 55.1482C97.2316 55.1052 97.7776 55.0604 98.1782 55.0148C98.5787 54.969 98.8113 54.9064 98.876 54.826C98.9405 54.7461 98.9694 54.5944 98.9626 54.3711L98.6323 43.4947C98.6275 43.3388 98.5853 43.2396 98.5059 43.1971C98.4261 43.1549 98.174 43.1233 97.7493 43.1027C97.3243 43.0822 96.7431 43.061 96.0055 43.0385L95.9568 41.4321C98.2524 41.2954 99.8788 41.1679 100.836 41.0494L101.238 54.3021C101.245 54.5254 101.283 54.675 101.352 54.7508C101.422 54.8272 101.658 54.8755 102.06 54.8969C102.463 54.9181 103.01 54.9297 103.703 54.9306L103.746 56.3697L96.5846 56.5873L96.5409 55.1482L96.5408 55.1482ZM94.2905 41.4827L94.3393 43.0891C93.7609 43.1736 93.2999 43.2495 92.9561 43.3154C92.6114 43.3817 92.3957 43.4444 92.3086 43.5025C92.2208 43.5612 92.157 43.6693 92.1173 43.8265L88.3589 56.8371L86.2169 56.9021L82.8129 48.4973L82.0126 46.4112L81.3405 48.542L78.4862 57.1369L76.3444 57.202L71.7696 44.4446C71.7199 44.2901 71.6498 44.186 71.5591 44.1327C71.468 44.0801 71.2488 44.0307 70.9014 43.9853C70.5536 43.9404 70.0889 43.8927 69.5069 43.8434L69.4582 42.237L76.3188 42.0286L76.3675 43.635C75.7666 43.6982 75.2936 43.7513 74.9488 43.7953C74.6038 43.8392 74.4042 43.8904 74.3506 43.9475C74.2962 44.0052 74.2938 44.1114 74.3434 44.2659L76.8581 52.0613L77.5601 54.2173L78.2303 52.0196L81.2902 42.4805L82.6623 42.4388L86.4702 52.0038L87.376 54.2541L87.9092 51.9601L89.9694 43.6909C89.988 43.5787 89.9636 43.5014 89.8954 43.4586C89.8271 43.416 89.6026 43.3836 89.2224 43.3617C88.8417 43.3398 88.3166 43.317 87.646 43.2924L87.5972 41.686L94.2905 41.4826V41.4827ZM67.5554 55.7773C67.6247 55.8537 67.8605 55.902 68.2633 55.9234C68.6658 55.9446 69.2132 55.9563 69.9057 55.9572L69.9494 57.3963L65.2305 57.5396L64.9377 47.9013C64.9025 46.7415 64.5578 45.8696 63.9037 45.2864C63.2495 44.7034 62.3644 44.4289 61.2491 44.4627C60.5128 44.4851 59.7595 44.6922 58.9901 45.0841C58.22 45.4758 57.5989 45.9804 57.1267 46.5977L57.4011 55.6336C57.408 55.8568 57.4459 56.0065 57.5153 56.0823C57.5847 56.1587 57.8205 56.207 58.2232 56.2284C58.6258 56.2496 59.1731 56.2613 59.8656 56.2622L59.9093 57.7013L52.7475 57.9188L52.7038 56.4797C53.3723 56.4374 53.907 56.3929 54.3076 56.3473C54.7081 56.3016 54.9407 56.239 55.0054 56.1586C55.07 56.0787 55.0988 55.9271 55.092 55.7038L54.5998 38.4007C54.5951 38.2448 54.5529 38.1458 54.4737 38.1031C54.3938 38.0611 54.1416 38.0294 53.7171 38.0087C53.292 37.9882 52.7108 37.9672 51.9732 37.9446L51.9244 36.3381C54.2201 36.2014 55.8467 36.0739 56.8035 35.9555L57.1023 45.7946C57.649 44.6841 58.3535 43.8028 59.2162 43.151C60.0782 42.4999 61.0895 42.1562 62.2498 42.1209C63.0975 42.0952 63.8956 42.261 64.6433 42.6178C65.3911 42.9751 65.9938 43.5147 66.4511 44.2377C66.9086 44.9607 67.1528 45.8357 67.184 46.8617L67.4412 55.3287C67.448 55.552 67.486 55.7016 67.5554 55.7774L67.5554 55.7773ZM41.8221 57.6309C40.7653 57.0266 39.923 56.1426 39.2962 54.9778C38.6688 53.8134 38.3309 52.4277 38.2822 50.8214C38.2388 49.3937 38.4944 48.0739 39.0496 46.8622C39.6043 45.6509 40.4011 44.6773 41.4398 43.9423C42.4779 43.2073 43.6669 42.8194 45.0055 42.7788C46.5668 42.7314 47.8388 43.0613 48.8207 43.7684C49.8021 44.4755 50.4371 45.5281 50.7255 46.9263L48.6304 47.4253C48.0811 45.5216 46.8806 44.5977 45.0288 44.6539C44.1363 44.681 43.3467 44.962 42.6594 45.4964C41.9722 46.0311 41.4467 46.7558 41.084 47.6713C40.7209 48.5867 40.5573 49.6249 40.5925 50.7846C40.6298 52.012 40.8843 53.0536 41.3573 53.9102C41.8298 54.7668 42.4522 55.4069 43.2246 55.8298C43.9964 56.2533 44.8513 56.4504 45.7884 56.4219C46.7923 56.3914 47.7014 56.1795 48.5159 55.7864C49.3298 55.3932 49.9845 54.8876 50.4797 54.2696L50.7879 54.4947C50.4667 55.6883 49.8592 56.6389 48.9652 57.347C48.0708 58.0557 46.8878 58.4319 45.4153 58.4766C44.0766 58.5172 42.8789 58.2354 41.8221 57.6309ZM31.2956 39.3767C30.9734 39.0739 30.8054 38.6771 30.7905 38.186C30.7757 37.6956 30.9194 37.2945 31.2229 36.9838C31.526 36.6732 31.923 36.5104 32.414 36.4954C32.9045 36.4805 33.3107 36.6189 33.6325 36.9106C33.954 37.2024 34.1223 37.5939 34.1372 38.0844C34.1521 38.5754 34.0081 38.9817 33.7052 39.3035C33.402 39.6257 33.0052 39.7936 32.5147 39.8085C32.0237 39.8234 31.6173 39.6799 31.2956 39.3767ZM30.0607 57.1677C30.7514 57.1247 31.2975 57.0799 31.698 57.0342C32.0986 56.9884 32.3312 56.9259 32.3958 56.8454C32.4603 56.7655 32.4893 56.6139 32.4825 56.3906L32.1521 45.514C32.1474 45.3582 32.1051 45.259 32.0257 45.2165C31.946 45.1743 31.6939 45.1427 31.2691 45.1222C30.8442 45.1016 30.263 45.0805 29.5254 45.0579L29.4766 43.4515C31.7723 43.3149 33.3987 43.1874 34.3557 43.0688L34.7582 56.3215C34.765 56.5448 34.803 56.6943 34.8722 56.7702C34.9416 56.8466 35.1776 56.8948 35.5801 56.9162C35.9829 56.9375 36.5301 56.9491 37.2226 56.9501L37.2663 58.3891L30.1044 58.6067L30.0607 57.1677L30.0607 57.1677ZM22.5529 45.1773L23.0881 42.6969L20.5608 42.7737L20.0255 45.2541L22.5529 45.1773ZM28.2298 42.5407L25.7679 42.6155L25.2108 45.0966L27.1716 45.037L27.2338 47.085L24.7719 47.1598L23.949 50.9355L21.2909 51.0162L22.114 47.2405L19.5867 47.3172L18.7636 51.093L16.1056 51.1737L16.9286 47.398L14.9461 47.4582L14.8839 45.4103L17.3675 45.3348L17.9029 42.8545L15.9419 42.914L15.8797 40.866L18.3416 40.7912L19.1646 37.0155L21.8226 36.9348L20.9997 40.7105L23.527 40.6337L24.3499 36.858L27.0297 36.7766L26.2067 40.5523L28.1676 40.4928L28.2298 42.5407Z" fill="white"/>
</svg>
