<svg width="132" height="29" viewBox="0 0 132 29" fill="none"
     xmlns="http://www.w3.org/2000/svg">
    <path fill-rule="evenodd" clip-rule="evenodd"
          d="M0 1.94843L1.3472 0.679077L2.57375 1.94843V27.8432H0V1.94843Z" fill="white"/>
    <path fill-rule="evenodd" clip-rule="evenodd"
          d="M48.9999 26.0861L48.1788 27.9331L46.5873 27.3625L37.5767 3.31373L39.9892 2.03735L48.9999 26.0861Z"
          fill="white"/>
    <path fill-rule="evenodd" clip-rule="evenodd"
          d="M37.5495 0.679077L39.9621 1.95545L30.2089 27.9858L27.7964 26.7094L37.5495 0.679077Z"
          fill="white"/>
    <path fill-rule="evenodd" clip-rule="evenodd"
          d="M8.75073 1.94843L10.0979 0.679077L11.3245 1.94843V27.8432H8.75073V1.94843Z" fill="white"/>
    <path fill-rule="evenodd" clip-rule="evenodd"
          d="M22.9766 1.23762L24.3238 0L25.5503 1.23762V26.485H22.9766V1.23762Z" fill="white"/>
    <path fill-rule="evenodd" clip-rule="evenodd"
          d="M25.6363 25.8902L25.6259 27.6267L23.4469 27.645L8.75073 1.75479L10.9401 0L25.6363 25.8902Z"
          fill="white"/>
    <path fill-rule="evenodd" clip-rule="evenodd"
          d="M61.5239 18.9348H60.7855V16.7938C60.7855 16.5247 60.7319 16.3241 60.6242 16.1916C60.517 16.0597 60.347 15.9935 60.1129 15.9935C59.802 15.9935 59.5749 16.0861 59.431 16.2708C59.2872 16.4555 59.215 16.765 59.215 17.1995V18.9348H58.4801V15.4524H59.056L59.1591 15.9085H59.1969C59.3012 15.7431 59.4491 15.6148 59.6407 15.5245C59.8328 15.4342 60.0454 15.389 60.2783 15.389C61.1087 15.389 61.5239 15.8141 61.5239 16.6642V18.9348Z"
          fill="white"/>
    <path fill-rule="evenodd" clip-rule="evenodd" d="M56.604 18.9351H57.3511V14.3311H56.604V18.9351Z"
          fill="white"/>
    <path fill-rule="evenodd" clip-rule="evenodd"
          d="M62.546 18.9351H63.2809V15.4526H62.546V18.9351ZM62.5023 14.5292C62.5023 14.3967 62.5384 14.2953 62.6106 14.2244C62.6823 14.1522 62.7853 14.1171 62.9181 14.1171C63.0479 14.1171 63.1481 14.1522 63.2197 14.2244C63.2925 14.2953 63.3274 14.3967 63.3274 14.5292C63.3274 14.6553 63.2925 14.7549 63.2197 14.827C63.1481 14.8997 63.0479 14.9355 62.9181 14.9355C62.7853 14.9355 62.6823 14.8997 62.6106 14.827C62.5384 14.7549 62.5023 14.6553 62.5023 14.5292Z"
          fill="white"/>
    <path fill-rule="evenodd" clip-rule="evenodd"
          d="M65.6211 18.3996C65.8005 18.3996 65.9798 18.3715 66.1592 18.314V18.8722C66.0777 18.9073 65.9728 18.9378 65.8447 18.9619C65.7166 18.9859 65.5839 18.9982 65.4459 18.9982C64.7494 18.9982 64.4012 18.6289 64.4012 17.8896V16.0129H63.9283V15.6852L64.4355 15.4143L64.6859 14.6774H65.1396V15.4524H66.1248V16.0129H65.1396V17.8767C65.1396 18.0549 65.1838 18.1874 65.2723 18.2718C65.3614 18.3574 65.4773 18.3996 65.6211 18.3996Z"
          fill="white"/>
    <path fill-rule="evenodd" clip-rule="evenodd"
          d="M66.8504 18.9351H67.5853V15.4526H66.8504V18.9351ZM66.8068 14.5292C66.8068 14.3967 66.8429 14.2953 66.9151 14.2244C66.9867 14.1522 67.0892 14.1171 67.2225 14.1171C67.3524 14.1171 67.4526 14.1522 67.5242 14.2244C67.597 14.2953 67.6325 14.3967 67.6325 14.5292C67.6325 14.6553 67.597 14.7549 67.5242 14.827C67.4526 14.8997 67.3524 14.9355 67.2225 14.9355C67.0892 14.9355 66.9867 14.8997 66.9151 14.827C66.8429 14.7549 66.8068 14.6553 66.8068 14.5292Z"
          fill="white"/>
    <path fill-rule="evenodd" clip-rule="evenodd"
          d="M69.706 18.4311C69.9727 18.4311 70.1869 18.3561 70.3488 18.206C70.5101 18.0553 70.5917 17.8454 70.5917 17.5746V17.2721L70.1468 17.2914C69.8009 17.3037 69.5487 17.3623 69.3915 17.4661C69.2337 17.5699 69.1557 17.7288 69.1557 17.9428C69.1557 18.0987 69.2017 18.2189 69.2931 18.3033C69.3845 18.3889 69.5225 18.4311 69.706 18.4311ZM70.8007 18.9347L70.6539 18.4499H70.6289C70.4617 18.6621 70.294 18.8063 70.1252 18.8831C69.9563 18.9594 69.7397 18.998 69.4747 18.998C69.1347 18.998 68.8691 18.906 68.6781 18.7207C68.4877 18.5361 68.3922 18.2746 68.3922 17.9363C68.3922 17.5775 68.525 17.3066 68.7899 17.1243C69.0543 16.9414 69.4578 16.8417 70 16.8253L70.5968 16.8066V16.6201C70.5968 16.3979 70.5456 16.2314 70.4425 16.1218C70.3395 16.011 70.1787 15.9559 69.9621 15.9559C69.7851 15.9559 69.6156 15.9823 69.4526 16.0344C69.2901 16.0872 69.1335 16.1488 68.9833 16.2203L68.7457 15.6915C68.9332 15.5924 69.1387 15.5173 69.3618 15.4663C69.5848 15.4147 69.7956 15.3895 69.9936 15.3895C70.4338 15.3895 70.7657 15.4857 70.9899 15.6791C71.2141 15.872 71.3259 16.1751 71.3259 16.5885V18.9347H70.8007Z"
          fill="white"/>
    <path fill-rule="evenodd" clip-rule="evenodd"
          d="M73.6404 18.3996C73.8198 18.3996 73.9991 18.3715 74.1785 18.314V18.8722C74.097 18.9073 73.9922 18.9378 73.864 18.9619C73.7359 18.9859 73.6032 18.9982 73.4652 18.9982C72.7687 18.9982 72.4205 18.6289 72.4205 17.8896V16.0129H71.9482V15.6852L72.4554 15.4143L72.7058 14.6774H73.1589V15.4524H74.1441V16.0129H73.1589V17.8767C73.1589 18.0549 73.2031 18.1874 73.2916 18.2718C73.3807 18.3574 73.4966 18.3996 73.6404 18.3996Z"
          fill="white"/>
    <path fill-rule="evenodd" clip-rule="evenodd"
          d="M74.8695 18.9351H75.6044V15.4526H74.8695V18.9351ZM74.8264 14.5292C74.8264 14.3967 74.8619 14.2953 74.9341 14.2244C75.0058 14.1522 75.1088 14.1171 75.2416 14.1171C75.3715 14.1171 75.4722 14.1522 75.5438 14.2244C75.616 14.2953 75.6521 14.3967 75.6521 14.5292C75.6521 14.6553 75.616 14.7549 75.5438 14.827C75.4722 14.8997 75.3715 14.9355 75.2416 14.9355C75.1088 14.9355 75.0058 14.8997 74.9341 14.827C74.8619 14.7549 74.8264 14.6553 74.8264 14.5292Z"
          fill="white"/>
    <path fill-rule="evenodd" clip-rule="evenodd"
          d="M77.4437 18.935L76.13 15.4525H76.9056L77.6097 17.4769C77.7302 17.817 77.803 18.0925 77.828 18.3018H77.8531C77.8723 18.1506 77.9451 17.8756 78.0726 17.4769L78.776 15.4525H79.5581L78.238 18.935H77.4437Z"
          fill="white"/>
    <path fill-rule="evenodd" clip-rule="evenodd"
          d="M81.4596 15.9498C81.2261 15.9498 81.0386 16.0242 80.8983 16.1731C80.7574 16.3226 80.6735 16.5396 80.6467 16.8251H82.2166C82.2126 16.5372 82.1439 16.3197 82.0099 16.172C81.8766 16.0236 81.6931 15.9498 81.4596 15.9498ZM81.5936 18.9978C81.0561 18.9978 80.6357 18.8401 80.3317 18.5241C80.0289 18.2081 79.877 17.7725 79.877 17.2185C79.877 16.6498 80.0173 16.203 80.2997 15.8771C80.5804 15.5517 80.9676 15.3893 81.4597 15.3893C81.9162 15.3893 82.2767 15.5288 82.5416 15.8079C82.8066 16.0869 82.9393 16.4715 82.9393 16.9605V17.3603H80.634C80.6444 17.698 80.7353 17.9583 80.9059 18.1395C81.0771 18.3212 81.3182 18.4121 81.6285 18.4121C81.8329 18.4121 82.0233 18.3928 82.1998 18.3541C82.3756 18.3148 82.5643 18.2503 82.767 18.1606V18.7621C82.5876 18.8477 82.4065 18.9087 82.2231 18.9439C82.0391 18.9802 81.83 18.9978 81.5936 18.9978Z"
          fill="white"/>
    <path fill-rule="evenodd" clip-rule="evenodd"
          d="M87.1735 16.0127H86.3297V18.9347H85.5914V16.0127H85.0219V15.6662L85.5914 15.4393V15.213C85.5914 14.8014 85.6869 14.4966 85.879 14.2978C86.0706 14.0997 86.3635 14 86.7577 14C87.0163 14 87.2708 14.0434 87.5211 14.1296L87.3272 14.69C87.1456 14.6314 86.9726 14.6021 86.8078 14.6021C86.6413 14.6021 86.5196 14.6543 86.4433 14.7575C86.367 14.8618 86.3297 15.0178 86.3297 15.2253V15.4522H87.1735V16.0127Z"
          fill="white"/>
    <path fill-rule="evenodd" clip-rule="evenodd"
          d="M89.504 14.5293C89.504 14.3992 89.5389 14.3054 89.6088 14.2479C89.6787 14.1899 89.7631 14.1611 89.8633 14.1611C89.9739 14.1611 90.0624 14.194 90.1294 14.2585C90.1958 14.3235 90.2296 14.4144 90.2296 14.5293C90.2296 14.6425 90.1952 14.7328 90.1259 14.799C90.0572 14.8647 89.9699 14.8981 89.8633 14.8981C89.7631 14.8981 89.6787 14.8676 89.6088 14.8066C89.5389 14.7456 89.504 14.6536 89.504 14.5293ZM88.2747 14.5293C88.2747 14.3992 88.3091 14.3054 88.3789 14.2479C88.4488 14.1899 88.5338 14.1611 88.634 14.1611C88.7446 14.1611 88.8331 14.194 88.8984 14.2585C88.9642 14.3235 88.9968 14.4144 88.9968 14.5293C88.9968 14.6407 88.9636 14.7298 88.8966 14.7972C88.8302 14.8641 88.7423 14.8981 88.634 14.8981C88.5338 14.8981 88.4488 14.8676 88.3789 14.8066C88.3091 14.7456 88.2747 14.6536 88.2747 14.5293ZM90.201 18.9352L90.0979 18.4779H90.0601C89.9581 18.6403 89.8126 18.7675 89.6239 18.8595C89.4352 18.9516 89.2204 18.9979 88.9787 18.9979C88.5589 18.9979 88.2462 18.893 88.04 18.6831C87.8333 18.4732 87.7302 18.1554 87.7302 17.7286V15.4521H88.4715V17.5996C88.4715 17.8658 88.5257 18.0663 88.634 18.2C88.7423 18.3325 88.9123 18.3999 89.1441 18.3999C89.4527 18.3999 89.6792 18.3067 89.8242 18.1208C89.9692 17.9356 90.042 17.6237 90.042 17.1869V15.4521H90.7798V18.9352H90.201Z"
          fill="white"/>
    <path fill-rule="evenodd" clip-rule="evenodd"
          d="M93.5825 15.3892C93.7304 15.3892 93.8521 15.3997 93.9482 15.4208L93.876 16.1097C93.7717 16.0851 93.6634 16.0722 93.5505 16.0722C93.257 16.0722 93.0188 16.1689 92.8365 16.3618C92.6537 16.5553 92.5623 16.8062 92.5623 17.1146V18.935H91.8274V15.4519H92.4033L92.5 16.0657H92.5372C92.6519 15.8582 92.8016 15.6934 92.9868 15.5721C93.1708 15.4501 93.3699 15.3892 93.5825 15.3892Z"
          fill="white"/>
    <path fill-rule="evenodd" clip-rule="evenodd"
          d="M99.2969 18.935H98.5586V16.7939C98.5586 16.5248 98.505 16.3243 98.3973 16.1918C98.2901 16.0599 98.1201 15.9936 97.886 15.9936C97.5756 15.9936 97.3479 16.0862 97.2041 16.2709C97.0603 16.4556 96.9881 16.7651 96.9881 17.1996V18.935H96.2532V15.4525H96.8291L96.9322 15.9086H96.97C97.0742 15.7433 97.2221 15.6149 97.4137 15.5246C97.6059 15.4343 97.8184 15.3892 98.0514 15.3892C98.8817 15.3892 99.2969 15.8142 99.2969 16.6643V18.935Z"
          fill="white"/>
    <path fill-rule="evenodd" clip-rule="evenodd"
          d="M101.389 18.4311C101.656 18.4311 101.87 18.3561 102.032 18.206C102.193 18.0553 102.275 17.8454 102.275 17.5746V17.2721L101.83 17.2914C101.484 17.3037 101.232 17.3623 101.075 17.4661C100.917 17.5699 100.839 17.7288 100.839 17.9428C100.839 18.0987 100.885 18.2189 100.976 18.3033C101.068 18.3889 101.206 18.4311 101.389 18.4311ZM102.484 18.9347L102.337 18.4499H102.312C102.145 18.6621 101.977 18.8063 101.808 18.8831C101.639 18.9594 101.423 18.998 101.158 18.998C100.818 18.998 100.552 18.906 100.361 18.7207C100.171 18.5361 100.075 18.2746 100.075 17.9363C100.075 17.5775 100.208 17.3066 100.473 17.1243C100.737 16.9414 101.141 16.8417 101.683 16.8253L102.28 16.8066V16.6201C102.28 16.3979 102.229 16.2314 102.126 16.1218C102.023 16.011 101.862 15.9559 101.645 15.9559C101.468 15.9559 101.299 15.9823 101.136 16.0344C100.973 16.0872 100.817 16.1488 100.666 16.2203L100.429 15.6915C100.616 15.5924 100.822 15.5173 101.045 15.4663C101.268 15.4147 101.479 15.3895 101.677 15.3895C102.117 15.3895 102.449 15.4857 102.673 15.6791C102.897 15.872 103.009 16.1751 103.009 16.5885V18.9347H102.484Z"
          fill="white"/>
    <path fill-rule="evenodd" clip-rule="evenodd"
          d="M105.43 18.9979C104.907 18.9979 104.509 18.8437 104.237 18.5365C103.964 18.2287 103.829 17.7879 103.829 17.2121C103.829 16.6264 103.971 16.1768 104.255 15.8614C104.54 15.5465 104.952 15.3894 105.49 15.3894C105.854 15.3894 106.183 15.4574 106.475 15.5934L106.253 16.1891C105.942 16.0671 105.685 16.0062 105.483 16.0062C104.884 16.0062 104.586 16.406 104.586 17.2057C104.586 17.5961 104.66 17.8899 104.809 18.0863C104.958 18.2821 105.177 18.3806 105.465 18.3806C105.792 18.3806 106.101 18.2991 106.393 18.1349V18.7804C106.262 18.8584 106.121 18.9135 105.973 18.9475C105.824 18.9815 105.643 18.9979 105.43 18.9979Z"
          fill="white"/>
    <path fill-rule="evenodd" clip-rule="evenodd"
          d="M110.25 18.9349H109.512V16.7938C109.512 16.5247 109.458 16.3242 109.35 16.1917C109.243 16.0598 109.073 15.9936 108.839 15.9936C108.53 15.9936 108.304 16.0868 108.159 16.2726C108.014 16.4579 107.941 16.7698 107.941 17.206V18.9349H107.206V14.0354H107.941V15.2789C107.941 15.4782 107.929 15.6916 107.904 15.9179H107.951C108.051 15.7497 108.19 15.6201 108.369 15.5275C108.547 15.4348 108.755 15.3891 108.992 15.3891C109.83 15.3891 110.25 15.8142 110.25 16.6643V18.9349Z"
          fill="white"/>
    <path fill-rule="evenodd" clip-rule="evenodd"
          d="M114.316 18.9349H113.578V16.7938C113.578 16.5247 113.524 16.3242 113.416 16.1917C113.309 16.0598 113.139 15.9936 112.905 15.9936C112.596 15.9936 112.37 16.0868 112.225 16.2726C112.08 16.4579 112.007 16.7698 112.007 17.206V18.9349H111.272V14.0354H112.007V15.2789C112.007 15.4782 111.995 15.6916 111.97 15.9179H112.017C112.117 15.7497 112.256 15.6201 112.435 15.5275C112.613 15.4348 112.821 15.3891 113.058 15.3891C113.896 15.3891 114.316 15.8142 114.316 16.6643V18.9349Z"
          fill="white"/>
    <path fill-rule="evenodd" clip-rule="evenodd"
          d="M116.408 18.4311C116.675 18.4311 116.889 18.3561 117.051 18.206C117.212 18.0553 117.294 17.8454 117.294 17.5746V17.2721L116.849 17.2914C116.503 17.3037 116.251 17.3623 116.094 17.4661C115.936 17.5699 115.858 17.7288 115.858 17.9428C115.858 18.0987 115.904 18.2189 115.995 18.3033C116.087 18.3889 116.225 18.4311 116.408 18.4311ZM117.503 18.9347L117.356 18.4499H117.331C117.164 18.6621 116.996 18.8063 116.827 18.8831C116.658 18.9594 116.442 18.998 116.177 18.998C115.837 18.998 115.571 18.906 115.38 18.7207C115.19 18.5361 115.094 18.2746 115.094 17.9363C115.094 17.5775 115.227 17.3066 115.492 17.1243C115.756 16.9414 116.16 16.8417 116.702 16.8253L117.299 16.8066V16.6201C117.299 16.3979 117.248 16.2314 117.145 16.1218C117.042 16.011 116.881 15.9559 116.664 15.9559C116.487 15.9559 116.318 15.9823 116.155 16.0344C115.992 16.0872 115.836 16.1488 115.685 16.2203L115.448 15.6915C115.635 15.5924 115.841 15.5173 116.064 15.4663C116.287 15.4147 116.498 15.3895 116.696 15.3895C117.136 15.3895 117.468 15.4857 117.692 15.6791C117.916 15.872 118.028 16.1751 118.028 16.5885V18.9347H117.503Z"
          fill="white"/>
    <path fill-rule="evenodd" clip-rule="evenodd" d="M119.054 18.9351H119.788V14.0356H119.054V18.9351Z"
          fill="white"/>
    <path fill-rule="evenodd" clip-rule="evenodd"
          d="M122.128 18.3996C122.308 18.3996 122.487 18.3715 122.666 18.314V18.8722C122.585 18.9073 122.48 18.9378 122.352 18.9619C122.224 18.9859 122.091 18.9982 121.953 18.9982C121.257 18.9982 120.908 18.6289 120.908 17.8896V16.0129H120.436V15.6852L120.943 15.4143L121.194 14.6774H121.647V15.4524H122.632V16.0129H121.647V17.8767C121.647 18.0549 121.691 18.1874 121.779 18.2718C121.869 18.3574 121.984 18.3996 122.128 18.3996Z"
          fill="white"/>
    <path fill-rule="evenodd" clip-rule="evenodd"
          d="M123.358 18.9351H124.092V15.4526H123.358V18.9351ZM123.314 14.5292C123.314 14.3967 123.35 14.2953 123.422 14.2244C123.494 14.1522 123.596 14.1171 123.73 14.1171C123.86 14.1171 123.96 14.1522 124.032 14.2244C124.104 14.2953 124.14 14.3967 124.14 14.5292C124.14 14.6553 124.104 14.7549 124.032 14.827C123.96 14.8997 123.86 14.9355 123.73 14.9355C123.596 14.9355 123.494 14.8997 123.422 14.827C123.35 14.7549 123.314 14.6553 123.314 14.5292Z"
          fill="white"/>
    <path fill-rule="evenodd" clip-rule="evenodd"
          d="M125.663 16.5795C125.663 16.7976 125.718 16.9653 125.83 17.0832C125.941 17.201 126.102 17.2596 126.31 17.2596C126.736 17.2596 126.948 17.031 126.948 16.5731C126.948 16.3468 126.895 16.1721 126.79 16.049C126.685 15.9264 126.524 15.8643 126.31 15.8643C126.098 15.8643 125.936 15.9258 125.827 16.0472C125.717 16.1692 125.663 16.3468 125.663 16.5795ZM125.347 19.4763C125.347 19.6364 125.418 19.7589 125.561 19.8451C125.703 19.9313 125.904 19.9741 126.163 19.9741C126.563 19.9741 126.862 19.916 127.058 19.8005C127.253 19.6856 127.351 19.532 127.351 19.3415C127.351 19.1902 127.298 19.0829 127.191 19.0185C127.083 18.9545 126.884 18.9223 126.591 18.9223H126.035C125.824 18.9223 125.657 18.9721 125.533 19.0718C125.409 19.1715 125.347 19.3063 125.347 19.4763ZM128.065 15.4521V15.8584L127.473 15.9686C127.528 16.0419 127.572 16.1322 127.608 16.2395C127.643 16.3468 127.662 16.4599 127.662 16.5795C127.662 16.9383 127.538 17.2209 127.292 17.4261C127.046 17.6325 126.707 17.7351 126.276 17.7351C126.165 17.7351 126.065 17.7269 125.975 17.7099C125.817 17.809 125.738 17.9239 125.738 18.0564C125.738 18.1361 125.774 18.1959 125.848 18.2358C125.922 18.2756 126.059 18.2956 126.257 18.2956H126.861C127.242 18.2956 127.532 18.3771 127.73 18.5412C127.928 18.7048 128.027 18.9411 128.027 19.25C128.027 19.6446 127.865 19.9489 127.542 20.1628C127.219 20.3774 126.752 20.4841 126.141 20.4841C125.67 20.4841 125.31 20.4003 125.062 20.232C124.814 20.0644 124.689 19.8252 124.689 19.5144C124.689 19.3004 124.757 19.1205 124.892 18.9745C125.026 18.8285 125.214 18.7271 125.456 18.6702C125.359 18.6286 125.278 18.5606 125.214 18.4673C125.15 18.3741 125.118 18.2756 125.118 18.173C125.118 18.0423 125.155 17.9327 125.228 17.8418C125.301 17.7521 125.409 17.663 125.553 17.5744C125.374 17.4965 125.228 17.3704 125.117 17.1951C125.005 17.0198 124.949 16.8141 124.949 16.5795C124.949 16.2014 125.068 15.9083 125.304 15.7007C125.541 15.4926 125.878 15.3894 126.316 15.3894C126.414 15.3894 126.517 15.3959 126.624 15.4099C126.732 15.4228 126.813 15.4375 126.866 15.4521H128.065Z"
          fill="white"/>
    <path fill-rule="evenodd" clip-rule="evenodd"
          d="M130.082 15.9498C129.849 15.9498 129.661 16.0242 129.521 16.1731C129.38 16.3226 129.296 16.5396 129.269 16.8251H130.839C130.835 16.5372 130.767 16.3197 130.633 16.172C130.499 16.0236 130.316 15.9498 130.082 15.9498ZM130.216 18.9978C129.679 18.9978 129.258 18.8401 128.954 18.5241C128.651 18.2081 128.5 17.7725 128.5 17.2185C128.5 16.6498 128.64 16.203 128.922 15.8771C129.203 15.5517 129.59 15.3893 130.082 15.3893C130.539 15.3893 130.899 15.5288 131.164 15.8079C131.429 16.0869 131.562 16.4715 131.562 16.9605V17.3603H129.257C129.267 17.698 129.358 17.9583 129.528 18.1395C129.7 18.3212 129.941 18.4121 130.251 18.4121C130.455 18.4121 130.646 18.3928 130.822 18.3541C130.998 18.3148 131.187 18.2503 131.39 18.1606V18.7621C131.21 18.8477 131.029 18.9087 130.846 18.9439C130.662 18.9802 130.453 18.9978 130.216 18.9978Z"
          fill="white"/>
    <path fill-rule="evenodd" clip-rule="evenodd"
          d="M58.787 24.6294L58.359 23.376C58.3269 23.2921 58.2838 23.1596 58.2291 22.9796C58.1732 22.7985 58.1354 22.666 58.1144 22.5827C58.0585 22.8407 57.9752 23.1233 57.8675 23.4293L57.4546 24.6294H58.787ZM59.4403 26.5565L58.9844 25.2778H57.2357L56.7879 26.5565H56L57.7108 21.9337H58.5243L60.2352 26.5565H59.4403Z"
          fill="white"/>
    <path fill-rule="evenodd" clip-rule="evenodd"
          d="M61.2794 24.2011C61.2794 24.4192 61.3353 24.5869 61.4465 24.7047C61.5583 24.8226 61.7184 24.8812 61.9269 24.8812C62.3526 24.8812 62.5651 24.6525 62.5651 24.1947C62.5651 23.9684 62.5122 23.7937 62.4073 23.6705C62.3019 23.548 62.1412 23.4859 61.9269 23.4859C61.7144 23.4859 61.5536 23.5474 61.4442 23.6688C61.3341 23.7907 61.2794 23.9684 61.2794 24.2011ZM60.9638 27.0979C60.9638 27.2574 61.0348 27.3805 61.1781 27.4661C61.3208 27.5528 61.5217 27.5956 61.7796 27.5956C62.1803 27.5956 62.479 27.5376 62.6746 27.4221C62.8703 27.3072 62.9681 27.1536 62.9681 26.9625C62.9681 26.8112 62.9151 26.7039 62.808 26.64C62.6997 26.5761 62.5011 26.5439 62.2088 26.5439H61.6521C61.4407 26.5439 61.2736 26.5937 61.1496 26.6934C61.0255 26.793 60.9638 26.9279 60.9638 27.0979ZM63.6814 23.0737V23.48L63.0898 23.5902C63.1445 23.6635 63.1899 23.7538 63.2255 23.8611C63.2604 23.9684 63.279 24.0815 63.279 24.2011C63.279 24.5599 63.155 24.8425 62.9093 25.0477C62.6635 25.2541 62.3246 25.3567 61.8925 25.3567C61.7819 25.3567 61.6817 25.3485 61.5921 25.3315C61.4343 25.4305 61.3545 25.5455 61.3545 25.6779C61.3545 25.7577 61.3917 25.8175 61.4657 25.8573C61.5397 25.8972 61.6759 25.9171 61.8739 25.9171H62.4778C62.8592 25.9171 63.1492 25.9986 63.3472 26.1628C63.5452 26.3264 63.6442 26.5626 63.6442 26.8716C63.6442 27.2662 63.4823 27.5704 63.1597 27.7844C62.8365 27.999 62.3689 28.1057 61.758 28.1057C61.2875 28.1057 60.9276 28.0219 60.679 27.8536C60.4309 27.6854 60.3069 27.4461 60.3069 27.136C60.3069 26.922 60.3739 26.7414 60.5084 26.5961C60.6435 26.4501 60.831 26.3486 61.0732 26.2918C60.9754 26.2496 60.8944 26.1821 60.831 26.0889C60.7675 25.9957 60.7355 25.8972 60.7355 25.7946C60.7355 25.6639 60.7722 25.5542 60.8449 25.4634C60.9177 25.3737 61.026 25.2846 61.1705 25.196C60.9905 25.1181 60.8455 24.992 60.7337 24.8167C60.6219 24.6414 60.566 24.4356 60.566 24.2011C60.566 23.823 60.6848 23.5298 60.9212 23.3223C61.1582 23.1142 61.4954 23.011 61.9333 23.011C62.0311 23.011 62.1342 23.0174 62.2413 23.0315C62.3485 23.0444 62.4294 23.0591 62.4836 23.0737H63.6814Z"
          fill="white"/>
    <path fill-rule="evenodd" clip-rule="evenodd"
          d="M66.0784 23.0107C66.2263 23.0107 66.348 23.0213 66.4441 23.0424L66.3719 23.7313C66.2677 23.7066 66.1594 23.6938 66.0464 23.6938C65.7529 23.6938 65.5147 23.7905 65.3319 23.9834C65.1496 24.1768 65.0576 24.4278 65.0576 24.7361V26.5565H64.3228V23.0735H64.8987L64.9953 23.6873H65.0326C65.1473 23.4798 65.2975 23.315 65.4827 23.1937C65.6667 23.0717 65.8659 23.0107 66.0784 23.0107Z"
          fill="white"/>
    <path fill-rule="evenodd" clip-rule="evenodd"
          d="M68.1546 26.0527C68.4213 26.0527 68.6356 25.9777 68.7975 25.8276C68.9588 25.6769 69.0403 25.467 69.0403 25.1962V24.8936L68.5954 24.913C68.2495 24.9253 67.9973 24.9839 67.8401 25.0877C67.6823 25.1915 67.6043 25.3503 67.6043 25.5643C67.6043 25.7203 67.6503 25.8405 67.7417 25.9249C67.8331 26.0105 67.9711 26.0527 68.1546 26.0527ZM69.2493 26.5563L69.1025 26.0715H69.0775C68.9104 26.2837 68.7427 26.4279 68.5738 26.5047C68.4049 26.5809 68.1883 26.6196 67.9233 26.6196C67.5833 26.6196 67.3177 26.527 67.1267 26.3423C66.9363 26.1576 66.8408 25.8962 66.8408 25.5579C66.8408 25.1991 66.9736 24.9282 67.2385 24.7459C67.5029 24.563 67.9065 24.4633 68.4486 24.4469L69.0455 24.4281V24.2417C69.0455 24.0195 68.9942 23.853 68.8912 23.7434C68.7881 23.6326 68.6274 23.5774 68.4107 23.5774C68.2337 23.5774 68.0643 23.6038 67.9012 23.656C67.7388 23.7088 67.5821 23.7703 67.4319 23.8419L67.1943 23.313C67.3818 23.214 67.5873 23.1389 67.8104 23.0879C68.0334 23.0363 68.2442 23.0111 68.4422 23.0111C68.8824 23.0111 69.2143 23.1073 69.4385 23.3007C69.6627 23.4936 69.7745 23.7967 69.7745 24.21V26.5563H69.2493Z"
          fill="white"/>
    <path fill-rule="evenodd" clip-rule="evenodd"
          d="M72.5554 23.0107C72.7033 23.0107 72.825 23.0213 72.9211 23.0424L72.8489 23.7313C72.7447 23.7066 72.6363 23.6938 72.5234 23.6938C72.2299 23.6938 71.9917 23.7905 71.8095 23.9834C71.6266 24.1768 71.5352 24.4278 71.5352 24.7361V26.5565H70.8003V23.0735H71.3762L71.4729 23.6873H71.5101C71.6249 23.4798 71.7745 23.315 71.9597 23.1937C72.1437 23.0717 72.3429 23.0107 72.5554 23.0107Z"
          fill="white"/>
    <path fill-rule="evenodd" clip-rule="evenodd" d="M73.5615 26.5567H74.2964V21.6572H73.5615V26.5567Z"
          fill="white"/>
    <path fill-rule="evenodd" clip-rule="evenodd"
          d="M75.3481 26.5567H76.083V23.0742H75.3481V26.5567ZM75.3044 22.1508C75.3044 22.0183 75.34 21.9169 75.4122 21.8459C75.4838 21.7738 75.5869 21.7386 75.7202 21.7386C75.8495 21.7386 75.9502 21.7738 76.0218 21.8459C76.0941 21.9169 76.1302 22.0183 76.1302 22.1508C76.1302 22.2768 76.0941 22.3765 76.0218 22.4486C75.9502 22.5213 75.8495 22.5571 75.7202 22.5571C75.5869 22.5571 75.4838 22.5213 75.4122 22.4486C75.34 22.3765 75.3044 22.2768 75.3044 22.1508Z"
          fill="white"/>
    <path fill-rule="evenodd" clip-rule="evenodd"
          d="M78.5105 23.5713C78.277 23.5713 78.0894 23.6458 77.9491 23.7947C77.8082 23.9442 77.7243 24.1611 77.6975 24.4466H79.2675C79.2634 24.1588 79.1947 23.9413 79.0607 23.7935C78.9274 23.6452 78.744 23.5713 78.5105 23.5713ZM78.6444 26.6194C78.1069 26.6194 77.6865 26.4617 77.3825 26.1457C77.0797 25.8297 76.9277 25.3941 76.9277 24.84C76.9277 24.2714 77.0681 23.8246 77.3505 23.4986C77.6312 23.1733 78.0184 23.0109 78.5105 23.0109C78.967 23.0109 79.3274 23.1504 79.5924 23.4295C79.8573 23.7085 79.9901 24.0931 79.9901 24.5821V24.9819H77.6847C77.6952 25.3196 77.7861 25.5799 77.9567 25.7611C78.1279 25.9428 78.3689 26.0337 78.6793 26.0337C78.8837 26.0337 79.0741 26.0143 79.2506 25.9757C79.4264 25.9364 79.6151 25.8719 79.8177 25.7822V26.3831C79.6384 26.4693 79.4573 26.5303 79.2739 26.5654C79.0898 26.6018 78.8808 26.6194 78.6444 26.6194Z"
          fill="white"/>
    <path fill-rule="evenodd" clip-rule="evenodd"
          d="M82.5606 23.6343H81.7168V26.5563H80.9784V23.6343H80.4089V23.2878L80.9784 23.0609V22.8346C80.9784 22.423 81.0739 22.1182 81.2661 21.9194C81.4577 21.7212 81.7506 21.6216 82.1448 21.6216C82.4034 21.6216 82.6578 21.665 82.9082 21.7511L82.7143 22.3116C82.5326 22.253 82.3597 22.2237 82.1949 22.2237C82.0283 22.2237 81.9066 22.2759 81.8304 22.379C81.7541 22.4834 81.7168 22.6394 81.7168 22.8469V23.0738H82.5606V23.6343Z"
          fill="white"/>
    <path fill-rule="evenodd" clip-rule="evenodd"
          d="M84.5246 23.5713C84.2911 23.5713 84.1036 23.6458 83.9633 23.7947C83.8223 23.9442 83.7385 24.1611 83.7117 24.4466H85.2816C85.2775 24.1588 85.2088 23.9413 85.0749 23.7935C84.9416 23.6452 84.7581 23.5713 84.5246 23.5713ZM84.6586 26.6194C84.1211 26.6194 83.7006 26.4617 83.3967 26.1457C83.0939 25.8297 82.9419 25.3941 82.9419 24.84C82.9419 24.2714 83.0822 23.8246 83.3647 23.4986C83.6453 23.1733 84.0326 23.0109 84.5246 23.0109C84.9812 23.0109 85.3416 23.1504 85.6066 23.4295C85.8715 23.7085 86.0043 24.0931 86.0043 24.5821V24.9819H83.6989C83.7094 25.3196 83.8002 25.5799 83.9708 25.7611C84.142 25.9428 84.3831 26.0337 84.6935 26.0337C84.8979 26.0337 85.0883 26.0143 85.2647 25.9757C85.4406 25.9364 85.6293 25.8719 85.8319 25.7822V26.3831C85.6526 26.4693 85.4715 26.5303 85.288 26.5654C85.104 26.6018 84.895 26.6194 84.6586 26.6194Z"
          fill="white"/>
    <path fill-rule="evenodd" clip-rule="evenodd"
          d="M88.5941 23.0107C88.742 23.0107 88.8637 23.0213 88.9598 23.0424L88.8876 23.7313C88.7833 23.7066 88.675 23.6938 88.5621 23.6938C88.2686 23.6938 88.0304 23.7905 87.8481 23.9834C87.6653 24.1768 87.5739 24.4278 87.5739 24.7361V26.5565H86.839V23.0735H87.4149L87.5116 23.6873H87.5488C87.6636 23.4798 87.8132 23.315 87.9984 23.1937C88.1824 23.0717 88.3815 23.0107 88.5941 23.0107Z"
          fill="white"/>
    <path fill-rule="evenodd" clip-rule="evenodd"
          d="M90.3104 24.7174L90.7268 24.1945L91.7715 23.0735H92.6193L91.227 24.5691L92.7066 26.5566H91.8437L90.7332 25.0287L90.3296 25.3629V26.5566H89.6006V21.6565H90.3296V24.0461L90.2924 24.7174H90.3104Z"
          fill="white"/>
    <path fill-rule="evenodd" clip-rule="evenodd"
          d="M94.6397 23.5713C94.4062 23.5713 94.2187 23.6458 94.0783 23.7947C93.9374 23.9442 93.8536 24.1611 93.8268 24.4466H95.3967C95.3926 24.1588 95.3239 23.9413 95.19 23.7935C95.0566 23.6452 94.8732 23.5713 94.6397 23.5713ZM94.7735 26.6194C94.2361 26.6194 93.8156 26.4617 93.5117 26.1457C93.2089 25.8297 93.0569 25.3941 93.0569 24.84C93.0569 24.2714 93.1972 23.8246 93.4796 23.4986C93.7603 23.1733 94.1476 23.0109 94.6396 23.0109C95.0962 23.0109 95.4566 23.1504 95.7216 23.4295C95.9865 23.7085 96.1193 24.0931 96.1193 24.5821V24.9819H93.8139C93.8244 25.3196 93.9152 25.5799 94.0858 25.7611C94.257 25.9428 94.4981 26.0337 94.8085 26.0337C95.0129 26.0337 95.2033 26.0143 95.3797 25.9757C95.5556 25.9364 95.7443 25.8719 95.9469 25.7822V26.3831C95.7676 26.4693 95.5865 26.5303 95.403 26.5654C95.219 26.6018 95.01 26.6194 94.7735 26.6194Z"
          fill="white"/>
    <path fill-rule="evenodd" clip-rule="evenodd"
          d="M98.2427 26.0212C98.4221 26.0212 98.6015 25.9925 98.7808 25.9356V26.4937C98.6993 26.5289 98.5945 26.5588 98.4664 26.5834C98.3382 26.6075 98.2055 26.6198 98.0675 26.6198C97.371 26.6198 97.0228 26.2499 97.0228 25.5111V23.6345H96.5505V23.3068L97.0577 23.0359L97.3081 22.299H97.7612V23.074H98.7465V23.6345H97.7612V25.4982C97.7612 25.6765 97.8054 25.809 97.8939 25.8934C97.983 25.979 98.0989 26.0212 98.2427 26.0212Z"
          fill="white"/>
    <path fill-rule="evenodd" clip-rule="evenodd"
          d="M100.76 26.0212C100.939 26.0212 101.119 25.9925 101.298 25.9356V26.4937C101.217 26.5289 101.112 26.5588 100.984 26.5834C100.856 26.6075 100.723 26.6198 100.585 26.6198C99.8884 26.6198 99.5401 26.2499 99.5401 25.5111V23.6345H99.0679V23.3068L99.5751 23.0359L99.8255 22.299H100.279V23.074H101.264V23.6345H100.279V25.4982C100.279 25.6765 100.323 25.809 100.411 25.8934C100.5 25.979 100.616 26.0212 100.76 26.0212Z"
          fill="white"/>
    <path fill-rule="evenodd" clip-rule="evenodd"
          d="M103.366 23.5713C103.132 23.5713 102.945 23.6458 102.804 23.7947C102.664 23.9442 102.58 24.1611 102.553 24.4466H104.123C104.119 24.1588 104.05 23.9413 103.916 23.7935C103.783 23.6452 103.599 23.5713 103.366 23.5713ZM103.5 26.6194C102.962 26.6194 102.542 26.4617 102.238 26.1457C101.935 25.8297 101.783 25.3941 101.783 24.84C101.783 24.2714 101.923 23.8246 102.206 23.4986C102.487 23.1733 102.874 23.0109 103.366 23.0109C103.822 23.0109 104.183 23.1504 104.448 23.4295C104.713 23.7085 104.845 24.0931 104.845 24.5821V24.9819H102.54C102.551 25.3196 102.641 25.5799 102.812 25.7611C102.983 25.9428 103.224 26.0337 103.535 26.0337C103.739 26.0337 103.929 26.0143 104.106 25.9757C104.282 25.9364 104.47 25.8719 104.673 25.7822V26.3831C104.494 26.4693 104.313 26.5303 104.129 26.5654C103.945 26.6018 103.736 26.6194 103.5 26.6194Z"
          fill="white"/>
    <path fill-rule="evenodd" clip-rule="evenodd"
          d="M108.724 26.5565H107.985V24.4155C107.985 24.1464 107.932 23.9458 107.824 23.8134C107.717 23.6814 107.547 23.6152 107.313 23.6152C107.002 23.6152 106.775 23.7078 106.631 23.8925C106.487 24.0772 106.415 24.3867 106.415 24.8212V26.5565H105.68V23.0741H106.256L106.359 23.5302H106.397C106.501 23.3649 106.649 23.2365 106.84 23.1462C107.033 23.0559 107.245 23.0107 107.478 23.0107C108.308 23.0107 108.724 23.4358 108.724 24.2859V26.5565Z"
          fill="white"/>
</svg>
