<svg width="14" height="15" viewBox="0 0 14 15" fill="none" xmlns="http://www.w3.org/2000/svg">
<path d="M4.08317 10.7431V10.2431H4.08317L4.08317 10.7431ZM9.9165 10.7431V10.2431V10.7431ZM10.6126 8.84777L10.9558 8.48416L10.6126 8.84777ZM3.72074 10.7431L3.72074 10.2431L3.72074 10.7431ZM10.2789 10.7431L10.2789 11.2431L10.2789 10.7431ZM4.58317 5.75427C4.58317 4.6497 5.4786 3.75427 6.58317 3.75427V2.75427C4.92632 2.75427 3.58317 4.09742 3.58317 5.75427H4.58317ZM4.58317 7.67747V5.75427H3.58317V7.67747H4.58317ZM3.4165 9.93881C3.4165 9.65217 3.53645 9.39436 3.73031 9.21139L3.04392 8.48416C2.65825 8.84817 2.4165 9.36566 2.4165 9.93881H3.4165ZM4.08317 10.2431H3.72074L3.72074 11.2431H4.08317L4.08317 10.2431ZM9.9165 10.2431H4.08317V11.2431H9.9165V10.2431ZM10.2789 10.2431H9.9165V11.2431H10.2789L10.2789 10.2431ZM10.2694 9.21139C10.4632 9.39436 10.5832 9.65217 10.5832 9.93881H11.5832C11.5832 9.36566 11.3414 8.84817 10.9558 8.48416L10.2694 9.21139ZM9.4165 5.75427V7.67747H10.4165V5.75427H9.4165ZM7.4165 3.75427C8.52107 3.75427 9.4165 4.6497 9.4165 5.75427H10.4165C10.4165 4.09742 9.07336 2.75427 7.4165 2.75427V3.75427ZM6.58317 3.75427H7.4165V2.75427H6.58317V3.75427ZM10.9558 8.48416C10.7903 8.32797 10.6502 8.18328 10.5511 8.03704C10.4541 7.89401 10.4165 7.77854 10.4165 7.67747H9.4165C9.4165 8.04343 9.55708 8.35283 9.72326 8.59805C9.88728 8.84007 10.0952 9.04701 10.2694 9.21139L10.9558 8.48416ZM2.4165 9.93881C2.4165 10.6591 3.00043 11.2431 3.72074 11.2431L3.72074 10.2431C3.55272 10.2431 3.4165 10.1068 3.4165 9.93881H2.4165ZM10.2789 11.2431C10.9992 11.2431 11.5832 10.6591 11.5832 9.93881H10.5832C10.5832 10.1068 10.447 10.2431 10.2789 10.2431L10.2789 11.2431ZM3.58317 7.67747C3.58317 7.77854 3.54553 7.89401 3.4486 8.03704C3.3495 8.18328 3.2094 8.32797 3.04392 8.48416L3.73031 9.21139C3.90446 9.04701 4.11239 8.84007 4.27641 8.59805C4.4426 8.35283 4.58317 8.04343 4.58317 7.67747H3.58317Z" fill="black"/>
<path d="M8.04876 12.4002C7.95171 12.5967 7.80004 12.7619 7.61148 12.8765C7.42292 12.991 7.20524 13.0502 6.98387 13.0472C6.76251 13.0441 6.54659 12.9789 6.36134 12.8592C6.17609 12.7395 6.02915 12.5702 5.9377 12.3711" stroke="black" stroke-linecap="round" stroke-linejoin="round"/>
<path d="M7 2.67822V3.25428" stroke="black" stroke-linecap="round" stroke-linejoin="round"/>
</svg>
