<svg width="26" height="26" viewBox="0 0 26 26" fill="none" xmlns="http://www.w3.org/2000/svg">
<path d="M16 12.5H23.5V10.5H16V12.5ZM24 13V23.5H26V13H24ZM23.5 24H16V26H23.5V24ZM15.5 23.5V13H13.5V23.5H15.5ZM2.5 2H8.5V0H2.5V2ZM9 2.5V13H11V2.5H9ZM8.5 13.5H2.5V15.5H8.5V13.5ZM2 13V2.5H0V13H2ZM2.5 13.5C2.22386 13.5 2 13.2761 2 13H0C0 14.3807 1.11929 15.5 2.5 15.5V13.5ZM9 13C9 13.2761 8.77614 13.5 8.5 13.5V15.5C9.88071 15.5 11 14.3807 11 13H9ZM8.5 2C8.77614 2 9 2.22386 9 2.5H11C11 1.11929 9.88071 0 8.5 0V2ZM2.5 0C1.11929 0 0 1.11929 0 2.5H2C2 2.22386 2.22386 2 2.5 2V0ZM2.5 20H8.5V18H2.5V20ZM9 20.5V23.5H11V20.5H9ZM8.5 24H2.5V26H8.5V24ZM2 23.5V20.5H0V23.5H2ZM2.5 24C2.22386 24 2 23.7761 2 23.5H0C0 24.8807 1.11929 26 2.5 26V24ZM9 23.5C9 23.7761 8.77614 24 8.5 24V26C9.88071 26 11 24.8807 11 23.5H9ZM8.5 20C8.77614 20 9 20.2239 9 20.5H11C11 19.1193 9.88071 18 8.5 18V20ZM2.5 18C1.11929 18 0 19.1193 0 20.5H2C2 20.2239 2.22386 20 2.5 20V18ZM16 2H23.5V0H16V2ZM24 2.5V5.5H26V2.5H24ZM23.5 6H16V8H23.5V6ZM15.5 5.5V2.5H13.5V5.5H15.5ZM16 6C15.7239 6 15.5 5.77614 15.5 5.5H13.5C13.5 6.88071 14.6193 8 16 8V6ZM24 5.5C24 5.77614 23.7761 6 23.5 6V8C24.8807 8 26 6.88071 26 5.5H24ZM23.5 2C23.7761 2 24 2.22386 24 2.5H26C26 1.11929 24.8807 0 23.5 0V2ZM16 0C14.6193 0 13.5 1.11929 13.5 2.5H15.5C15.5 2.22386 15.7239 2 16 2V0ZM16 24C15.7239 24 15.5 23.7761 15.5 23.5H13.5C13.5 24.8807 14.6193 26 16 26V24ZM24 23.5C24 23.7761 23.7761 24 23.5 24V26C24.8807 26 26 24.8807 26 23.5H24ZM23.5 12.5C23.7761 12.5 24 12.7239 24 13H26C26 11.6193 24.8807 10.5 23.5 10.5V12.5ZM16 10.5C14.6193 10.5 13.5 11.6193 13.5 13H15.5C15.5 12.7239 15.7239 12.5 16 12.5V10.5Z" fill="white"/>
</svg>
