<svg width="19" height="19" viewBox="0 0 19 19" fill="none" xmlns="http://www.w3.org/2000/svg">
<path d="M9 1.99997H3C1.89543 1.99997 1 2.8954 1 3.99997V16C1 17.1045 1.89543 18 3 18H15C16.1046 18 17 17.1045 17 16V9.99997M15.4142 6.41417L16.5 5.32842C17.281 4.54737 17.281 3.28104 16.5 2.5C15.7189 1.71895 14.4526 1.71895 13.6715 2.50001L12.5858 3.58575M15.4142 6.41417L9.37795 12.4505C9.09875 12.7297 8.74315 12.9201 8.35596 12.9975L5.41422 13.5858L6.00257 10.6441C6.08001 10.2569 6.27032 9.90131 6.54951 9.62211L12.5858 3.58575M15.4142 6.41417L12.5858 3.58575" stroke="white" stroke-width="2" stroke-linecap="round" stroke-linejoin="round"/>
</svg>
