<svg width="24" height="27" viewBox="0 0 24 27" fill="none" xmlns="http://www.w3.org/2000/svg">
<path d="M13 13.96C13 13.4077 12.5523 12.96 12 12.96C11.4477 12.96 11 13.4077 11 13.96H13ZM11 16.96C11 17.5122 11.4477 17.96 12 17.96C12.5523 17.96 13 17.5122 13 16.96H11ZM11 13.96V16.96H13V13.96H11Z" fill="#FF8D69"/>
<circle cx="12" cy="11" r="1" fill="#FF8D69"/>
<path d="M3.83827 18.5097L11.1284 5.54947C11.5107 4.86982 12.4893 4.86982 12.8716 5.54947L20.1617 18.5097C20.5367 19.1763 20.055 20 19.2902 20H4.70985C3.94502 20 3.46331 19.1763 3.83827 18.5097Z" stroke="#FF8D69" stroke-width="2" stroke-linecap="round" stroke-linejoin="round"/>
</svg>
