<svg width="18" height="18" viewBox="0 0 18 18" fill="none" xmlns="http://www.w3.org/2000/svg">
<path fill-rule="evenodd" clip-rule="evenodd" d="M15.536 0.622478C15.536 0.278693 15.2573 0 14.9135 0C14.5698 0 14.2911 0.278693 14.2911 0.622478V2.46398H12.4496C12.1058 2.46398 11.8271 2.74267 11.8271 3.08646C11.8271 3.43024 12.1058 3.70893 12.4496 3.70893H14.2911V5.55043C14.2911 5.89422 14.5698 6.17291 14.9135 6.17291C15.2573 6.17291 15.536 5.89422 15.536 5.55043V3.70893H17.3775C17.7213 3.70893 18 3.43024 18 3.08646C18 2.74267 17.7213 2.46398 17.3775 2.46398H15.536V0.622478ZM3.58467 0.985591L3.61038 0.985591H9.4928C9.83658 0.985591 10.1153 1.26428 10.1153 1.60807C10.1153 1.95185 9.83658 2.23055 9.4928 2.23055H3.61038C3.07717 2.23055 2.71471 2.23103 2.43454 2.25392C2.16163 2.27622 2.02207 2.31663 1.92472 2.36624C1.69046 2.4856 1.50001 2.67605 1.38065 2.91031C1.33104 3.00766 1.29063 3.14722 1.26833 3.42013C1.24544 3.7003 1.24496 4.06276 1.24496 4.59597V11.9324L4.67011 8.50721C5.1563 8.02102 5.94456 8.02102 6.43075 8.50721L9.4928 11.5693L12.0621 9C12.5483 8.51381 13.3365 8.51382 13.8227 9L15.7695 10.9468V8.50721C15.7695 8.16342 16.0481 7.88473 16.3919 7.88473C16.7357 7.88473 17.0144 8.16342 17.0144 8.50721V14.3896V14.4154V14.4154C17.0144 14.9165 17.0144 15.33 16.9869 15.6668C16.9583 16.0167 16.897 16.3384 16.743 16.6405C16.5043 17.109 16.1234 17.4899 15.6549 17.7286C15.3528 17.8825 15.0311 17.9439 14.6813 17.9725C14.3444 18 13.9309 18 13.4298 18H13.4298H13.404H3.61038H3.58465H3.58458C3.08354 18 2.67002 18 2.33316 17.9725C1.98326 17.9439 1.66163 17.8825 1.35952 17.7286C0.89101 17.4899 0.510101 17.109 0.271385 16.6405C0.117452 16.3384 0.0560975 16.0167 0.0275101 15.6668C-1.42727e-05 15.33 -7.71618e-06 14.9164 2.70846e-07 14.4153L5.09265e-07 14.3896V4.59597L2.70846e-07 4.57026C-7.71618e-06 4.06918 -1.42727e-05 3.65563 0.0275101 3.31875C0.0560975 2.96885 0.117452 2.64722 0.271385 2.34511C0.510101 1.8766 0.89101 1.49569 1.35952 1.25698C1.66163 1.10304 1.98326 1.04169 2.33316 1.0131C2.67004 0.985576 3.08359 0.985583 3.58467 0.985591ZM1.24496 14.3896V13.693L5.55043 9.38752L9.05264 12.8897L11.2702 15.1073C11.5133 15.3504 11.9074 15.3504 12.1505 15.1073C12.3936 14.8642 12.3936 14.4701 12.1505 14.227L10.3731 12.4496L12.9424 9.88032L15.7695 12.7074V14.3896C15.7695 14.9228 15.769 15.2853 15.7461 15.5655C15.7238 15.8384 15.6834 15.9779 15.6338 16.0753C15.5144 16.3095 15.3239 16.5 15.0897 16.6194C14.9923 16.669 14.8528 16.7094 14.5799 16.7317C14.2997 16.7546 13.9372 16.755 13.404 16.755H3.61038C3.07717 16.755 2.71471 16.7546 2.43454 16.7317C2.16163 16.7094 2.02207 16.669 1.92472 16.6194C1.69046 16.5 1.50001 16.3095 1.38065 16.0753C1.33104 15.9779 1.29063 15.8384 1.26833 15.5655C1.24544 15.2853 1.24496 14.9228 1.24496 14.3896Z" fill="black"/>
</svg>
