<svg width="29" height="29" viewBox="0 0 29 29" fill="none" xmlns="http://www.w3.org/2000/svg">
<g filter="url(#filter0_d_112_1107)">
<rect width="22.1154" height="22.1154" transform="translate(3.88477 3.88452)" fill="white"/>
<path fill-rule="evenodd" clip-rule="evenodd" d="M14.9427 6.64893C12.6902 6.64893 12.4083 6.65832 11.5236 6.69869C10.6407 6.73905 10.0375 6.87948 9.51004 7.0846C8.95715 7.29248 8.45569 7.61869 8.04102 8.04109C7.6193 8.45527 7.29289 8.95639 7.08453 9.50955C6.88052 10.037 6.73953 10.6408 6.69917 11.5237C6.65937 12.4078 6.64941 12.6892 6.64941 14.9422C6.64941 17.1952 6.65881 17.4766 6.69917 18.3612C6.73953 19.2442 6.87997 19.8474 7.08509 20.3748C7.29297 20.9277 7.61917 21.4292 8.04158 21.8439C8.45577 22.2656 8.95688 22.592 9.51004 22.8003C10.0375 23.0049 10.6407 23.1453 11.5236 23.1857C12.4083 23.2261 12.6902 23.2355 14.9427 23.2355C17.1951 23.2355 17.4771 23.2261 18.3617 23.1857C19.2447 23.1453 19.8479 23.0049 20.3753 22.7998C20.9282 22.5919 21.4297 22.2657 21.8443 21.8433C22.2661 21.4291 22.5925 20.928 22.8008 20.3748C23.0054 19.8474 23.1458 19.2442 23.1862 18.3612C23.2266 17.4766 23.236 17.1946 23.236 14.9422C23.236 12.6897 23.2266 12.4078 23.1862 11.5232C23.1458 10.6402 23.0054 10.037 22.8003 9.50955C22.5921 8.95615 22.2657 8.45482 21.8438 8.04054C21.4296 7.61881 20.9285 7.29241 20.3753 7.08405C19.8479 6.88003 19.2441 6.73905 18.3612 6.69869C17.4771 6.65888 17.1957 6.64893 14.9427 6.64893ZM14.9427 8.14337C17.157 8.14337 17.4196 8.15167 18.2943 8.19147C19.1026 8.22852 19.5416 8.36287 19.8341 8.47732C20.2211 8.62715 20.4975 8.80739 20.7878 9.0971C21.078 9.38736 21.2577 9.66381 21.4076 10.0508C21.5215 10.3433 21.6564 10.7823 21.6934 11.5906C21.7332 12.4653 21.7415 12.7279 21.7415 14.9422C21.7415 17.1565 21.7332 17.4191 21.6934 18.2938C21.6564 19.1021 21.522 19.5411 21.4076 19.8336C21.2748 20.1938 21.063 20.5197 20.7878 20.7873C20.5202 21.0626 20.1943 21.2744 19.8341 21.4071C19.5416 21.521 19.1026 21.6559 18.2943 21.6929C17.4196 21.7327 17.1575 21.741 14.9427 21.741C12.7278 21.741 12.4658 21.7327 11.5911 21.6929C10.7828 21.6559 10.3438 21.5215 10.0513 21.4071C9.69108 21.2743 9.36519 21.0626 9.09759 20.7873C8.82235 20.5197 8.61057 20.1938 8.4778 19.8336C8.36391 19.5411 8.22901 19.1021 8.19196 18.2938C8.15215 17.4191 8.14386 17.1565 8.14386 14.9422C8.14386 12.7279 8.15215 12.4653 8.19196 11.5906C8.22901 10.7823 8.36336 10.3433 8.4778 10.0508C8.62764 9.66381 8.80788 9.38736 9.09759 9.0971C9.36515 8.82179 9.69106 8.60999 10.0513 8.47732C10.3438 8.36342 10.7828 8.22852 11.5911 8.19147C12.4658 8.15167 12.7284 8.14337 14.9427 8.14337Z" fill="black"/>
<path fill-rule="evenodd" clip-rule="evenodd" d="M14.9424 17.7094C14.579 17.7094 14.2192 17.6379 13.8835 17.4988C13.5477 17.3597 13.2427 17.1559 12.9857 16.899C12.7288 16.642 12.5249 16.3369 12.3859 16.0012C12.2468 15.6655 12.1752 15.3057 12.1752 14.9423C12.1752 14.5789 12.2468 14.219 12.3859 13.8833C12.5249 13.5476 12.7288 13.2425 12.9857 12.9856C13.2427 12.7286 13.5477 12.5248 13.8835 12.3857C14.2192 12.2466 14.579 12.1751 14.9424 12.1751C15.6763 12.1751 16.3802 12.4666 16.8991 12.9856C17.4181 13.5045 17.7096 14.2084 17.7096 14.9423C17.7096 15.6762 17.4181 16.38 16.8991 16.899C16.3802 17.4179 15.6763 17.7094 14.9424 17.7094ZM14.9424 10.6795C13.8119 10.6795 12.7276 11.1286 11.9282 11.928C11.1288 12.7275 10.6797 13.8117 10.6797 14.9423C10.6797 16.0728 11.1288 17.1571 11.9282 17.9565C12.7276 18.7559 13.8119 19.205 14.9424 19.205C16.073 19.205 17.1572 18.7559 17.9566 17.9565C18.7561 17.1571 19.2052 16.0728 19.2052 14.9423C19.2052 13.8117 18.7561 12.7275 17.9566 11.928C17.1572 11.1286 16.073 10.6795 14.9424 10.6795ZM20.4453 10.6021C20.4453 10.8694 20.3391 11.1257 20.1502 11.3146C19.9612 11.5036 19.7049 11.6097 19.4377 11.6097C19.1704 11.6097 18.9141 11.5036 18.7252 11.3146C18.5362 11.1257 18.43 10.8694 18.43 10.6021C18.43 10.3349 18.5362 10.0786 18.7252 9.88961C18.9141 9.70064 19.1704 9.59448 19.4377 9.59448C19.7049 9.59448 19.9612 9.70064 20.1502 9.88961C20.3391 10.0786 20.4453 10.3349 20.4453 10.6021Z" fill="black"/>
</g>
<defs>
<filter id="filter0_d_112_1107" x="0.884766" y="0.884521" width="28.1152" height="28.1155" filterUnits="userSpaceOnUse" color-interpolation-filters="sRGB">
<feFlood flood-opacity="0" result="BackgroundImageFix"/>
<feColorMatrix in="SourceAlpha" type="matrix" values="0 0 0 0 0 0 0 0 0 0 0 0 0 0 0 0 0 0 127 0" result="hardAlpha"/>
<feOffset/>
<feGaussianBlur stdDeviation="1.5"/>
<feComposite in2="hardAlpha" operator="out"/>
<feColorMatrix type="matrix" values="0 0 0 0 0 0 0 0 0 0 0 0 0 0 0 0 0 0 0.25 0"/>
<feBlend mode="normal" in2="BackgroundImageFix" result="effect1_dropShadow_112_1107"/>
<feBlend mode="normal" in="SourceGraphic" in2="effect1_dropShadow_112_1107" result="shape"/>
</filter>
</defs>
</svg>
