<svg width="23" height="22" viewBox="0 0 23 22" fill="none" xmlns="http://www.w3.org/2000/svg">
<path d="M15 16.5C15 15.9477 14.5523 15.5 14 15.5C13.4477 15.5 13 15.9477 13 16.5H15ZM13 8.0625C13 8.61478 13.4477 9.0625 14 9.0625C14.5523 9.0625 15 8.61478 15 8.0625H13ZM10 11C9.44772 11 9 11.4477 9 12C9 12.5523 9.44772 13 10 13V11ZM20 12L20.7071 12.7071C21.0976 12.3166 21.0976 11.6834 20.7071 11.2929L20 12ZM18.2071 8.79289C17.8166 8.40237 17.1834 8.40237 16.7929 8.79289C16.4024 9.18342 16.4024 9.81658 16.7929 10.2071L18.2071 8.79289ZM16.7929 13.7929C16.4024 14.1834 16.4024 14.8166 16.7929 15.2071C17.1834 15.5976 17.8166 15.5976 18.2071 15.2071L16.7929 13.7929ZM5 4H12V2H5V4ZM12 20H5V22H12V20ZM4 19V5H2V19H4ZM13 16.5V19H15V16.5H13ZM10 13H20V11H10V13ZM20.7071 11.2929L18.2071 8.79289L16.7929 10.2071L19.2929 12.7071L20.7071 11.2929ZM19.2929 11.2929L16.7929 13.7929L18.2071 15.2071L20.7071 12.7071L19.2929 11.2929ZM5 20C4.44772 20 4 19.5523 4 19H2C2 20.6569 3.34315 22 5 22V20ZM12 22C13.6569 22 15 20.6569 15 19H13C13 19.5523 12.5523 20 12 20V22ZM12 4C12.5523 4 13 4.44772 13 5H15C15 3.34315 13.6569 2 12 2V4ZM5 2C3.34315 2 2 3.34315 2 5H4C4 4.44772 4.44772 4 5 4V2ZM13 5V8.0625H15V5H13Z" fill="black"/>
</svg>
