<svg width="20" height="20" viewBox="0 0 20 20" fill="none" xmlns="http://www.w3.org/2000/svg">
<path d="M14.9696 17.5047L15.5225 18.3379L14.9696 17.5047ZM5.03036 17.5047L4.47747 18.3379L5.03036 17.5047ZM9 15H11V13H9V15ZM2 10C2 5.58172 5.58172 2 10 2V0C4.47715 0 0 4.47715 0 10H2ZM10 2C14.4183 2 18 5.58172 18 10H20C20 4.47715 15.5228 0 10 0V2ZM12 8C12 9.10457 11.1046 10 10 10V12C12.2091 12 14 10.2091 14 8H12ZM10 10C8.89543 10 8 9.10457 8 8H6C6 10.2091 7.79086 12 10 12V10ZM8 8C8 6.89543 8.89543 6 10 6V4C7.79086 4 6 5.79086 6 8H8ZM10 6C11.1046 6 12 6.89543 12 8H14C14 5.79086 12.2091 4 10 4V6ZM11 15C12.5303 15 13.7943 16.1467 13.9772 17.6273L15.9621 17.3821C15.657 14.9118 13.5525 13 11 13V15ZM18 10C18 12.7844 16.5784 15.2371 14.4167 16.6714L15.5225 18.3379C18.2189 16.5488 20 13.4826 20 10H18ZM14.4167 16.6714C13.1515 17.511 11.6344 18 10 18V20C12.0398 20 13.9397 19.3882 15.5225 18.3379L14.4167 16.6714ZM6.02282 17.6273C6.20567 16.1467 7.46968 15 9 15V13C6.44747 13 4.34299 14.9118 4.0379 17.3821L6.02282 17.6273ZM10 18C8.36561 18 6.84849 17.511 5.58326 16.6714L4.47747 18.3379C6.06034 19.3882 7.96025 20 10 20V18ZM5.58326 16.6714C3.42161 15.2371 2 12.7844 2 10H0C0 13.4826 1.78112 16.5488 4.47747 18.3379L5.58326 16.6714Z" fill="white"/>
</svg>
