<svg width="14" height="15" viewBox="0 0 14 15" fill="none" xmlns="http://www.w3.org/2000/svg">
<path fill-rule="evenodd" clip-rule="evenodd" d="M6 0C4.75736 0 3.75 1.00736 3.75 2.25V3H2.25H0.75C0.335786 3 0 3.33579 0 3.75C0 4.16421 0.335786 4.5 0.75 4.5H1.5V12C1.5 13.6569 2.84315 15 4.5 15H9C10.6569 15 12 13.6569 12 12V4.5H12.75C13.1642 4.5 13.5 4.16421 13.5 3.75C13.5 3.33579 13.1642 3 12.75 3H11.25H9.75V2.25C9.75 1.00736 8.74264 0 7.5 0H6ZM8.25 3V2.25C8.25 1.83579 7.91421 1.5 7.5 1.5H6C5.58579 1.5 5.25 1.83579 5.25 2.25V3H6.75H8.25ZM4.5 4.5H3V12C3 12.8284 3.67157 13.5 4.5 13.5H9C9.82843 13.5 10.5 12.8284 10.5 12V4.5H9H6.75H4.5ZM5.25 6C5.66421 6 6 6.33579 6 6.75V11.25C6 11.6642 5.66421 12 5.25 12C4.83579 12 4.5 11.6642 4.5 11.25V6.75C4.5 6.33579 4.83579 6 5.25 6ZM8.25 6C8.66421 6 9 6.33579 9 6.75V11.25C9 11.6642 8.66421 12 8.25 12C7.83579 12 7.5 11.6642 7.5 11.25V6.75C7.5 6.33579 7.83579 6 8.25 6Z" fill="black"/>
</svg>
