<svg width="19" height="19" viewBox="0 0 19 19" fill="none" xmlns="http://www.w3.org/2000/svg">
<path d="M1 6.31372L0.744282 5.49561C0.417352 5.5978 0.182649 5.88482 0.147406 6.22553C0.112163 6.56624 0.283148 6.89522 0.58224 7.06216L1 6.31372ZM18 1L18.8155 1.26385C18.9141 0.959006 18.8345 0.624611 18.6091 0.396932C18.3837 0.169252 18.0501 0.0863045 17.7443 0.181891L18 1ZM12.5 18L11.7437 18.4034C11.9056 18.7069 12.2332 18.8842 12.5758 18.8538C12.9184 18.8234 13.2096 18.5911 13.3155 18.2638L12.5 18ZM1.25572 7.13183L18.2557 1.81811L17.7443 0.181891L0.744282 5.49561L1.25572 7.13183ZM17.1845 0.736154L11.6845 17.7362L13.3155 18.2638L18.8155 1.26385L17.1845 0.736154ZM13.2563 17.5966L9.2563 10.0966L7.7437 10.9034L11.7437 18.4034L13.2563 17.5966ZM8.91776 9.75155L1.41776 5.56527L0.58224 7.06216L8.08224 11.2484L8.91776 9.75155ZM9.10609 11.1061L18.6061 1.60609L17.3939 0.393908L7.89391 9.89391L9.10609 11.1061Z" fill="white"/>
</svg>
