<svg width="64" height="67" viewBox="0 0 64 67" fill="none" xmlns="http://www.w3.org/2000/svg">
<path d="M0.874837 59.8333C0.874837 61.6513 2.34857 63.125 4.1665 63.125C5.98444 63.125 7.45817 61.6513 7.45817 59.8333H0.874837ZM32.9686 43.375C34.7865 43.375 36.2603 41.9013 36.2603 40.0833C36.2603 38.2654 34.7865 36.7917 32.9686 36.7917V43.375ZM52.0126 39.9664C52.0126 38.1485 50.5389 36.6747 48.7209 36.6747C46.903 36.6747 45.4293 38.1485 45.4293 39.9664H52.0126ZM45.4293 63.242C45.4293 65.0599 46.903 66.5337 48.7209 66.5337C50.5389 66.5337 52.0126 65.0599 52.0126 63.242H45.4293ZM60.3587 54.8959C62.1767 54.8959 63.6504 53.4221 63.6504 51.6042C63.6504 49.7863 62.1767 48.3125 60.3587 48.3125V54.8959ZM37.0831 48.3125C35.2652 48.3125 33.7915 49.7863 33.7915 51.6042C33.7915 53.4221 35.2652 54.8959 37.0831 54.8959V48.3125ZM7.45817 59.8333V56.5417H0.874837V59.8333H7.45817ZM37.0832 17.0417C37.0832 22.4955 32.662 26.9167 27.2082 26.9167V33.5C36.2979 33.5 43.6665 26.1314 43.6665 17.0417H37.0832ZM27.2082 26.9167C21.7544 26.9167 17.3332 22.4955 17.3332 17.0417H10.7498C10.7498 26.1314 18.1185 33.5 27.2082 33.5V26.9167ZM17.3332 17.0417C17.3332 11.5879 21.7544 7.16667 27.2082 7.16667V0.583333C18.1185 0.583333 10.7498 7.95198 10.7498 17.0417H17.3332ZM27.2082 7.16667C32.662 7.16667 37.0832 11.5879 37.0832 17.0417H43.6665C43.6665 7.95198 36.2979 0.583333 27.2082 0.583333V7.16667ZM45.4293 39.9664V51.6042H52.0126V39.9664H45.4293ZM45.4293 51.6042V63.242H52.0126V51.6042H45.4293ZM48.7209 54.8959H60.3587V48.3125H48.7209V54.8959ZM48.7209 48.3125H37.0831V54.8959H48.7209V48.3125ZM7.45817 56.5417C7.45817 49.2699 13.3531 43.375 20.6248 43.375V36.7917C9.71721 36.7917 0.874837 45.634 0.874837 56.5417H7.45817ZM20.6248 43.375H32.9686V36.7917H20.6248V43.375Z" fill="#E2E2E2"/>
</svg>
