<svg width="18" height="18" viewBox="0 0 18 18" fill="none" xmlns="http://www.w3.org/2000/svg">
<path d="M6.89941 11.8271V7.88472L9.99699 9.8559L6.89941 11.8271Z" fill="black" stroke="black" stroke-width="1.97118" stroke-linecap="round" stroke-linejoin="round"/>
<path fill-rule="evenodd" clip-rule="evenodd" d="M15.536 0.622478C15.536 0.278693 15.2573 0 14.9135 0C14.5698 0 14.2911 0.278693 14.2911 0.622478V2.46398H12.4496C12.1058 2.46398 11.8271 2.74267 11.8271 3.08646C11.8271 3.43024 12.1058 3.70893 12.4496 3.70893H14.2911V5.55043C14.2911 5.89422 14.5698 6.17291 14.9135 6.17291C15.2573 6.17291 15.536 5.89422 15.536 5.55043V3.70893H17.3775C17.7213 3.70893 18 3.43024 18 3.08646C18 2.74267 17.7213 2.46398 17.3775 2.46398H15.536V0.622478ZM3.61038 0.985591L3.58467 0.985591C3.08359 0.985583 2.67004 0.985576 2.33316 1.0131C1.98326 1.04169 1.66163 1.10304 1.35952 1.25698C0.89101 1.49569 0.510101 1.8766 0.271385 2.34511C0.117452 2.64722 0.0560975 2.96885 0.0275101 3.31875C-1.42727e-05 3.65563 -7.71618e-06 4.06918 2.70846e-07 4.57026L5.09265e-07 4.59597V14.3896L2.70846e-07 14.4153C-7.71618e-06 14.9164 -1.42727e-05 15.33 0.0275101 15.6668C0.0560975 16.0167 0.117452 16.3384 0.271385 16.6405C0.510101 17.109 0.89101 17.4899 1.35952 17.7286C1.66163 17.8825 1.98326 17.9439 2.33316 17.9725C2.67002 18 3.08354 18 3.58458 18H3.58465H3.61038H13.404H13.4298H13.4298C13.9309 18 14.3444 18 14.6813 17.9725C15.0311 17.9439 15.3528 17.8825 15.6549 17.7286C16.1234 17.4899 16.5043 17.109 16.743 16.6405C16.897 16.3384 16.9583 16.0167 16.9869 15.6668C17.0144 15.33 17.0144 14.9165 17.0144 14.4154V14.4154V14.3896V8.50721C17.0144 8.16342 16.7357 7.88473 16.3919 7.88473C16.0481 7.88473 15.7695 8.16342 15.7695 8.50721V14.3896C15.7695 14.9228 15.769 15.2853 15.7461 15.5655C15.7238 15.8384 15.6834 15.9779 15.6338 16.0753C15.5144 16.3095 15.3239 16.5 15.0897 16.6194C14.9923 16.669 14.8528 16.7094 14.5799 16.7317C14.2997 16.7546 13.9372 16.755 13.404 16.755H3.61038C3.07717 16.755 2.71471 16.7546 2.43454 16.7317C2.16163 16.7094 2.02207 16.669 1.92472 16.6194C1.69046 16.5 1.50001 16.3095 1.38065 16.0753C1.33104 15.9779 1.29063 15.8384 1.26833 15.5655C1.24544 15.2853 1.24496 14.9228 1.24496 14.3896V4.59597C1.24496 4.06276 1.24544 3.7003 1.26833 3.42013C1.29063 3.14722 1.33104 3.00766 1.38065 2.91031C1.50001 2.67605 1.69046 2.4856 1.92472 2.36624C2.02207 2.31663 2.16163 2.27622 2.43454 2.25392C2.71471 2.23103 3.07717 2.23055 3.61038 2.23055H9.4928C9.83658 2.23055 10.1153 1.95185 10.1153 1.60807C10.1153 1.26428 9.83658 0.985591 9.4928 0.985591H3.61038Z" fill="black"/>
</svg>
