<svg id="LOGO" xmlns="http://www.w3.org/2000/svg" xmlns:xlink="http://www.w3.org/1999/xlink" viewBox="0 0 900 202.9"><defs><style>.cls-1{fill:none;}.cls-2,.cls-6{fill:#9da042;}.cls-2,.cls-3{fill-rule:evenodd;}.cls-3{fill:#ced075;}.cls-4{clip-path:url(#clip-path);}.cls-5{clip-path:url(#clip-path-2);}</style><clipPath id="clip-path"><path class="cls-1" d="M875.53,186.62a10.2,10.2,0,0,0,6.08-1.55,5.21,5.21,0,0,0,2.13-4.47,4.82,4.82,0,0,0-2.2-4.3,17.45,17.45,0,0,0-3.58-1.75,19,19,0,0,1-3.8-1.78,1.92,1.92,0,0,1-.87-1.58c0-1.27,1.11-1.91,3.34-1.91a14.87,14.87,0,0,1,5.41,1.33l1.37-3.18a15.8,15.8,0,0,0-6.63-1.42,9.81,9.81,0,0,0-5.61,1.41,4.55,4.55,0,0,0-2.06,4,4.93,4.93,0,0,0,1.22,3.45A12.6,12.6,0,0,0,875,177.5a25.48,25.48,0,0,1,2.75,1.23,5.05,5.05,0,0,1,1.42,1,1.84,1.84,0,0,1,.43,1.26q0,2.35-3.9,2.35a15.79,15.79,0,0,1-6.53-1.61v3.65A14.4,14.4,0,0,0,875.53,186.62Zm-24.31-.36v-9.91q0-3.72,1.24-5.3a4.66,4.66,0,0,1,3.92-1.59,3.58,3.58,0,0,1,2.94,1.14,5.32,5.32,0,0,1,.93,3.43v12.23h4.24v-13q0-7.28-7.16-7.28a8.68,8.68,0,0,0-3.67.77,5.92,5.92,0,0,0-2.55,2.2h-.22l-.59-2.61H847v19.89Zm-10.27,0V166.37h-4.23v19.89Zm-2.09-22.84a2.37,2.37,0,0,0,1.74-.62,2.7,2.7,0,0,0,0-3.44,2.37,2.37,0,0,0-1.74-.62,2.41,2.41,0,0,0-1.77.62,2.7,2.7,0,0,0,0,3.44A2.41,2.41,0,0,0,838.86,163.42Zm-17.35,20a3.44,3.44,0,0,1-2.38-.72,2.7,2.7,0,0,1-.79-2.06,3,3,0,0,1,1.36-2.73,8.83,8.83,0,0,1,4.34-1l2.56-.1v1.72a4.67,4.67,0,0,1-1.4,3.61A5.21,5.21,0,0,1,821.51,183.38Zm-1.33,3.24a9.11,9.11,0,0,0,3.74-.66,8.07,8.07,0,0,0,2.89-2.47H827l.84,2.77h3v-13.4q0-3.54-1.93-5.2a8.63,8.63,0,0,0-5.73-1.65,16.47,16.47,0,0,0-3.63.44,14.18,14.18,0,0,0-3.54,1.29l1.36,3a21.94,21.94,0,0,1,2.7-1.06,9.55,9.55,0,0,1,2.93-.45,3.62,3.62,0,0,1,2.76.94,4,4,0,0,1,.89,2.85v1.06l-3.43.11q-4.68.15-7,1.71a5.24,5.24,0,0,0-2.29,4.64A5.93,5.93,0,0,0,815.6,185,6.35,6.35,0,0,0,820.18,186.62Zm-24-.36v-9.87c0-2.5.42-4.27,1.25-5.33a4.66,4.66,0,0,1,3.91-1.6,3.55,3.55,0,0,1,2.94,1.14,5.32,5.32,0,0,1,.93,3.43v12.23h4.25v-13q0-7.28-7.23-7.28a7.69,7.69,0,0,0-3.59.79,5.81,5.81,0,0,0-2.4,2.23H796a34,34,0,0,0,.21-3.65v-7.1H792v28Zm-16.45.36a19.7,19.7,0,0,0,7-1.17v-3.68c-1.13.34-2.21.63-3.26.85a15.59,15.59,0,0,1-3.23.33,7.22,7.22,0,0,1-5.91-2.48q-2-2.47-2-7.32a11.26,11.26,0,0,1,2.12-7.25,7.09,7.09,0,0,1,5.83-2.62,10.38,10.38,0,0,1,3.12.47,22.82,22.82,0,0,1,2.81,1.11l1.55-3.58a16.53,16.53,0,0,0-7.45-1.69,13.16,13.16,0,0,0-6.67,1.64,10.72,10.72,0,0,0-4.34,4.71,16.17,16.17,0,0,0-1.5,7.17q0,6.51,3.09,10T779.75,186.62Zm-40,8.49q5.41,0,7.73-6.2L756,166.37h-4.57c-2.75,8-4.28,12.47-4.56,13.41a19,19,0,0,0-.6,2.4h-.14a21.1,21.1,0,0,0-1.23-4.53l-4-11.28h-4.61l8,19.89-.74,1.87q-1.24,3.54-4.3,3.54a10.11,10.11,0,0,1-2.17-.21v3.34A11.78,11.78,0,0,0,739.8,195.11Zm-6.53-8.85v-28h-4.22v28Zm-18-3.09a4.29,4.29,0,0,1-3.76-1.63c-.76-1.08-1.15-2.84-1.15-5.26v-.63a7.65,7.65,0,0,1,1.16-4.71,4.39,4.39,0,0,1,3.68-1.48,3.94,3.94,0,0,1,3.46,1.72,8.92,8.92,0,0,1,1.18,5.06,9.23,9.23,0,0,1-1.19,5.13A3.8,3.8,0,0,1,715.23,183.17Zm-4.91,11.94V187c0-.36-.08-1.38-.25-3.05h.25a7.65,7.65,0,0,0,11.7,0c1.41-1.83,2.12-4.36,2.12-7.61s-.7-5.77-2.08-7.57a6.91,6.91,0,0,0-5.8-2.7,6.64,6.64,0,0,0-5.94,3h-.21c-.3-1.4-.5-2.29-.6-2.66H706.1v28.74Zm-18-11.94a4.26,4.26,0,0,1-3.75-1.63c-.77-1.08-1.16-2.84-1.16-5.26v-.63a7.65,7.65,0,0,1,1.16-4.71,4.39,4.39,0,0,1,3.68-1.48,3.92,3.92,0,0,1,3.46,1.72,8.92,8.92,0,0,1,1.18,5.06,9.32,9.32,0,0,1-1.18,5.13A3.83,3.83,0,0,1,692.28,183.17Zm-4.91,11.94V187c0-.36-.08-1.38-.25-3.05h.25a7.65,7.65,0,0,0,11.7,0c1.41-1.83,2.12-4.36,2.12-7.61s-.7-5.77-2.08-7.57a6.9,6.9,0,0,0-5.8-2.7,6.64,6.64,0,0,0-5.94,3h-.21c-.3-1.4-.5-2.29-.59-2.66h-3.42v28.74Zm-20.61-8.49a8.4,8.4,0,0,0,3.72-.79,6,6,0,0,0,2.51-2.18h.21l.6,2.61h3.32V166.37h-4.24v9.91q0,3.74-1.25,5.33a4.67,4.67,0,0,1-3.91,1.59,3.57,3.57,0,0,1-2.93-1.14,5.27,5.27,0,0,1-.94-3.42V166.37h-4.26v13c0,2.44.59,4.25,1.78,5.45S664.35,186.62,666.76,186.62Zm-21.16,0a11,11,0,0,0,7-2,6.61,6.61,0,0,0,2.54-5.5,7,7,0,0,0-.63-3.09,6.62,6.62,0,0,0-2-2.36,20,20,0,0,0-4.24-2.25,23.61,23.61,0,0,1-3.57-1.7,4.58,4.58,0,0,1-1.42-1.38,3.46,3.46,0,0,1-.43-1.75,3,3,0,0,1,1.08-2.41,4.85,4.85,0,0,1,3.17-.9,16.5,16.5,0,0,1,6.26,1.47l1.36-3.51a18.47,18.47,0,0,0-7.52-1.65,9.69,9.69,0,0,0-6.27,1.89,6.29,6.29,0,0,0-2.34,5.18,7,7,0,0,0,1.47,4.49,12.21,12.21,0,0,0,5.08,3.33,17,17,0,0,1,4.6,2.43,3.28,3.28,0,0,1,1.12,2.5,3.18,3.18,0,0,1-1.22,2.61,6,6,0,0,1-3.77,1,15.79,15.79,0,0,1-3.76-.49,19.25,19.25,0,0,1-3.83-1.33v4.07A16.78,16.78,0,0,0,645.6,186.62Zm-21.69-.36v-28h-4.23v28Zm-19.45-2.88a3.43,3.43,0,0,1-2.37-.72,2.67,2.67,0,0,1-.79-2.06,3,3,0,0,1,1.36-2.73,8.83,8.83,0,0,1,4.34-1l2.55-.1v1.72a4.66,4.66,0,0,1-1.39,3.61A5.22,5.22,0,0,1,604.46,183.38Zm-1.33,3.24a9.08,9.08,0,0,0,3.74-.66,8.09,8.09,0,0,0,2.9-2.47h.14l.85,2.77h3v-13.4q0-3.54-1.93-5.2a8.63,8.63,0,0,0-5.73-1.65,16.47,16.47,0,0,0-3.63.44,14.26,14.26,0,0,0-3.55,1.29l1.37,3a21.33,21.33,0,0,1,2.7-1.06,9.5,9.5,0,0,1,2.93-.45,3.62,3.62,0,0,1,2.76.94,4,4,0,0,1,.89,2.85v1.06l-3.44.11q-4.67.15-7,1.71a5.26,5.26,0,0,0-2.28,4.64,5.93,5.93,0,0,0,1.65,4.48A6.33,6.33,0,0,0,603.13,186.62Zm-16.47-.36V175.87a6,6,0,0,1,1.57-4.3,5.4,5.4,0,0,1,4.11-1.66,7.66,7.66,0,0,1,1.87.22l.42-3.94a10.29,10.29,0,0,0-2.11-.18,6.16,6.16,0,0,0-3.42,1,7.86,7.86,0,0,0-2.59,2.83h-.21l-.56-3.51h-3.31v19.89Zm-20.61.36a8.33,8.33,0,0,0,3.71-.79,6,6,0,0,0,2.51-2.18h.22l.59,2.61h3.33V166.37h-4.25v9.91c0,2.49-.41,4.27-1.25,5.33A4.65,4.65,0,0,1,567,183.2a3.57,3.57,0,0,1-2.93-1.14,5.32,5.32,0,0,1-.94-3.42V166.37h-4.26v13c0,2.44.6,4.25,1.78,5.45S563.64,186.62,566.05,186.62Zm-15.07,0a12.27,12.27,0,0,0,2.29-.21,7.8,7.8,0,0,0,1.81-.51v-3.18a10.43,10.43,0,0,1-3.1.48,2.8,2.8,0,0,1-2-.72,3,3,0,0,1-.77-2.26V169.57h5.67v-3.2h-5.67V162h-2.6l-1.44,4.2-2.92,1.55v1.87H545v10.72Q545,186.62,551,186.62Zm-12.45-.36v-28H534.3v28Zm-20.61.36a8.33,8.33,0,0,0,3.71-.79,5.9,5.9,0,0,0,2.51-2.18h.22l.59,2.61h3.33V166.37H524v9.91c0,2.49-.41,4.27-1.25,5.33a4.65,4.65,0,0,1-3.91,1.59,3.57,3.57,0,0,1-2.93-1.14,5.33,5.33,0,0,1-.93-3.42V166.37h-4.27v13c0,2.44.6,4.25,1.78,5.45S515.51,186.62,517.92,186.62Zm-17.21,0a14,14,0,0,0,3.12-.29,8.42,8.42,0,0,0,2.42-1v-3.69a10.77,10.77,0,0,1-5.34,1.41,4.43,4.43,0,0,1-3.77-1.69,8.16,8.16,0,0,1-1.29-5q0-6.85,5.16-6.85a12.69,12.69,0,0,1,4.43,1l1.28-3.4a13.31,13.31,0,0,0-5.67-1.17q-4.64,0-7.1,2.7t-2.45,7.71q0,4.94,2.35,7.57T500.71,186.62Zm-14.07-.36V166.37h-4.22v19.89Zm-2.08-22.84a2.35,2.35,0,0,0,1.73-.62,2.7,2.7,0,0,0,0-3.44,2.35,2.35,0,0,0-1.73-.62,2.4,2.4,0,0,0-1.77.62,2.7,2.7,0,0,0,0,3.44A2.4,2.4,0,0,0,484.56,163.42Zm-13.8,22.84V175.87a6,6,0,0,1,1.58-4.3,5.4,5.4,0,0,1,4.11-1.66,7.72,7.72,0,0,1,1.87.22l.41-3.94a10.12,10.12,0,0,0-2.1-.18,6.17,6.17,0,0,0-3.43,1,7.93,7.93,0,0,0-2.58,2.83h-.22l-.55-3.51h-3.31v19.89Zm-18.85,5.94a6.79,6.79,0,0,1-3.46-.74,2.32,2.32,0,0,1-1.23-2.11,2.81,2.81,0,0,1,1.07-2.31,4.5,4.5,0,0,1,2.89-.85h3.2a7.33,7.33,0,0,1,3.44.55,2,2,0,0,1,.93,1.84,3,3,0,0,1-1.69,2.63A10.47,10.47,0,0,1,451.91,192.2Zm.85-15.51a3.64,3.64,0,0,1-2.76-1,4,4,0,0,1-1-2.88,4.38,4.38,0,0,1,.94-3,3.55,3.55,0,0,1,2.78-1,3.45,3.45,0,0,1,2.76,1.05,4.42,4.42,0,0,1,.91,3C456.43,175.39,455.21,176.69,452.76,176.69Zm-1,18.42q5.26,0,8.06-1.83a5.92,5.92,0,0,0,2.78-5.22,5,5,0,0,0-1.7-4.05,7.76,7.76,0,0,0-5-1.4h-3.48a5.47,5.47,0,0,1-2.34-.34,1.1,1.1,0,0,1-.64-1,2.36,2.36,0,0,1,1.37-2,10,10,0,0,0,1.72.14,8.94,8.94,0,0,0,5.85-1.76,6.49,6.49,0,0,0,1.81-6.78,5.34,5.34,0,0,0-.77-1.55l3.4-.63v-2.32H456a12.68,12.68,0,0,0-1.39-.24,13.85,13.85,0,0,0-1.77-.12,8.57,8.57,0,0,0-5.82,1.78,7.08,7.08,0,0,0-1.08,8.53,5.47,5.47,0,0,0,2.51,2.17,7.26,7.26,0,0,0-1.87,1.53,2.91,2.91,0,0,0-.63,1.89,2.88,2.88,0,0,0,.55,1.68,3.18,3.18,0,0,0,1.39,1.16,6.19,6.19,0,0,0-3.25,1.74,4.37,4.37,0,0,0-1.16,3.08,4.66,4.66,0,0,0,2.14,4.1A11.14,11.14,0,0,0,451.79,195.11ZM434.7,175.25H427l2.38-6.85a41.86,41.86,0,0,0,1.42-4.84c.12.48.33,1.24.65,2.27s.57,1.79.75,2.27Zm-11.49,11,2.57-7.3h10.06l2.62,7.3H443l-9.84-26.4h-4.67l-9.84,26.4Zm424-55.38h-9a6.1,6.1,0,0,1,1.45-3.72,4.23,4.23,0,0,1,3.23-1.28,4,4,0,0,1,3.16,1.27A5.46,5.46,0,0,1,847.17,130.88Zm-3.58,12.41a18.72,18.72,0,0,0,3.62-.31,12.93,12.93,0,0,0,3.13-1V138.5a16.85,16.85,0,0,1-3.27,1.11,15.38,15.38,0,0,1-3.28.33,5.45,5.45,0,0,1-4.15-1.55,6.51,6.51,0,0,1-1.57-4.45h13.26v-2.29a9.15,9.15,0,0,0-2.29-6.58,8.16,8.16,0,0,0-6.22-2.39,8.4,8.4,0,0,0-6.67,2.78,11.29,11.29,0,0,0-2.43,7.67,10.24,10.24,0,0,0,2.62,7.45A9.59,9.59,0,0,0,843.59,143.29Zm-14.73-.36v-28h-4.22v28Zm-18-3.1a4.27,4.27,0,0,1-3.75-1.62q-1.16-1.64-1.16-5.26v-.29c0-2.35.41-4,1.16-5a4.31,4.31,0,0,1,3.68-1.5c3.1,0,4.64,2.26,4.64,6.78a9.36,9.36,0,0,1-1.16,5.14A3.8,3.8,0,0,1,810.82,139.83Zm1,3.46a7,7,0,0,0,5.84-2.73q2.11-2.72,2.11-7.61c0-3.25-.7-5.78-2.08-7.58a6.93,6.93,0,0,0-5.8-2.69,6.75,6.75,0,0,0-5.94,3h-.18c0-.26.06-.88.11-1.85s.07-1.7.07-2.19v-6.66h-4.22v28h3.16l.78-2.36h.28A7,7,0,0,0,811.78,143.29Zm-25.31-3.24a3.38,3.38,0,0,1-2.37-.73,2.64,2.64,0,0,1-.79-2.06,3,3,0,0,1,1.35-2.72,8.69,8.69,0,0,1,4.35-1l2.55-.11v1.73a4.63,4.63,0,0,1-1.39,3.6A5.23,5.23,0,0,1,786.47,140.05Zm-1.33,3.24a9.11,9.11,0,0,0,3.74-.66,8.2,8.2,0,0,0,2.9-2.47h.14l.85,2.77h3v-13.4c0-2.36-.65-4.1-1.93-5.2a8.63,8.63,0,0,0-5.73-1.65,16,16,0,0,0-3.64.44A14.73,14.73,0,0,0,781,124.4l1.37,3a23,23,0,0,1,2.7-1.06,9.5,9.5,0,0,1,2.93-.45,3.65,3.65,0,0,1,2.76,1,4,4,0,0,1,.89,2.85v1.06l-3.44.11q-4.67.13-7,1.71a5.26,5.26,0,0,0-2.28,4.64,6,6,0,0,0,1.64,4.48A6.37,6.37,0,0,0,785.14,143.29Zm-24-.36V133q0-3.72,1.24-5.31a4.69,4.69,0,0,1,3.92-1.58,3.6,3.6,0,0,1,2.94,1.13,5.35,5.35,0,0,1,.93,3.44v12.23h4.24V130q0-7.29-7.16-7.28a8.53,8.53,0,0,0-3.67.77,6,6,0,0,0-2.55,2.19h-.22l-.59-2.6h-3.31v19.89Zm-10.27,0V123h-4.23v19.89Zm-2.09-22.84a2.37,2.37,0,0,0,1.74-.62,2.32,2.32,0,0,0,.62-1.7,2.14,2.14,0,0,0-2.36-2.36A2.39,2.39,0,0,0,747,116a2.36,2.36,0,0,0-.62,1.75,2.32,2.32,0,0,0,.62,1.7A2.4,2.4,0,0,0,748.81,120.09Zm-17.35,20a3.39,3.39,0,0,1-2.38-.73,2.64,2.64,0,0,1-.79-2.06,3,3,0,0,1,1.36-2.72,8.62,8.62,0,0,1,4.34-1l2.56-.11v1.73a4.63,4.63,0,0,1-1.4,3.6A5.22,5.22,0,0,1,731.46,140.05Zm-1.33,3.24a9.15,9.15,0,0,0,3.74-.66,8.18,8.18,0,0,0,2.89-2.47h.15l.84,2.77h3v-13.4c0-2.36-.64-4.1-1.93-5.2a8.63,8.63,0,0,0-5.73-1.65,15.89,15.89,0,0,0-3.63.44,14.65,14.65,0,0,0-3.55,1.28l1.37,3a23,23,0,0,1,2.7-1.06,9.5,9.5,0,0,1,2.93-.45,3.62,3.62,0,0,1,2.76,1,4,4,0,0,1,.89,2.85v1.06l-3.43.11q-4.68.13-7,1.71a5.24,5.24,0,0,0-2.29,4.64,5.93,5.93,0,0,0,1.65,4.48A6.35,6.35,0,0,0,730.13,143.29Zm-12.9,0a12.19,12.19,0,0,0,2.29-.21,8.94,8.94,0,0,0,1.81-.51v-3.19a10.07,10.07,0,0,1-3.09.49,2.78,2.78,0,0,1-2-.73,3,3,0,0,1-.76-2.25V126.24h5.66V123h-5.66v-4.43h-2.61l-1.44,4.21-2.91,1.55v1.87h2.71V137Q711.22,143.29,717.23,143.29Zm-19.17,0a10.15,10.15,0,0,0,6.08-1.56,5.21,5.21,0,0,0,2.12-4.47,5.27,5.27,0,0,0-.54-2.47,5.2,5.2,0,0,0-1.66-1.83,17.93,17.93,0,0,0-3.57-1.74,19.46,19.46,0,0,1-3.81-1.78,1.92,1.92,0,0,1-.87-1.58c0-1.27,1.11-1.91,3.34-1.91a14.71,14.71,0,0,1,5.42,1.33l1.37-3.18a15.85,15.85,0,0,0-6.64-1.42,9.77,9.77,0,0,0-5.6,1.41,4.51,4.51,0,0,0-2.06,4,4.93,4.93,0,0,0,1.21,3.46,12.89,12.89,0,0,0,4.65,2.66,23.1,23.1,0,0,1,2.75,1.22,4.9,4.9,0,0,1,1.42,1.05,1.83,1.83,0,0,1,.43,1.25c0,1.58-1.3,2.36-3.9,2.36a15.69,15.69,0,0,1-6.53-1.62v3.65A14.3,14.3,0,0,0,698.06,143.29Zm-21.55,0a8.54,8.54,0,0,0,3.72-.79,6,6,0,0,0,2.5-2.18H683l.59,2.61h3.33V123h-4.24V133q0,3.74-1.25,5.33a4.69,4.69,0,0,1-3.92,1.59,3.58,3.58,0,0,1-2.93-1.14,5.34,5.34,0,0,1-.93-3.43V123h-4.26v13q0,3.65,1.78,5.45T676.51,143.29Zm-21.17,0a11,11,0,0,0,7-2,6.61,6.61,0,0,0,2.54-5.5,7.12,7.12,0,0,0-.63-3.1,6.6,6.6,0,0,0-2-2.35,19.23,19.23,0,0,0-4.25-2.25,24.69,24.69,0,0,1-3.56-1.71A4.45,4.45,0,0,1,653,125a3.38,3.38,0,0,1-.43-1.76,3,3,0,0,1,1.08-2.4,4.82,4.82,0,0,1,3.16-.91,16.31,16.31,0,0,1,6.26,1.48l1.37-3.51a18.47,18.47,0,0,0-7.52-1.65,9.72,9.72,0,0,0-6.27,1.88,6.3,6.3,0,0,0-2.34,5.18,7.07,7.07,0,0,0,1.47,4.5,12.23,12.23,0,0,0,5.07,3.33,16.55,16.55,0,0,1,4.61,2.43,3.26,3.26,0,0,1,1.11,2.5,3.14,3.14,0,0,1-1.21,2.6,6,6,0,0,1-3.77,1,16.43,16.43,0,0,1-3.77-.48,19.81,19.81,0,0,1-3.82-1.33v4.06A16.61,16.61,0,0,0,655.34,143.29Zm-27.3-.36v-10.4a6,6,0,0,1,1.58-4.3,5.39,5.39,0,0,1,4.11-1.65,7.72,7.72,0,0,1,1.87.22l.41-3.94a10.12,10.12,0,0,0-2.1-.18,6.09,6.09,0,0,0-3.43,1,8,8,0,0,0-2.58,2.82h-.22l-.56-3.5h-3.3v19.89Zm-18.47-3.1q-5.09,0-5.09-6.88a9,9,0,0,1,1.2-5.06,4.34,4.34,0,0,1,3.86-1.76q5.07,0,5.07,6.82T609.57,139.83Zm-.07,3.46a8.94,8.94,0,0,0,7-2.74q2.5-2.73,2.5-7.6a10.71,10.71,0,0,0-2.52-7.49,8.73,8.73,0,0,0-6.83-2.78,9,9,0,0,0-7,2.71q-2.48,2.72-2.48,7.56a12.25,12.25,0,0,0,1.15,5.46,8.33,8.33,0,0,0,3.29,3.62A9.54,9.54,0,0,0,609.5,143.29Zm-16.42-.36V126.24h4.86V123h-4.86v-1.3a4.45,4.45,0,0,1,.66-2.67,2.42,2.42,0,0,1,2.09-.89,10,10,0,0,1,3,.5l1.11-3.2a13.52,13.52,0,0,0-4.39-.73,6.73,6.73,0,0,0-5,1.7c-1.1,1.13-1.66,2.87-1.66,5.22V123l-3.27,1.3v2h3.27v16.69Zm-23.65-12.05h-9a6.1,6.1,0,0,1,1.45-3.72,4.21,4.21,0,0,1,3.23-1.28,4,4,0,0,1,3.16,1.27A5.51,5.51,0,0,1,569.43,130.88Zm-3.58,12.41a18.61,18.61,0,0,0,3.61-.31,12.79,12.79,0,0,0,3.13-1V138.5a16.78,16.78,0,0,1-3.26,1.11,15.45,15.45,0,0,1-3.28.33,5.49,5.49,0,0,1-4.16-1.55,6.55,6.55,0,0,1-1.56-4.45h13.25v-2.29a9.14,9.14,0,0,0-2.28-6.58,8.17,8.17,0,0,0-6.22-2.39,8.43,8.43,0,0,0-6.68,2.78,11.34,11.34,0,0,0-2.42,7.67,10.28,10.28,0,0,0,2.61,7.45A9.62,9.62,0,0,0,565.85,143.29Zm-19.3-.36L554.14,123h-4.49l-4,11.56a32.31,32.31,0,0,0-1.26,4.71h-.14a23.63,23.63,0,0,0-1.26-4.71L538.89,123h-4.46L542,142.93Zm-15.14,0V123h-4.23v19.89Zm-2.09-22.84a2.37,2.37,0,0,0,1.74-.62,2.32,2.32,0,0,0,.62-1.7,2.14,2.14,0,0,0-2.36-2.36,2.39,2.39,0,0,0-1.77.61,2.36,2.36,0,0,0-.62,1.75,2.32,2.32,0,0,0,.62,1.7A2.4,2.4,0,0,0,529.32,120.09Zm-10.21,23.2a12.27,12.27,0,0,0,2.29-.21,8.94,8.94,0,0,0,1.81-.51v-3.19a10.09,10.09,0,0,1-3.1.49,2.77,2.77,0,0,1-2-.73,3,3,0,0,1-.77-2.25V126.24H523V123h-5.67v-4.43h-2.6l-1.44,4.21-2.92,1.55v1.87h2.72V137Q513.1,143.29,519.11,143.29Zm-21.62-3.24a3.39,3.39,0,0,1-2.38-.73,2.67,2.67,0,0,1-.79-2.06,3,3,0,0,1,1.36-2.72,8.65,8.65,0,0,1,4.34-1l2.56-.11v1.73a4.63,4.63,0,0,1-1.4,3.6A5.2,5.2,0,0,1,497.49,140.05Zm-1.33,3.24a9.11,9.11,0,0,0,3.74-.66,8.09,8.09,0,0,0,2.89-2.47h.15l.84,2.77h3v-13.4c0-2.36-.64-4.1-1.93-5.2a8.63,8.63,0,0,0-5.73-1.65,15.89,15.89,0,0,0-3.63.44A14.73,14.73,0,0,0,492,124.4l1.36,3a24.41,24.41,0,0,1,2.7-1.06,9.55,9.55,0,0,1,2.93-.45,3.62,3.62,0,0,1,2.76,1,4,4,0,0,1,.89,2.85v1.06l-3.43.11q-4.68.13-7,1.71a5.26,5.26,0,0,0-2.28,4.64,5.92,5.92,0,0,0,1.64,4.48A6.35,6.35,0,0,0,496.16,143.29Zm-10.87-.36V123h-4.22v19.89Zm-2.08-22.84a2.35,2.35,0,0,0,1.73-.62,2.28,2.28,0,0,0,.62-1.7,2.14,2.14,0,0,0-2.35-2.36,2.39,2.39,0,0,0-1.77.61,2.32,2.32,0,0,0-.62,1.75,2.28,2.28,0,0,0,.62,1.7A2.4,2.4,0,0,0,483.21,120.09ZM473,143.29a12.38,12.38,0,0,0,2.3-.21,8.82,8.82,0,0,0,1.8-.51v-3.19a10.07,10.07,0,0,1-3.09.49,2.78,2.78,0,0,1-2-.73,3,3,0,0,1-.76-2.25V126.24h5.67V123h-5.67v-4.43h-2.61l-1.44,4.21-2.91,1.55v1.87H467V137Q467,143.29,473,143.29Zm-12.44-.36V123h-4.23v19.89Zm-2.09-22.84a2.39,2.39,0,0,0,1.74-.62,2.32,2.32,0,0,0,.62-1.7,2.14,2.14,0,0,0-2.36-2.36,2.39,2.39,0,0,0-1.77.61,2.36,2.36,0,0,0-.62,1.75,2.32,2.32,0,0,0,.62,1.7A2.4,2.4,0,0,0,458.46,120.09Zm-21.29,22.84V133q0-3.72,1.24-5.31a4.69,4.69,0,0,1,3.92-1.58,3.6,3.6,0,0,1,2.94,1.13,5.35,5.35,0,0,1,.93,3.44v12.23h4.24V130q0-7.29-7.16-7.28a8.53,8.53,0,0,0-3.67.77,6,6,0,0,0-2.55,2.19h-.22l-.59-2.6h-3.31v19.89Zm-10.72,0v-26.3h-4.3v26.3Z"/></clipPath><clipPath id="clip-path-2"><rect class="cls-1" x="10.62" y="2.09" width="877.5" height="198.61"/></clipPath></defs><g id="INA-logo-big"><g id="INA"><polygon id="I" class="cls-2" points="0 202 19.5 202 19.5 9.38 10.21 -0.06 0 9.38 0 202"/><g id="N"><polygon class="cls-2" points="66.32 12.98 66.38 202.02 85.88 202.02 85.82 46.67 66.32 12.98"/><polygon class="cls-3" points="175.85 202.09 192.38 202.09 192.49 189.24 82.91 -0.06 66.32 12.98 175.85 202.09"/><polygon class="cls-2" points="186.03 -0.06 175.82 9.14 172.96 155.48 192.47 189.17 195.33 9.14 186.03 -0.06"/></g><g id="A"><polygon class="cls-3" points="303.05 10.04 302.51 10.32 291.88 38.13 353.06 198.22 365.12 202.46 371.34 188.73 303.05 10.04"/><polygon class="cls-2" points="228.93 202.85 302.85 9.43 284.56 -0.06 210.65 193.36 228.93 202.85"/></g><g class="cls-4"><g class="cls-5"><rect class="cls-6" x="415.07" y="111.13" width="472.28" height="87.59"/></g></g></g></g></svg>